<svg xmlns="http://www.w3.org/2000/svg" viewBox="0 0 2205.12 1708.75"><g id="Слой_2" data-name="Слой 2"><g id="Слой_1-2" data-name="Слой 1"><g id="Детали_копия" data-name="Детали копия" opacity=".17"><circle fill="#e181c1" id="Эллипс_2_копия_7" data-name="Эллипс 2 копия 7" cx="548.5" cy="347.25" r="27.5"/><circle fill="#e181c1" id="Эллипс_2_копия_13" data-name="Эллипс 2 копия 13" cx="481" cy="1674.75" r="34"/><circle fill="#e181c1" id="Эллипс_2_копия_14" data-name="Эллипс 2 копия 14" cx="1831" cy="1420.75" r="24"/><circle fill="#e181c1" id="Эллипс_2_копия_8" data-name="Эллипс 2 копия 8" cx="2073" cy="684.75" r="33"/><circle fill="#e181c1" id="Эллипс_2_копия_11" data-name="Эллипс 2 копия 11" cx="1885.5" cy="156.25" r="63.5"/><circle fill="#e181c1" id="Эллипс_2_копия_15" data-name="Эллипс 2 копия 15" cx="180.5" cy="1307.25" r="63.5"/><circle fill="#e181c1" id="Эллипс_2_копия_12" data-name="Эллипс 2 копия 12" cx="38" cy="738.75" r="38"/><circle fill="#e181c1" id="Эллипс_2_копия_9" data-name="Эллипс 2 копия 9" cx="355" cy="1037.75" r="19"/><circle fill="#e181c1" id="Эллипс_2_копия_10" data-name="Эллипс 2 копия 10" cx="1289" cy="460.75" r="19"/><path d="M2194.94 1213.71c-1.31-.07-2.14-.08-3-.18-6.88-.82-9.11.83-10.78 7.64-.65 2.66 1.35 3.54 2.76 4.79 7.45 6.6 7.85 4 2.13 13.78a23.8 23.8 0 0 0-1.26 2.15c-2.12 4.68-4.92 5.75-9.75 3-5.79-3.25-9.67-1.56-12.76 4.35-1.31 2.51.47 4.11 1.57 5.86 4.56 7.28 4.59 7.26-1.89 13-6.85 6.08-7.17 6.42-13.78.25-4.4-4.11-6.87-.71-10.26.92-3.91 1.87-2.95 4.53-1.94 7.47.54 1.57.79 3.25 1.42 4.77.92 2.23.06 3.44-1.94 4.3-1.37.59-2.68 1.33-4 2-9.4 4.62-9.44 4.64-15-4.07-1.39-2.16-2.72-3.83-5.51-2.15s-8-.28-8 6c0 10.49-.23 10.49-11 11.13a21.83 21.83 0 0 0-4.46.38c-2.29.63-3-.52-3.43-2.39-.5-2.1-1.44-4.14-1.62-6.25-.27-3.25-2.09-3.83-4.9-4.21-7.69-1-7.89-1.25-10 6.27-1.34 4.82-3.35 7.47-8.69 5.33a8.36 8.36 0 0 0-2-.17c-9.69-1.22-10.1-1.68-9-11.31.34-3.07-.25-5.21-3.71-5.79a11.09 11.09 0 0 1-3.76-1.29c-3.46-2-5.59-.78-7.69 2.27-6.27 9.09-4.55 6.84-13.25 3.25a8.59 8.59 0 0 1-.89-.45c-7.39-4.12-7.31-4.09-4.41-12.11.73-2 3.36-4.66-.4-6.27s-6.3-8.09-11.63-2.73c-.58.59-1.35 1-1.9 1.62-3.64 4.05-6.87 2.77-9.95-.71-.55-.62-1-1.33-1.56-1.94-6.07-6.71-6.16-6.77-.61-14.14 1.82-2.41 1.78-4.08 0-6.51-5.1-6.76-5.1-7.13-12.86-3.66-3.95 1.77-6.15 1.4-7.5-2.75a12.1 12.1 0 0 0-1-1.7c-4.91-9.24-5.1-9.51 3.23-15.73 4-3 1.33-5.63.76-8.34-.87-4.11-2.74-6.4-7.94-5.15-6.94 1.67-7.5.85-8.8-6-.12-.65-.41-1.27-.51-1.93-1.85-11.48-3.37-8.69 7.15-12.8 1.76-.69 5-.43 3.94-3.84s1.67-8.18-4.9-9.14c-8.62-1.25-8.95-2.26-7.77-10.81 1.48-10.7 1.47-10.84 12.25-11.71 2.82-.23 3.47-2 3.59-3.82.16-2.48 3.37-5.28-.44-7.54-.29-.17-.58-.32-.86-.51-8.75-5.84-8.75-5.85-4.31-15.61.21-.45.46-.89.66-1.34 3.06-6.93 3.06-6.93 10-4.95 6 1.71 9.54-.26 11.16-6.12.58-2.1-1-3-2.1-4.16-6.4-7-6.4-7.61.13-14.67l.34-.36c6.49-6.95 6.68-7.21 14.49-1.77 4.56 3.17 6.08-1.1 8.78-2.57s2.35-3.26 1.24-5.84c-4.46-10.35-5.6-8.09 4.63-14.85 5.8-3.83 5.77-3.66 10.34 1.69 1.66 1.94 3.13 5.39 5.8 4.88a23.16 23.16 0 0 0 9.74-4.71c1.93-1.56.9-4.74.24-7.1-1.17-4.15-.79-7.21 4.32-7.78a4.51 4.51 0 0 0 1-.26c10.6-3.7 10.7-3.75 15.57 6.06 1.3 2.61 2.84 3.39 5.5 2.71a14.16 14.16 0 0 1 3.92-.61c2.86.1 3.92-1 4.44-4 2-11.15 2.25-11.22 13.35-9.41 6.93 1.13 7 1.23 7.45 8.66.15 2.54-.66 5.57 3.59 5.74 3.93.16 8.13 3.47 10.9-2.76 3.62-8.13 4-8 12.39-4.88 9.74 3.57 9.95 3.61 7.79 13.41-.66 3-.06 4.42 2.56 5.28 2.79.91 5 4.52 8.65.71 7-7.23 7.22-7 15.59-1.09 7.25 5.13 7.32 5.17 2.82 13.32-1.44 2.61-2.36 4.33.29 7.23 3.62 4 6.46 3.86 10.58 1.1 6-4 6.11-3.76 10.42 2 .4.53.72 1.12 1.11 1.66 6 8.26 6.12 8.35-.72 15.45-2.32 2.41-2.36 4.28-.56 6.94 1.67 2.46 2.37 5.25 6.62 4.24 9.22-2.18 9.27-1.95 12.77 6.88.18.46.38.92.55 1.39 3 8.18 3.12 8.56-4.82 12-4.58 2-4.31 4.65-3.59 8.53s2.68 4.5 6.16 4.65c8.62.37 8.61.58 8.86 9.35 0 .67.06 1.33.07 2 .28 9.66.33 10-9.17 11.41-5.53.83-3.65 5.13-4.65 8-.94 2.7.23 4.34 3.18 5.56 9.1 3.78 9 4 6.55 13.49-.38 1.45-.89 2.86-1.21 4.32-.73 3.04-2.23 4.52-4.91 3.75zm-117.74-145.23c-55.07-.91-103.65 45.66-103.29 104.57.35 55.87 45.2 104.09 105.15 103.5 58.11-.57 102.39-46 102.9-104 .5-58.27-47.43-105.19-104.76-104.07z" fill="#e181c1"/><path d="M259.76 625.44c-1.52-4.25 2.7-3.68 4.91-4.53s5.16-2.07 6.24 2c.47 1.76.72 4.26 3.75 3.52 2.56-.62 5.45-.85 5.3-4.61-.13-3.11 1.64-4.4 4.4-3.76 2.51.58 6.39-1.05 6.77 3.78.19 2.39.53 4.61 4 5.35s4-1.36 5.14-3.29c2.52-4.46 5.76-1.49 8.71-.88s3.66 2.6 2.6 5.27c-.88 2.22-.37 3.81 1.76 5s3.89.42 5.19-1.35c2.2-3 4.53-2.31 6.68-.21s6.81 3.41 3.25 8c-1.07 1.4-2 3 0 4.79s3.47 2.14 5.61.6c2.3-1.65 4.59-2.2 6.09 1 1.3 2.83 6.36 5.13 1.19 8.9-1.9 1.39-1.86 3.27-1 5.37 1.12 2.67 2.92 2 4.93 1.41 5-1.49 5.16 2.71 6.43 5.58s1.12 5-2.36 6.17c-1.55.52-3.5.93-2.86 3.75.56 2.49 1.59 4.07 4.08 4 7.08-.11 3.74 5.61 4.81 8.69 1.22 3.5-1.95 3.63-4.16 3.92-3 .39-3.47 2.55-3.9 4.88-.46 2.52 1.46 3.35 3.13 3.74 5.14 1.19 3 4.57 2.41 7.43s-1.41 5.16-5.27 3.85c-2.27-.77-4 .14-5.12 2.63s-.4 4.29 1.68 5.52c2.59 1.53 3.18 3.34 1.14 5.57-1.86 2-2.14 6.72-6.86 4.32-2.41-1.23-4.47-1.37-6.47 1.19-1.84 2.37-.9 4 .54 5.74 2.34 2.77.63 4.47-1.41 6.16s-3.66 4.31-6.74 1.7c-1.93-1.64-3.8-3.26-6.6-1.33s-1.84 4.24-1.24 6.67c1.08 4.39-3.12 3.91-5.15 5.31-1.58 1.08-3.43 2.09-5-.63-1.2-2.1-2-4.77-5.93-3.7-3.81 1-3.49 3.33-3.42 5.95.1 3.68-3 3.11-5 3.47-2.26.4-5.17 1.33-6.06-2.37-.58-2.42-1-4.65-4.6-4.6s-4 2.13-4.81 4.55c-1.56 4.67-4.9 1.81-7.52 1.58s-4.55-1.4-3.6-4.57c.7-2.36.62-4.12-2.29-4.94-2.59-.73-5-2.08-6.58 1.5-1.86 4.31-4.65 2.2-7.31 1s-5.13-2.67-3-6.2c1.82-3.06-.49-4.39-2.22-6.22-2.21-2.32-3.6-.56-5 .76-3.27 3.19-5.21.45-7.47-1.43s-3.47-3.93-.84-6.57c2.06-2.07 1.22-4.06-.24-6.21s-3.22-2.07-5.14-1c-4.52 2.45-5.15-1.58-6.79-4-1.81-2.64-1.78-4.78 1.37-6.42 1.76-.92 3.47-1.86 2.15-4.6-1.12-2.33-1.72-4.62-5.12-4-2.46.43-4.8.08-4.91-3.26-.1-3.12-2.6-7.1 3-8.17 1.93-.37 3.2-1.28 3-3.72s-1-3.65-3.44-4c-5.58-.72-3.49-5-3.6-8.18s1.54-5 5-4.55c2.59.32 3.8-.85 4.55-3.33.86-2.84-1-3.71-2.79-4.45-4.09-1.71-2.56-4.42-1.37-6.94s1.63-6.58 6.38-4.5c2 .87 3.86 1.14 5.34-1.51 1.38-2.48.86-4.12-1-5.64-4-3.25-.13-5.14 1.29-7.3s3.09-4.45 6.37-2.14c1.64 1.15 3.34 2.64 5.79.64s1.9-3.89.85-6.07c-1.83-3.82 1.18-4.9 3.52-6.45s4.45-2.13 6.18.95c1.33 2.36 3 2.82 5.82 1.63 3.08-1.14 3.5-3.05 2.84-6.21zm-35.87 65.24a59.09 59.09 0 1 0 118.18.14c.2-31.71-26.21-60-60.88-59.32-31.19.58-57.27 27.03-57.31 59.18zm28.44-563.94c-2-1-5.12 1.44-6.2-1.65-1.37-3.88-2.91-8-1.79-12.14.57-2.09 3.75-1.68 5.59-2.75s4.61-1 3.73-4.22c-.71-2.65.16-5.87-4.45-6.46-6.32-.81-6.94-2.3-5.86-8.77a17.06 17.06 0 0 0 .6-3.42c-.2-4.46 2.06-5.71 6.18-5.63 2.05 0 5 1.72 6-2.37.83-3.57 1.13-6.42-3-8-4.54-1.74-4.79-4.94-2.78-8.82a17.55 17.55 0 0 0 1.65-3.62c1.18-4.67 4.18-5.42 8.12-3.78 3.27 1.37 5.34.89 7.44-2.34 2.22-3.42.5-5.3-1.63-7.17-3.24-2.84-3.05-5.49-.21-8.39a34.89 34.89 0 0 0 3.57-4.15c2.32-3.27 4.71-3.58 7.76-.86 2.65 2.37 5.2 3.43 8.43 0 2.1-2.23 2.66-3.58 1.27-6.29-1-1.9-3.57-4.13-1.79-6.24a18.75 18.75 0 0 1 9.92-6.34c2.24-.5 3.78 2.5 4.9 4.4 2.16 3.68 4.66 2.66 7.55 1.32s5.51-2.23 4.1-6.48c-.65-2-1.77-5.15.64-6.4 3.75-1.95 7.76-4.33 12.27-3.13 2.06.55 2.11 3.28 2.77 5.06 1.24 3.36 3.47 4.18 6.62 3.48 2.78-.61 5.6-1 5.35-5.09-.3-5 2.45-6.73 7.31-6.49 7 .35 7.91.58 8.66 7.55.5 4.59 3.87 4.15 6.67 5 3 .93 4.4-1 5.13-3.34 1.4-4.6 3.9-6.05 8.36-3.67a21.13 21.13 0 0 0 5.15 1.81c3.45.8 3.92 2.64 3 5.9-.77 2.84-2.67 6.17 2.26 8.14 3.06 1.22 5 1.2 6.74-1.39 2.85-4.13 6.05-4.41 9.72-1.07a19.38 19.38 0 0 0 3.52 2.77c3.67 2 3.65 4.44 1.49 7.69-1.58 2.37-3.55 4.87-.16 7.81 2.17 1.88 3.68 2.73 6.43 1.12 2.12-1.24 4.68-4.2 7.1-2 3.1 2.88 6.16 6.25 7.4 10.45.7 2.35-2 3.65-3.55 5-2.39 2.13-2.71 4-1.16 6.9s3 3.39 6 2.38c4.79-1.65 7.54.19 9.11 5.21 2.44 7.74 2.85 7.83-4.26 11.8-3.15 1.76-2 4.13-2 6.47 0 2.69 1.79 3.05 4 3.35 7.83 1 7.83 1.12 8 9.07 0 1.17-.09 2.34 0 3.5.41 3.5-.78 5.3-4.61 5.27-4.52 0-6.86 1.92-6.57 7 .2 3.55 2.77 4 4.8 4.82 3.92 1.49 5.25 3.68 3.62 7.62a14.83 14.83 0 0 0-1 3.85c-.49 4-2.75 5.16-6.58 4.6-2.69-.39-5.52-1.05-7.17 2.61-1.5 3.31-2.09 5.74 1.71 7.82 4.37 2.38 4.57 5.67 1.4 9.36a10 10 0 0 0-1.6 2.52c-1.68 3.95-4.49 4.71-7.9 2.5-3.69-2.39-5.93-1.31-8.7 1.82s-1 5.34.61 7.41c2.68 3.39 2.27 5.9-1.14 8.29a23 23 0 0 0-4.2 3.48c-2.13 2.45-3.65 1.64-5.75-.19-2.29-2-4.28-5.31-8.45-2.55-3.09 2.05-4.67 4-2.84 7.66 2.16 4.26.83 6.86-3.8 7.91a7.84 7.84 0 0 0-2.26 1c-3.83 2.34-6.88 2.59-8.87-2.44-1-2.61-2.47-4.86-6.43-3.36-3.49 1.32-5.9 2.45-5.39 6.8.33 2.83.91 5.95-3.92 6.34-10.34.85-10.61 1.13-11.76-4.55-.76-3.73-2.52-4.69-6.09-4.82s-5.7 1.11-6.16 4.66c-.62 4.81-3.47 5.2-7.48 4.33-8.09-1.75-8.2-1.64-8.3-9.3 0-2.56-1-3.53-3.37-4.62-4.52-2.08-7.47-1.38-9.59 3.13-1.4 3-3.67 3.49-6.5 1.93a24.57 24.57 0 0 0-3.56-1.8c-5.13-1.81-5.87-5-3.29-9.51 1.07-1.89 1.86-4.11-1-5.49-2.47-1.2-4.12-4.47-7.85-2.21-7.17 4.36-7 4-13-1.78-2.94-2.85-3-4.84-.56-7.83a7.47 7.47 0 0 0-1.76-11.34c-2-1.3-3.9.22-5.52 1-4.09 2-6.52.9-8-3.26a16.27 16.27 0 0 0-1.85-3.54c-1.92-2.9-1.71-5 1.61-6.84s5.86-3.82 3.52-8.55c-1.36-2.85-2.23-5.25-6.12-3.46zm8.67-25.38c.63 47 37.58 81.76 81.29 82.2 47.71.49 82.88-36.37 83.41-80.83.58-48.31-37.71-84.56-84-84.12-43.93.39-80.7 37.71-80.7 82.75z" fill="#e182c2"/></g></g></g></svg>