<svg xmlns="http://www.w3.org/2000/svg" viewBox="0 0 2226.12 1097"><g id="Слой_2" data-name="Слой 2"><g id="Слой_1-2" data-name="Слой 1"><g id="Детали_копия_2" data-name="Детали копия 2" opacity=".17"><circle fill="#e181c1" id="Эллипс_2_копия_7" data-name="Эллипс 2 копия 7" cx="553" cy="330" r="28"/><circle fill="#e181c1" id="Эллипс_2_копия_13" data-name="Эллипс 2 копия 13" cx="926.5" cy="947.5" r="14.5"/><circle fill="#e181c1" id="Эллипс_2_копия_14" data-name="Эллипс 2 копия 14" cx="1831" cy="720" r="24"/><circle fill="#e181c1" id="Эллипс_2_копия_8" data-name="Эллипс 2 копия 8" cx="1883" cy="304" r="33"/><circle fill="#e181c1" id="Эллипс_2_копия_11" data-name="Эллипс 2 копия 11" cx="1332.5" cy="1033.5" r="63.5"/><circle fill="#e181c1" id="Эллипс_2_копия_15" data-name="Эллипс 2 копия 15" cx="180.5" cy="632.5" r="63.5"/><circle fill="#e181c1" id="Эллипс_2_копия_12" data-name="Эллипс 2 копия 12" cx="38" cy="38" r="38"/><circle fill="#e181c1" id="Эллипс_2_копия_9" data-name="Эллипс 2 копия 9" cx="291" cy="230" r="11"/><circle fill="#e181c1" id="Эллипс_2_копия_10" data-name="Эллипс 2 копия 10" cx="1490" cy="170" r="19"/><path d="M2215.94 610c-1.31-.07-2.14-.08-3-.18-6.88-.82-9.11.83-10.78 7.64-.65 2.66 1.35 3.54 2.76 4.79 7.45 6.6 7.85 4 2.13 13.78a23.8 23.8 0 0 0-1.26 2.15c-2.12 4.68-4.92 5.75-9.75 3-5.79-3.25-9.67-1.56-12.76 4.35-1.31 2.51.47 4.11 1.57 5.86 4.56 7.28 4.59 7.26-1.89 13-6.85 6.08-7.17 6.42-13.78.25-4.4-4.11-6.87-.71-10.26.92-3.91 1.87-2.95 4.53-1.94 7.47.54 1.57.79 3.25 1.42 4.77.92 2.23.06 3.44-1.94 4.3-1.37.59-2.68 1.33-4 2-9.4 4.62-9.44 4.64-15-4.07-1.39-2.16-2.72-3.83-5.51-2.15s-8-.28-8 6c0 10.49-.23 10.49-11 11.13a21.83 21.83 0 0 0-4.46.38c-2.29.63-3-.52-3.43-2.39-.5-2.1-1.44-4.14-1.62-6.25-.27-3.25-2.09-3.83-4.9-4.21-7.69-1-7.89-1.25-10 6.27-1.34 4.82-3.35 7.47-8.69 5.33a8.36 8.36 0 0 0-2-.17c-9.69-1.22-10.1-1.68-9-11.31.34-3.07-.25-5.21-3.71-5.79a11.09 11.09 0 0 1-3.76-1.29c-3.46-2-5.59-.78-7.69 2.27-6.27 9.09-4.55 6.84-13.25 3.25a8.59 8.59 0 0 1-.89-.45c-7.39-4.12-7.31-4.09-4.41-12.11.73-2 3.36-4.66-.4-6.27s-6.3-8.09-11.63-2.73c-.58.59-1.35 1-1.9 1.62-3.64 4.05-6.87 2.77-9.95-.71-.55-.62-1-1.33-1.56-1.94-6.07-6.71-6.16-6.77-.61-14.14 1.82-2.41 1.78-4.08 0-6.51-5.1-6.76-5.1-7.13-12.86-3.66-3.95 1.77-6.15 1.4-7.5-2.75a12.1 12.1 0 0 0-1-1.7c-4.91-9.24-5.1-9.51 3.23-15.73 4-3 1.33-5.63.76-8.34-.87-4.11-2.74-6.4-7.94-5.15-6.94 1.67-7.5.85-8.8-6-.12-.65-.41-1.27-.51-1.93-1.85-11.48-3.37-8.69 7.15-12.8 1.76-.69 5-.43 3.94-3.84s1.67-8.18-4.9-9.14c-8.62-1.25-8.95-2.26-7.77-10.81 1.48-10.7 1.47-10.84 12.25-11.71 2.82-.23 3.47-2 3.59-3.82.16-2.48 3.37-5.28-.44-7.54-.29-.17-.58-.32-.86-.51-8.75-5.84-8.75-5.85-4.31-15.61.21-.45.46-.89.66-1.34 3.06-6.93 3.06-6.93 10-4.95 6 1.71 9.54-.26 11.16-6.12.58-2.1-1-3-2.1-4.16-6.4-7-6.4-7.61.13-14.67l.34-.36c6.49-6.95 6.68-7.21 14.49-1.77 4.56 3.17 6.08-1.1 8.78-2.57s2.35-3.26 1.24-5.84c-4.46-10.35-5.6-8.09 4.63-14.85 5.8-3.83 5.77-3.66 10.34 1.69 1.66 1.94 3.13 5.39 5.8 4.88a23.16 23.16 0 0 0 9.74-4.71c1.93-1.56.9-4.74.24-7.1-1.17-4.15-.79-7.21 4.32-7.78a4.51 4.51 0 0 0 1-.26c10.6-3.7 10.7-3.75 15.57 6.06 1.3 2.61 2.84 3.39 5.5 2.71a14.16 14.16 0 0 1 3.92-.61c2.86.1 3.92-1 4.44-4 2-11.15 2.25-11.22 13.35-9.41 6.93 1.13 7 1.23 7.45 8.66.15 2.54-.66 5.57 3.59 5.74 3.93.16 8.13 3.47 10.9-2.76 3.62-8.13 4-8 12.39-4.88 9.74 3.57 9.95 3.61 7.79 13.41-.66 3-.06 4.42 2.56 5.28 2.79.91 5 4.52 8.65.71 7-7.23 7.22-7 15.59-1.09 7.25 5.13 7.32 5.17 2.82 13.32-1.44 2.61-2.36 4.33.29 7.23 3.62 4 6.46 3.86 10.58 1.1 6-4 6.11-3.76 10.42 2 .4.53.72 1.12 1.11 1.66 6 8.26 6.12 8.35-.72 15.45-2.32 2.41-2.36 4.28-.56 6.94 1.67 2.46 2.37 5.25 6.62 4.24 9.22-2.18 9.27-1.95 12.77 6.88.18.46.38.92.55 1.39 3 8.18 3.12 8.56-4.82 12-4.58 2-4.31 4.65-3.59 8.53s2.68 4.5 6.16 4.65c8.62.37 8.61.58 8.86 9.35 0 .67.06 1.33.07 2 .28 9.66.33 10-9.17 11.41-5.53.83-3.65 5.13-4.65 8-.94 2.7.23 4.34 3.18 5.56 9.1 3.78 9 4 6.55 13.49-.38 1.45-.89 2.86-1.21 4.32-.73 2.96-2.23 4.49-4.91 3.75zM2098.2 464.73c-55.07-.91-103.65 45.66-103.29 104.57.35 55.87 45.2 104.09 105.15 103.5 58.11-.57 102.39-46 102.9-104 .5-58.26-47.43-105.19-104.76-104.07z" fill="#e181c1"/><path d="M257.76 873.69c-1.52-4.25 2.7-3.68 4.91-4.53s5.16-2.07 6.24 2c.47 1.76.72 4.26 3.75 3.52 2.56-.62 5.45-.85 5.3-4.61-.13-3.11 1.64-4.4 4.4-3.76 2.51.58 6.39-1.05 6.77 3.78.19 2.39.53 4.61 4 5.35s4-1.36 5.14-3.29c2.52-4.46 5.76-1.49 8.71-.88s3.66 2.6 2.6 5.27c-.88 2.22-.37 3.81 1.76 5s3.89.42 5.19-1.35c2.2-3 4.53-2.31 6.68-.21s6.81 3.41 3.25 8c-1.07 1.4-2 3 0 4.79s3.47 2.14 5.61.6c2.3-1.65 4.59-2.2 6.09 1 1.3 2.83 6.36 5.13 1.19 8.9-1.9 1.39-1.86 3.27-1 5.37 1.12 2.67 2.92 2 4.93 1.41 5-1.49 5.16 2.71 6.43 5.58s1.12 5-2.36 6.17c-1.55.52-3.5.93-2.86 3.75.56 2.49 1.59 4.07 4.08 4 7.08-.11 3.74 5.61 4.81 8.69 1.22 3.5-1.95 3.63-4.16 3.92-3 .39-3.47 2.55-3.9 4.88-.46 2.52 1.46 3.35 3.13 3.74 5.14 1.19 3 4.57 2.41 7.43s-1.41 5.16-5.27 3.85c-2.27-.77-4 .14-5.12 2.63s-.4 4.29 1.68 5.52c2.59 1.53 3.18 3.34 1.14 5.57-1.86 2-2.14 6.72-6.86 4.32-2.43-1.1-4.43-1.23-6.43 1.33-1.84 2.37-.9 4 .54 5.74 2.34 2.77.63 4.47-1.41 6.16s-3.66 4.31-6.74 1.7c-1.93-1.64-3.8-3.26-6.6-1.33s-1.84 4.24-1.24 6.67c1.08 4.39-3.12 3.91-5.15 5.31-1.58 1.08-3.43 2.09-5-.63-1.2-2.1-2-4.77-5.93-3.7-3.81 1-3.49 3.33-3.42 5.95.1 3.68-3 3.11-5 3.47-2.26.4-5.17 1.33-6.06-2.37-.58-2.42-1-4.65-4.6-4.6s-4 2.13-4.81 4.55c-1.56 4.67-4.9 1.81-7.52 1.58s-4.55-1.4-3.6-4.57c.7-2.36.62-4.12-2.29-4.94-2.59-.73-5-2.08-6.58 1.5-1.86 4.31-4.65 2.2-7.31 1s-5.13-2.67-3-6.2c1.82-3.06-.49-4.39-2.22-6.22-2.21-2.32-3.6-.56-5 .76-3.27 3.19-5.21.45-7.47-1.43s-3.47-3.93-.84-6.57c2.06-2.07 1.22-4.06-.24-6.21s-3.22-2.07-5.14-1c-4.52 2.45-5.15-1.58-6.79-4-1.81-2.64-1.78-4.78 1.37-6.42 1.76-.92 3.47-1.86 2.15-4.6-1.12-2.33-1.72-4.62-5.12-4-2.46.43-4.8.08-4.91-3.26-.1-3.12-2.6-7.1 3-8.17 1.93-.37 3.2-1.28 3-3.72s-1-3.65-3.44-4c-5.58-.72-3.49-5-3.6-8.18s1.54-5 5-4.55c2.59.32 3.8-.85 4.55-3.33.86-2.84-1-3.71-2.79-4.45-4.09-1.71-2.56-4.42-1.37-6.94s1.63-6.58 6.38-4.5c2 .87 3.86 1.14 5.34-1.51 1.38-2.48.86-4.12-1-5.64-4-3.25-.13-5.14 1.29-7.3s3.09-4.45 6.37-2.14c1.64 1.15 3.34 2.64 5.79.64s1.9-3.89.85-6.07c-1.83-3.82 1.18-4.9 3.52-6.45s4.45-2.13 6.18.95c1.33 2.36 3 2.82 5.82 1.63 3.04-1.28 3.46-3.19 2.8-6.35zm-35.87 65.24a59.09 59.09 0 1 0 118.18.14c.2-31.71-26.21-60-60.88-59.32-31.19.59-57.27 27.04-57.31 59.19z" fill="#e182c2"/><path d="M858 237c1.3-2.78.67-7 6.07-6.54 1.33.11 1.93-3.39-.15-4.83-2.31-1.6-2.22-3.33-1.3-5.6s2.26-3.61 4.91-3a3.1 3.1 0 0 0 3.77-1.6c.95-1.59.12-2.57-.87-3.45-2.24-2-.81-3.55.46-5.11s2.63-3.66 5.26-1.73c1.25.92 2.61 1.46 4 0s1.06-2.72.35-4.12c-1.37-2.7.84-3.33 2.36-4.59 1.9-1.57 3.2-1.07 4.61.58 1 1.11 1.89 2.28 3.79 1.43s3-2 2.62-4.19c-.52-2.85 1.62-3.16 3.49-3.88 2.35-.9 3.79-.18 4.71 2.11.49 1.21 1.12 2.54 2.92 2 1.39-.44 3-.52 3-2.65-.06-2.9 1.9-3 4.08-3s3.6.26 4.35 2.88c1.17 4.08 3.82 4.6 6 1.28 1.28-2 2.6-2.46 4.51-1.76s4 1.21 4.11 4.2c.23 4.78 1.33 5.24 5.5 2.43 1.94-1.31 3.13-.5 4.34.69s3.85 1.93 2.47 4.68c-.71 1.42-1.83 2.74-.15 4.45s3 .86 4.43 0c2-1.32 3.11-.18 4 1.39s3.26 2.9 1.24 5.59c-2.74 3.64-2 5.12 2.47 5.21 3 .06 3.57 1.9 4.33 3.93.82 2.19.37 3.9-2 4.85a2.54 2.54 0 0 0-1.61 3.22A2.44 2.44 0 0 0 959 234c3.47-.28 3.1 2.48 3.33 4.39.26 2.11.08 4-2.79 5-3.61 1.2-3.82 3.8-.58 5.78 2.82 1.72 1.95 3.74 1.4 6s-1.61 3.24-3.88 2.36c-1.6-.63-2.54 0-3.16 1.45s-.67 2.63.57 3.62c2 1.63 2.27 3.17.76 5.53s-2.84 3-5.65 2.09a2.92 2.92 0 0 0-3.52 4.36c1.89 2.88.36 4-1.29 5.78-1.87 2-3.45 1.45-5.12 0-1.08-1-2.07-1.54-3.49-.44s-2.12 2.24-1.36 3.84c1.1 2.3 0 3.39-2 4.17s-3.59 2-5.71-.38c-2.78-3.12-4.9-2.42-5.71 1.83-.67 3.51-3.48 2.49-5.43 3.19-2.33.85-2.87-1.1-3.24-2.7s-.79-2.74-2.79-2.77a2.86 2.86 0 0 0-3.22 2.45c-.62 3.19-2.88 2.57-5 2.41-2.54-.19-3.45-1.59-3.24-4 .12-1.37 0-2.67-1.84-3-1.59-.25-3.3-1.25-4.37.82-1.62 3.14-3.58 1.62-5.79.73-2.78-1.12-3-2.75-1.68-5 .75-1.3.31-2.18-.86-2.9s-2.26-2.2-3.89-.69c-2.28 2.1-4.06 1.13-6-.75s-1.89-3.27-.23-5.11c1.1-1.21.63-2.4-.28-3.58-1.07-1.39-2.37-1.92-3.91-1.1-3 1.6-3.71-.76-4.79-2.6s-1.53-3.64 1-4.88a2.37 2.37 0 0 0 1.17-3.35c-.57-1.47-1.07-2.86-3-2.58-2.81.4-3.82-1.21-4.3-3.63s-.06-4.2 2.75-4.82a2.5 2.5 0 0 0 2-3 2.54 2.54 0 0 0-2.61-2.49c-1.51-.11-2.28-1.25-3.33-2zm52.47 46.13c22.71.17 42-17.15 42.32-41.94.34-23.76-17.82-42.4-42.51-43-23.05-.58-42.38 19.4-42.33 43.17.05 23.09 19.12 41.83 42.52 41.77z" fill="#e184c3"/></g></g></g></svg>