<svg xmlns="http://www.w3.org/2000/svg" viewBox="0 0 238.88 238.84"><g id="Слой_2" data-name="Слой 2"><path d="M93.7 229.9v-5.08c0-.85-.1-1.28-1.12-1.54-2.8-.72-5.57-1.61-8.31-2.55-1-.34-1.4-.1-1.94.73-1.74 2.71-3.63 5.34-5.39 8a1.71 1.71 0 0 1-2.52.79c-1.8-.86-3.68-1.55-5.48-2.4-2.37-1.12-4.68-2.36-7-3.51-.9-.44-1.3-.86-.92-2 1.09-3.21 2-6.48 3.06-9.7a1.44 1.44 0 0 0-.68-2 62.08 62.08 0 0 1-7-4.72 1.4 1.4 0 0 0-2.1 0c-2.61 2.25-5.39 4.3-8 6.5a1.11 1.11 0 0 1-1.69 0c-1.85-1.58-3.71-3.15-5.58-4.7a75.71 75.71 0 0 1-5.29-5.51 1.3 1.3 0 0 1-.16-1.95c2-2.76 3.8-5.61 5.77-8.36a1.5 1.5 0 0 0-.08-2.24 63.2 63.2 0 0 1-6-7.28 1.61 1.61 0 0 0-2.18-.44c-3.13 1.28-6.28 2.54-9.4 3.83a1.12 1.12 0 0 1-1.63-.46 145.31 145.31 0 0 1-7.44-12.88c-.58-1.12 0-1.85.79-2.49 2.54-2 5.06-4 7.68-5.95.78-.57.92-.92.54-1.8a82.4 82.4 0 0 1-3.1-7.85 1.79 1.79 0 0 0-2.22-1.34c-3.3.22-6.56.76-9.89.74a1.45 1.45 0 0 1-1.67-1.22c-1.16-4.86-2.24-9.74-3.35-14.62-.17-.73.31-1 .83-1.18 3.09-1.14 6.14-2.41 9.3-3.32 1.71-.49 1.81-1.49 1.63-2.79a50.13 50.13 0 0 1-.61-8.08c0-1.06-.37-1.48-1.3-1.63-3.18-.52-6.23-1.6-9.44-2-1.16-.15-1.92-.63-1.79-2.11.36-3.93.2-7.9 1-11.79a4.82 4.82 0 0 0 .06-.65c.18-3 .19-3 3.16-3.1s5.95-.44 8.92-.6c1.14-.06 1.17-1 1.25-1.62a60.36 60.36 0 0 1 2.07-8.51 1.39 1.39 0 0 0-.79-1.88C12.84 87 10 85.4 7.19 83.87a1.74 1.74 0 0 1-1-2.44c1.27-4.22 3.11-8.21 4.75-12.28.79-2 1.15-2.14 3.26-1.56 2.74.76 5.56 1.16 8.25 2.09a1.9 1.9 0 0 0 2.75-1.16 58.66 58.66 0 0 1 3.51-6.18 1.11 1.11 0 0 0-.19-1.64c-2.25-2.29-4.41-4.66-6.66-6.94a1.75 1.75 0 0 1-.39-2.27c1.41-3.37 4-5.86 6.15-8.7 1.16-1.56 2.56-2.95 3.79-4.46.65-.8 1.27-.6 2-.17 2.72 1.62 5.49 3.17 8.17 4.87 1.21.77 2 .88 3.11-.25 1.6-1.7 3.35-3.26 5.1-4.79.74-.64.69-1.15.28-1.93-1.47-2.83-2.86-5.7-4.32-8.53a1.49 1.49 0 0 1 .15-1.82c1.31-2 3.35-3 5.15-4.36A77.26 77.26 0 0 1 59.46 16c.76-.42 1.25-.5 1.89.25 2.11 2.43 4.32 4.76 6.45 7.16.83.94 1.5 1.44 2.86.62a38.66 38.66 0 0 1 6.27-2.95A1.39 1.39 0 0 0 78 19.43c-.19-1.6-.46-3.2-.72-4.79a50.27 50.27 0 0 1-.87-5.56c-.06-1.29 1.48-1.68 2.31-2a77.77 77.77 0 0 1 14.32-4.2c.87-.14 1.17.06 1.48.73 1.46 3.19 3 6.35 4.37 9.57a1.24 1.24 0 0 0 1.63.88 54.62 54.62 0 0 1 7.65-1.18 1.49 1.49 0 0 0 1.55-1.44c.49-3.23.95-6.48 1.31-9.73.08-.71.26-1.15.91-1.3A8.26 8.26 0 0 1 114 0h11.46c1.3 0 2.11.33 2.39 1.92.61 3.39 1 6.82 1.52 10.22.14.86.33 1.25 1.26 1.29a57.39 57.39 0 0 1 9.74 1.44c.91.2 1.15-.08 1.45-.7 1.55-3.2 3.11-6.4 4.64-9.62.34-.72.58-1 1.56-.73C153 5.14 158 6 162.72 8.13c.64.28.73.41.6 1.12-.65 3.65-1.17 7.33-1.75 11-.11.71.33 1 .85 1.19 2.75 1.26 5.5 2.5 8.22 3.81.76.36 1.1.31 1.71-.39 2.3-2.62 4.77-5.08 7.11-7.66.62-.68 1.11-.49 1.68-.13 2 1.23 3.93 2.49 5.89 3.73s4 3 6 4.42c.86.64 1.07 1.16.58 2.14-1.53 3-3 6.14-4.47 9.21-.33.68-.46 1.11.31 1.76 2.15 1.82 4.18 3.8 6.17 5.8a1.57 1.57 0 0 0 2.25.32c2.86-1.71 5.77-3.33 8.62-5.06.8-.49 1.33-.51 2 .18a146.26 146.26 0 0 1 9.62 12 1.93 1.93 0 0 1-.29 2.82c-2.35 2.26-4.7 4.54-6.83 7a1.34 1.34 0 0 0-.1 1.95c1.25 2 2.35 4.13 3.47 6.23.45.84.76 1.26 2 .93 3.21-.88 6.52-1.4 9.75-2.21a1.38 1.38 0 0 1 1.91.87 109 109 0 0 1 5.56 14.15c.33 1 .42 1.94-1 2.62-2.85 1.37-5.55 3.08-8.35 4.57-.94.5-1.33 1-1 2.14a38.26 38.26 0 0 1 1.63 7.41c0 .62.44.8 1 .84 2.86.21 5.72.52 8.59.62 3.43.12 3.43.05 3.82 3.33a107.3 107.3 0 0 1 .7 14 1.46 1.46 0 0 1-1.41 1.7c-3.22.62-6.42 1.37-9.65 2-1.06.19-1.49.55-1.45 1.66a28.82 28.82 0 0 1-.59 7.43c-.15.67.23.92.84 1.14 3.13 1.17 6.24 2.4 9.36 3.61a1.89 1.89 0 0 1 1.44 2.52c-.78 4.14-1.68 8.24-2.8 12.3s-1.72 4.45-5.89 3.66c-2.38-.45-4.81-.58-7.22-.83-.6-.06-.81.31-1 .83-1 2.47-2 4.92-3 7.38-.45 1.11.6 1.4 1.13 1.83 2.5 2.07 5 4.1 7.63 6 .76.56.81 1 .43 1.72-2.6 5-5 10.12-8.4 14.72a1 1 0 0 1-1.49.4c-3.26-1.26-6.55-2.45-9.77-3.8-1-.42-1.44-.11-2 .62-1.62 2.09-3.28 4.17-5 6.18a1.2 1.2 0 0 0-.11 1.8c1.87 2.63 3.62 5.35 5.47 8a2.17 2.17 0 0 1-.36 3.26c-3.38 3.31-6.9 6.45-10.47 9.54-.79.69-1.42.36-2-.13q-3.71-3-7.38-6.07c-.9-.75-1.59-1.13-2.76-.17a54.56 54.56 0 0 1-6.17 4.14 1.67 1.67 0 0 0-.9 2.37c1 3 1.83 6 2.75 9a1.89 1.89 0 0 1-1 2.6 126.61 126.61 0 0 1-12.69 6.1 1.41 1.41 0 0 1-2.1-.64c-1.84-2.92-3.91-5.69-5.82-8.57a1.07 1.07 0 0 0-1.47-.51 85.17 85.17 0 0 1-8.36 2.56 1.37 1.37 0 0 0-1.18 1.6c.08 3.38 0 6.77.07 10.15 0 1-.27 1.48-1.3 1.64-2.51.41-5 .79-7.5 1.38-2.19.53-4.43.15-6.56.84-.95.31-1.47-.15-1.77-1.13-1-3.4-2.18-6.77-3.17-10.18-.21-.71-.5-.84-1.11-.83h-9c-.92 0-1.21.42-1.44 1.18-.95 3.23-2 6.44-2.87 9.69-.35 1.3-1.08 1.45-2.17 1.29l-11-1.59a8.29 8.29 0 0 1-1-.16c-3-.81-3-.81-3-4v-3.11zm123.61-115.32c-.58-24-10.83-48.34-32-67.6-20.17-18.34-44.11-26.85-71.44-25.36-27.49 1.5-50.33 12.8-68.35 33.44C28 75.15 19.79 98.82 21.46 125.41c1.63 26 12.14 48.34 31.41 66 20.14 18.49 44.16 27.27 71.5 26 48.03-2.17 92.83-42.79 92.94-102.83z" fill="#fe5398" id="Слой_1-2" data-name="Слой 1"/></g></svg>