<svg xmlns="http://www.w3.org/2000/svg" width="4429.736" height="728.015" viewBox="0 0 4429.736 728.015" id="svg7"><defs id="defs4"><style id="style2"/></defs><path d="M2492.736 0c-51.335 0-205.585 116.622-321.545 106.607C2055.231 96.59 1976.86 7.578 1926 7.578c-109.17 0-142.05 90-247 90-113.01 0-143.17-90-244-90-206.22 0-199.873 93-337 93s-156.243-93-276-93-166.976 93-269 93c-116.167 0-116.037-93-245-93-74.295 0-141.886 58.702-203.345 99.948C54.848 140.952 3 158.578 3 158.578l-3 568s4411.239 2.93 4428.736.422l1-568s-72.312-3.272-132.326-41.255C4238.136 80.231 4177.572 0 4110.736 0c-128.963 0-128.833 93-245 93-102.024 0-149.243-93-269-93s-138.873 93-276 93-130.78-93-337-93c-100.83 0-130.99 90-244 90-104.95 0-137.83-90-247-90z" id="bg_hero__wave.svg" fill="#fff" fill-rule="evenodd"/></svg>