<svg xmlns="http://www.w3.org/2000/svg" width="1177" height="820.408" viewBox="0 0 1177 820.408" id="svg10"><path d="M47.469 0C16.925 71.164 0 149.558 0 231.908c0 325.02 263.48 588.5 588.5 588.5 325.019 0 588.5-263.48 588.5-588.5 0-82.35-16.925-160.744-47.469-231.908z" id="path2" opacity=".149" fill="#fff"/><path d="M304.97 1.246C253.729 64.157 223 144.443 223 231.908c0 201.86 163.64 365.5 365.5 365.5S954 433.768 954 231.908c0-87.465-30.728-167.75-81.97-230.662z" id="path4" opacity=".149" fill="#fff"/><path d="M589 41.408c105.486 0 191 85.514 191 191s-85.514 191-191 191-191-85.514-191-191 85.514-191 191-191z" id="path6" opacity=".149" fill="#fff" fill-rule="evenodd"/><path d="M589 102.408c71.797 0 130 58.203 130 130s-58.203 130-130 130-130-58.203-130-130 58.203-130 130-130z" id="path8" opacity=".149" fill="#fff" fill-rule="evenodd"/></svg>