<svg xmlns="http://www.w3.org/2000/svg" width="2004" height="429"><defs><linearGradient id="PSgrad_0" x1="0%" x2="90.631%" y1="0%" y2="42.262%"><stop offset="0%" stop-color="#EB93D0"/><stop offset="100%" stop-color="#C64A97"/></linearGradient></defs><path fill-rule="evenodd" d="M253 42c24.3 0 44 19.699 44 44 0 24.3-19.7 44-44 44-24.301 0-44-19.7-44-44 0-24.301 19.699-44 44-44z"/><path fill="url(#PSgrad_0)" d="M253 42c24.3 0 44 19.699 44 44 0 24.3-19.7 44-44 44-24.301 0-44-19.7-44-44 0-24.301 19.699-44 44-44z"/><path fill-rule="evenodd" d="M1656 320c18.225 0 33 14.775 33 33s-14.775 33-33 33-33-14.775-33-33 14.775-33 33-33z"/><path fill="url(#PSgrad_0)" d="M1656 320c18.225 0 33 14.775 33 33s-14.775 33-33 33-33-14.775-33-33 14.775-33 33-33z"/><path fill-rule="evenodd" d="M1940.5 67c35.07 0 63.5 28.43 63.5 63.5s-28.43 63.5-63.5 63.5-63.5-28.43-63.5-63.5 28.43-63.5 63.5-63.5z"/><path fill="url(#PSgrad_0)" d="M1940.5 67c35.07 0 63.5 28.43 63.5 63.5s-28.43 63.5-63.5 63.5-63.5-28.43-63.5-63.5 28.43-63.5 63.5-63.5z"/><path fill-rule="evenodd" d="M38 259c20.987 0 38 17.013 38 38s-17.013 38-38 38-38-17.013-38-38 17.013-38 38-38z"/><path fill="url(#PSgrad_0)" d="M38 259c20.987 0 38 17.013 38 38s-17.013 38-38 38-38-17.013-38-38 17.013-38 38-38z"/><path fill-rule="evenodd" d="M512 391c10.493 0 19 8.507 19 19s-8.507 19-19 19-19-8.507-19-19 8.507-19 19-19z"/><path fill="url(#PSgrad_0)" d="M512 391c10.493 0 19 8.507 19 19s-8.507 19-19 19-19-8.507-19-19 8.507-19 19-19z"/><path fill-rule="evenodd" d="M1289 0c10.493 0 19 8.507 19 19s-8.507 19-19 19-19-8.507-19-19 8.507-19 19-19z"/><path fill="url(#PSgrad_0)" d="M1289 0c10.493 0 19 8.507 19 19s-8.507 19-19 19-19-8.507-19-19 8.507-19 19-19z"/></svg>