<svg xmlns="http://www.w3.org/2000/svg" id="svg2" width="116.126" height="27.059" viewBox="0 0 116.126 27.059"><defs id="defs6"><linearGradient x1="31.8" y1="183.29" x2="15.017" y2="166.508" gradientUnits="userSpaceOnUse" gradientTransform="matrix(.8 0 0 -.8 0 161.6)" id="linearGradient50"><stop offset="0" id="stop52" stop-color="#00a0ff"/><stop offset=".007" id="stop54" stop-color="#00a1ff"/><stop offset=".26" id="stop56" stop-color="#00beff"/><stop offset=".512" id="stop58" stop-color="#00d2ff"/><stop offset=".76" id="stop60" stop-color="#00dfff"/><stop offset="1" id="stop62" stop-color="#00e3ff"/></linearGradient><linearGradient x1="43.834" y1="171.999" x2="19.638" y2="171.999" gradientUnits="userSpaceOnUse" gradientTransform="matrix(.8 0 0 -.8 0 161.6)" id="linearGradient68"><stop offset="0" id="stop70" stop-color="#ffe000"/><stop offset=".409" id="stop72" stop-color="#ffbd00"/><stop offset=".775" id="stop74" stop-color="orange"/><stop offset="1" id="stop76" stop-color="#ff9c00"/></linearGradient><linearGradient x1="34.827" y1="169.704" x2="12.069" y2="146.946" gradientUnits="userSpaceOnUse" gradientTransform="matrix(.8 0 0 -.8 0 161.6)" id="linearGradient82"><stop offset="0" id="stop84" stop-color="#ff3a44"/><stop offset="1" id="stop86" stop-color="#c31162"/></linearGradient><linearGradient x1="17.297" y1="191.824" x2="27.46" y2="181.661" gradientUnits="userSpaceOnUse" gradientTransform="matrix(.8 0 0 -.8 0 161.6)" id="linearGradient92"><stop offset="0" id="stop94" stop-color="#32a071"/><stop offset=".069" id="stop96" stop-color="#2da771"/><stop offset=".476" id="stop98" stop-color="#15cf74"/><stop offset=".801" id="stop100" stop-color="#06e775"/><stop offset="1" id="stop102" stop-color="#00f076"/></linearGradient><clipPath id="clipPath174"><path d="M0 0h124v48H0z" id="path176"/></clipPath></defs><g id="g10" transform="matrix(1.25 0 0 -1.25 -19.648 42.834)"><g transform="matrix(1.0024 0 0 -.99073 -.297 47.555)" id="g18"><path id="path20" d="M45.934 16.195c0 .668-.2 1.203-.594 1.602-.453.473-1.043.711-1.766.711a2.426 2.426 0 0 1-1.765-.719c-.485-.484-.727-1.078-.727-1.789 0-.711.242-1.305.727-1.785a2.414 2.414 0 0 1 1.765-.723c.344 0 .672.071.985.203.312.133.566.313.75.535l-.418.422c-.321-.379-.758-.566-1.317-.566-.504 0-.941.176-1.312.531-.367.356-.551.817-.551 1.383 0 .566.184 1.031.551 1.387a1.85 1.85 0 0 0 1.312.531c.535 0 .985-.18 1.34-.535.234-.235.367-.559.402-.973h-1.742v-.578h2.324c.028.125.036.246.036.363z" fill="#fff" stroke="#fff" stroke-width=".16" stroke-miterlimit="10"/></g><g transform="matrix(1.0024 0 0 -.99073 -.297 47.555)" id="g22"><path id="path24" d="M49.621 14.191h-2.183v1.52h1.968v.578h-1.968v1.52h2.183v.589H46.82v-4.796h2.801z" fill="#fff" stroke="#fff" stroke-width=".16" stroke-miterlimit="10"/></g><g transform="matrix(1.0024 0 0 -.99073 -.297 47.555)" id="g26"><path id="path28" d="M52.223 18.398h-.618v-4.207h-1.339v-.589h3.297v.589h-1.34z" fill="#fff" stroke="#fff" stroke-width=".16" stroke-miterlimit="10"/></g><g transform="matrix(1.0024 0 0 -.99073 -.297 47.555)" id="g30"><path id="path32" d="M55.949 18.398v-4.796h.617v4.796z" fill="#fff" stroke="#fff" stroke-width=".16" stroke-miterlimit="10"/></g><g transform="matrix(1.0024 0 0 -.99073 -.297 47.555)" id="g34"><path id="path36" d="M59.301 18.398h-.613v-4.207h-1.344v-.589h3.301v.589h-1.344z" fill="#fff" stroke="#fff" stroke-width=".16" stroke-miterlimit="10"/></g><g transform="matrix(1.0024 0 0 -.99073 -.297 47.555)" id="g38"><path id="path40" d="M66.887 17.781c-.473.485-1.059.727-1.758.727-.703 0-1.289-.242-1.762-.727-.472-.484-.707-1.078-.707-1.781 0-.703.235-1.297.707-1.781.473-.485 1.059-.727 1.762-.727.695 0 1.281.242 1.754.731.476.488.711 1.078.711 1.777 0 .703-.235 1.297-.707 1.781zm-3.063-.402c.356.359.789.539 1.305.539.512 0 .949-.18 1.301-.539.355-.359.535-.82.535-1.379s-.18-1.02-.535-1.379a1.756 1.756 0 0 0-1.301-.539c-.516 0-.949.18-1.305.539-.355.359-.535.82-.535 1.379s.18 1.02.535 1.379z" fill="#fff" stroke="#fff" stroke-width=".16" stroke-miterlimit="10"/></g><g transform="matrix(1.0024 0 0 -.99073 -.297 47.555)" id="g42"><path id="path44" d="M68.461 18.398v-4.796h.75l2.332 3.73h.027l-.027-.922v-2.808h.617v4.796h-.644l-2.442-3.914h-.027l.027.926v2.988z" fill="#fff" stroke="#fff" stroke-width=".16" stroke-miterlimit="10"/></g><path id="path46" d="M62.36 22.389c-1.883 0-3.421-1.417-3.421-3.372 0-1.939 1.538-3.37 3.422-3.37 1.887 0 3.426 1.431 3.426 3.37 0 1.955-1.539 3.372-3.426 3.372zm0-5.415c-1.033 0-1.922.843-1.922 2.043 0 1.216.89 2.044 1.923 2.044s1.926-.828 1.926-2.044c0-1.2-.893-2.043-1.926-2.043zm-7.466 5.415c-1.887 0-3.422-1.417-3.422-3.372 0-1.939 1.535-3.37 3.422-3.37 1.887 0 3.422 1.431 3.422 3.37 0 1.955-1.535 3.372-3.422 3.372zm0-5.415c-1.034 0-1.927.843-1.927 2.043 0 1.216.893 2.044 1.927 2.044s1.923-.828 1.923-2.044c0-1.2-.89-2.043-1.923-2.043zm-8.885 4.381v-1.432h3.461c-.101-.8-.372-1.39-.787-1.8-.505-.495-1.292-1.045-2.674-1.045-2.13 0-3.798 1.7-3.798 3.805a3.778 3.778 0 0 0 3.798 3.804c1.152 0 1.99-.445 2.608-1.021l1.022 1.01c-.866.815-2.016 1.443-3.63 1.443-2.921 0-5.376-2.35-5.376-5.236 0-2.887 2.455-5.236 5.376-5.236 1.579 0 2.764.51 3.697 1.47.955.944 1.253 2.272 1.253 3.344 0 .332-.028.639-.079.894zm36.333-1.11c-.282.754-1.151 2.144-2.921 2.144-1.755 0-3.215-1.367-3.215-3.372 0-1.888 1.445-3.37 3.383-3.37a3.39 3.39 0 0 1 2.843 1.494l-1.163.765c-.388-.56-.916-.932-1.68-.932-.759 0-1.303.344-1.652 1.022L82.5 19.86zm-4.652-1.123c-.039 1.3 1.022 1.966 1.782 1.966.595 0 1.1-.295 1.269-.716zm-3.707-3.27h1.5v9.907h-1.5zm-2.456 5.786h-.05c-.337.394-.98.75-1.794.75-1.708 0-3.27-1.482-3.27-3.382 0-1.89 1.562-3.36 3.27-3.36.814 0 1.457.36 1.794.766h.05v-.483c0-1.289-.697-1.982-1.82-1.982-.917 0-1.485.654-1.72 1.204l-1.304-.538c.376-.893 1.371-1.993 3.023-1.993 1.759 0 3.242 1.022 3.242 3.51v6.053h-1.421zm-1.715-4.664c-1.034 0-1.899.855-1.899 2.032 0 1.188.865 2.055 1.899 2.055 1.018 0 1.821-.867 1.821-2.055 0-1.177-.803-2.032-1.821-2.032zm19.55 8.785h-3.586v-9.907h1.495v3.754h2.091c1.661 0 3.29 1.187 3.29 3.077 0 1.888-1.633 3.076-3.29 3.076zm.04-4.775h-2.13v3.397h2.13a1.729 1.729 0 0 0 1.754-1.698c0-.767-.638-1.7-1.755-1.7zm9.244 1.423c-1.08 0-2.204-.471-2.666-1.516l1.327-.55c.286.55.811.728 1.367.728.775 0 1.562-.46 1.574-1.274v-.104c-.27.154-.85.383-1.562.383-1.43 0-2.886-.778-2.886-2.229 0-1.328 1.17-2.183 2.487-2.183 1.006 0 1.561.45 1.91.971h.051v-.765h1.445v3.8c0 1.757-1.327 2.74-3.047 2.74zm-.18-5.429c-.49 0-1.17.24-1.17.84 0 .766.85 1.06 1.585 1.06.659 0 .967-.143 1.367-.333a1.808 1.808 0 0 0-1.782-1.567zm8.49 5.212l-1.72-4.294h-.05l-1.778 4.294h-1.613l2.67-6.001-1.523-3.34h1.562l4.115 9.341zm-13.482-6.338h1.5v9.907h-1.5z" fill="#fff" stroke-width=".997"/><g id="g48" transform="matrix(1.0024 0 0 .99073 -.297 0)"><path id="path64" d="M16.348 33.969c-.235-.246-.371-.629-.371-1.125V15.152c0-.496.136-.879.371-1.125l.058-.054 9.914 9.91v.234l-9.914 9.91z" fill="url(#linearGradient50)"/></g><g id="g66" transform="matrix(1.0024 0 0 .99073 -.297 0)"><path id="path78" d="M29.621 20.578l-3.301 3.305v.234l3.305 3.305.074-.043 3.914-2.227c1.117-.632 1.117-1.672 0-2.308l-3.914-2.223z" fill="url(#linearGradient68)"/></g><g id="g80" transform="matrix(1.0024 0 0 .99073 -.297 0)"><path id="path88" d="M29.699 20.621L26.32 24l-9.972-9.973c.371-.39.976-.437 1.664-.047l11.687 6.641" fill="url(#linearGradient82)"/></g><g id="g90" transform="matrix(1.0024 0 0 .99073 -.297 0)"><path id="path104" d="M29.699 27.379L18.012 34.02c-.688.386-1.293.339-1.664-.051L26.32 24z" fill="url(#linearGradient92)"/></g></g></svg>