<svg
 xmlns="http://www.w3.org/2000/svg"
 xmlns:xlink="http://www.w3.org/1999/xlink"
 width="16px" height="26px">
<path fill-rule="evenodd" fill="#0275d9"
 d="M15.534,2.638 C15.534,2.412 15.433,2.211 15.282,2.061 L14.027,0.805 C13.876,0.654 13.650,0.554 13.449,0.554 C13.248,0.554 13.022,0.654 12.871,0.805 L1.167,12.509 C1.016,12.659 0.916,12.885 0.916,13.086 C0.916,13.287 1.016,13.513 1.167,13.664 L12.871,25.368 C13.022,25.519 13.248,25.619 13.449,25.619 C13.650,25.619 13.876,25.519 14.027,25.368 L15.282,24.112 C15.433,23.962 15.534,23.736 15.534,23.535 C15.534,23.334 15.433,23.108 15.282,22.957 L5.412,13.086 L15.282,3.216 C15.433,3.065 15.534,2.839 15.534,2.638 Z"/>
</svg>
