<svg
 xmlns="http://www.w3.org/2000/svg"
 xmlns:xlink="http://www.w3.org/1999/xlink"
 width="15px" height="26px">
<path fill-rule="evenodd" fill="#0275d9"
 d="M14.730,13.086 C14.730,12.885 14.629,12.659 14.479,12.509 L2.775,0.805 C2.624,0.654 2.398,0.554 2.197,0.554 C1.996,0.554 1.770,0.654 1.619,0.805 L0.363,2.061 C0.213,2.211 0.112,2.437 0.112,2.638 C0.112,2.839 0.213,3.065 0.363,3.216 L10.234,13.086 L0.363,22.957 C0.213,23.108 0.112,23.334 0.112,23.535 C0.112,23.761 0.213,23.962 0.363,24.112 L1.619,25.368 C1.770,25.519 1.996,25.619 2.197,25.619 C2.398,25.619 2.624,25.519 2.775,25.368 L14.479,13.664 C14.629,13.513 14.730,13.287 14.730,13.086 Z"/>
</svg>
