<svg xmlns="http://www.w3.org/2000/svg" width="155.089" height="12.061" id="svg4"><path d="M155.089 11.088v.812h-7.078V.525h7.039v.812h-6.078v4.297h5.32v.813h-5.32v4.641zm-14.158.968c-.891 0-1.682-.213-2.375-.64-.693-.427-1.229-1.032-1.609-1.813-.381-.781-.573-1.677-.578-2.687V5.478c0-1.578.398-2.824 1.195-3.738.797-.914 1.867-1.371 3.211-1.371 1.172 0 2.114.298 2.828.894.713.597 1.138 1.418 1.273 2.465h-.961c-.14-.836-.48-1.469-1.019-1.9-.539-.431-1.244-.647-2.113-.647-1.063 0-1.904.378-2.524 1.134-.62.756-.929 1.822-.929 3.198v1.345c0 .865.147 1.63.441 2.294.294.665.716 1.18 1.266 1.545.549.364 1.18.547 1.894.547.828 0 1.539-.13 2.133-.391.385-.172.672-.372.859-.601V7.314h-3.054v-.812h4.015v4.046c-.333.474-.855.844-1.566 1.11-.711.265-1.507.398-2.387.398zm-15.048-9.89V11.9h-.969V.525h.969l6.547 9.742V.525h.953V11.9h-.961zm-5.221 6.539h-5.164l-1.172 3.195h-1.007L117.623.525h.914l4.305 11.375h-1zm-2.586-7.008l-2.281 6.195h4.563zm-7.954 4.75h-6.5V11.9h-.961V.525h.961v5.109h6.5V.525h.968V11.9h-.968zm-16.803 3.624c.597.782 1.403 1.173 2.418 1.173 1.005 0 1.763-.241 2.274-.723.51-.482.825-1.204.945-2.168h.969c-.13 1.198-.559 2.115-1.285 2.75-.727.636-1.694.953-2.903.953-.843 0-1.589-.211-2.238-.633-.648-.421-1.15-1.019-1.504-1.793-.354-.773-.534-1.657-.539-2.652V5.502c0-1.011.177-1.907.531-2.688.354-.781.864-1.384 1.528-1.809.664-.424 1.428-.636 2.293-.636 1.218 0 2.181.328 2.886.984.706.656 1.116 1.565 1.231 2.727h-.969c-.24-1.933-1.289-2.899-3.148-2.899-1.032 0-1.853.386-2.465 1.157-.612.772-.918 1.838-.918 3.198v1.392c0 1.313.298 2.361.894 3.143zM88.455 11.9l-3.313-4.969-3.328 4.969h-1.141l3.891-5.766L80.79.525h1.149l3.203 4.812L88.345.525h1.149l-3.766 5.609 3.883 5.766zM72.18.525h7.039v.812H73.14v4.297h5.321v.813H73.14v4.641h6.118v.812H72.18zm-6.683 10.823c-.781.475-1.671.713-2.67.713-.999 0-1.886-.229-2.659-.689-.774-.459-1.377-1.116-1.809-1.97-.432-.854-.659-1.834-.681-2.94v-.661c0-1.149.211-2.163.633-3.041.421-.878 1.026-1.556 1.813-2.035.786-.478 1.682-.717 2.686-.717.994 0 1.88.237 2.659.709.779.473 1.384 1.146 1.817 2.019.432.872.651 1.873.657 3.001v.539c0 1.145-.213 2.157-.637 3.038-.424.881-1.027 1.559-1.809 2.034zm-.431-5.563c0-1.165-.194-2.05-.584-2.655-.389-.604-.946-.906-1.672-.906-1.418 0-2.167 1.063-2.247 3.19l-.008.862c0 1.15.19 2.034.572 2.651.381.618.948.927 1.7.927.714 0 1.264-.304 1.651-.911s.583-1.479.588-2.618zM52.284 11.9h-2.828V2.353h-3.457V.17h9.805v2.183h-3.52zM40.241 7.92h-1.804v3.98h-2.828V.17h4.681c.896 0 1.69.165 2.38.495.69.33 1.225.8 1.604 1.41.378.61.568 1.301.568 2.075 0 1.144-.41 2.058-1.229 2.743-.819.685-1.943 1.027-3.372 1.027zm1.289-5.068c-.295-.327-.698-.494-1.208-.499h-1.885v3.384h1.853c.547 0 .965-.137 1.252-.411.288-.274.431-.661.431-1.16 0-.548-.147-.986-.443-1.314zM29.739 11.9H26.87V7.686L23.1.17h3.037l2.167 5.091L30.464.17h3.053l-3.778 7.516zM16.754 7.751h-1.53V11.9h-2.828V.17h4.616c1.391 0 2.479.308 3.263.925.784.617 1.177 1.489 1.177 2.616 0 .815-.166 1.491-.496 2.028-.33.536-.847.971-1.551 1.304l2.449 4.736v.121h-3.029zm1.467-4.974c-.274-.288-.677-.432-1.209-.432h-1.788v3.231h1.788c.537 0 .942-.142 1.213-.424.271-.283.407-.678.407-1.184 0-.506-.137-.903-.411-1.191zM6.485 2.683c-.338-.311-.854-.467-1.546-.467-.704 0-1.22.263-1.547.789-.328.527-.5 1.367-.516 2.522v.83c0 1.252.157 2.146.471 2.683.315.537.856.806 1.624.806.65 0 1.147-.154 1.49-.46.344-.306.527-.792.548-1.458h2.812c-.038.817-.258 1.538-.661 2.163-.403.626-.968 1.111-1.696 1.455-.727.343-1.559.515-2.493.515-1.542 0-2.756-.502-3.642-1.506C.443 9.55 0 8.132 0 6.301v-.58c0-1.15.2-2.156.6-3.018.4-.862.976-1.528 1.728-1.998S3.95 0 4.939 0c1.423 0 2.567.375 3.432 1.124.864.75 1.356 1.782 1.474 3.098h-2.82c-.021-.714-.201-1.227-.54-1.539z" id="path2" fill="#26272d" fill-rule="evenodd"/></svg>