<svg xmlns="http://www.w3.org/2000/svg" style="display:none"><symbol id="i_play" viewBox="0 0 10 10.031"><path fill="currentColor" d="M0 9.447V.564A.629.629 0 0 1 .962.085c.383.193 8.044 4.1 8.7 4.433a.522.522 0 0 1 0 .963c-.47.244-8.16 4.17-8.717 4.442A.626.626 0 0 1 0 9.447z"/></symbol><symbol id="socials__fb" viewBox="0 0 9 18"><path fill="currentColor" d="M5.985 17.99h-4V9.5h-2V6.22h2V4.26C1.985 1.59 3.113 0 6.318 0h2.668v3.27H7.319c-1.248 0-1.331.46-1.331 1.31v1.64H9.01L8.656 9.5H5.988v8.49z"/></symbol><symbol id="socials__in" viewBox="0 0 448 512"><path fill="currentColor" d="M224.1 141c-63.6 0-114.9 51.3-114.9 114.9s51.3 114.9 114.9 114.9S339 319.5 339 255.9 287.7 141 224.1 141zm0 189.6c-41.1 0-74.7-33.5-74.7-74.7s33.5-74.7 74.7-74.7 74.7 33.5 74.7 74.7-33.6 74.7-74.7 74.7zm146.4-194.3c0 14.9-12 26.8-26.8 26.8-14.9 0-26.8-12-26.8-26.8s12-26.8 26.8-26.8 26.8 12 26.8 26.8zm76.1 27.2c-1.7-35.9-9.9-67.7-36.2-93.9-26.2-26.2-58-34.4-93.9-36.2-37-2.1-147.9-2.1-184.9 0-35.8 1.7-67.6 9.9-93.9 36.1s-34.4 58-36.2 93.9c-2.1 37-2.1 147.9 0 184.9 1.7 35.9 9.9 67.7 36.2 93.9s58 34.4 93.9 36.2c37 2.1 147.9 2.1 184.9 0 35.9-1.7 67.7-9.9 93.9-36.2 26.2-26.2 34.4-58 36.2-93.9 2.1-37 2.1-147.8 0-184.8zM398.8 388c-7.8 19.6-22.9 34.7-42.6 42.6-29.5 11.7-99.5 9-132.1 9s-102.7 2.6-132.1-9c-19.6-7.8-34.7-22.9-42.6-42.6-11.7-29.5-9-99.5-9-132.1s-2.6-102.7 9-132.1c7.8-19.6 22.9-34.7 42.6-42.6 29.5-11.7 99.5-9 132.1-9s102.7-2.6 132.1 9c19.6 7.8 34.7 22.9 42.6 42.6 11.7 29.5 9 99.5 9 132.1s2.7 102.7-9 132.1z"/></symbol><symbol id="socials__ln" viewBox="0 0 448 512"><path fill="currentColor" d="M100.3 448H7.4V148.9h92.9V448zM53.8 108.1C24.1 108.1 0 83.5 0 53.8S24.1 0 53.8 0s53.8 24.1 53.8 53.8-24.1 54.3-53.8 54.3zM448 448h-92.7V302.4c0-34.7-.7-79.2-48.3-79.2-48.3 0-55.7 37.7-55.7 76.7V448h-92.8V148.9h89.1v40.8h1.3c12.4-23.5 42.7-48.3 87.9-48.3 94 0 111.3 61.9 111.3 142.3V448h-.1z"/></symbol><symbol id="socials__rd" viewBox="0 0 512 512"><path fill="currentColor" d="M440.3 203.5c-15 0-28.2 6.2-37.9 15.9-35.7-24.7-83.8-40.6-137.1-42.3L293 52.3l88.2 19.8c0 21.6 17.6 39.2 39.2 39.2 22 0 39.7-18.1 39.7-39.7s-17.6-39.7-39.7-39.7c-15.4 0-28.7 9.3-35.3 22l-97.4-21.6c-4.9-1.3-9.7 2.2-11 7.1L246.3 177c-52.9 2.2-100.5 18.1-136.3 42.8-9.7-10.1-23.4-16.3-38.4-16.3-55.6 0-73.8 74.6-22.9 100.1-1.8 7.9-2.6 16.3-2.6 24.7 0 83.8 94.4 151.7 210.3 151.7 116.4 0 210.8-67.9 210.8-151.7 0-8.4-.9-17.2-3.1-25.1 49.9-25.6 31.5-99.7-23.8-99.7zM129.4 308.9c0-22 17.6-39.7 39.7-39.7 21.6 0 39.2 17.6 39.2 39.7 0 21.6-17.6 39.2-39.2 39.2-22 .1-39.7-17.6-39.7-39.2zm214.3 93.5c-36.4 36.4-139.1 36.4-175.5 0-4-3.5-4-9.7 0-13.7 3.5-3.5 9.7-3.5 13.2 0 27.8 28.5 120 29 149 0 3.5-3.5 9.7-3.5 13.2 0 4.1 4 4.1 10.2.1 13.7zm-.8-54.2c-21.6 0-39.2-17.6-39.2-39.2 0-22 17.6-39.7 39.2-39.7 22 0 39.7 17.6 39.7 39.7-.1 21.5-17.7 39.2-39.7 39.2z"/></symbol><symbol id="socials__tg" viewBox="0 0 448 512"><path fill="currentColor" d="M446.7 98.6l-67.6 318.8c-5.1 22.5-18.4 28.1-37.3 17.5l-103-75.9-49.7 47.8c-5.5 5.5-10.1 10.1-20.7 10.1l7.4-104.9 190.9-172.5c8.3-7.4-1.8-11.5-12.9-4.1L117.8 284 16.2 252.2c-22.1-6.9-22.5-22.1 4.6-32.7L418.2 66.4c18.4-6.9 34.5 4.1 28.5 32.2z"/></symbol><symbol id="socials__tw" viewBox="0 0 17 14"><path fill="currentColor" class="cls-1" d="M17 1.66a6.759 6.759 0 0 1-2 .55A3.516 3.516 0 0 0 16.533.26a7.084 7.084 0 0 1-2.215.86A3.452 3.452 0 0 0 11.773 0a3.509 3.509 0 0 0-3.488 3.53 3.649 3.649 0 0 0 .091.81A9.856 9.856 0 0 1 1.189.65a3.572 3.572 0 0 0 1.079 4.72 3.4 3.4 0 0 1-1.579-.45v.05a3.516 3.516 0 0 0 2.8 3.46 3.481 3.481 0 0 1-.919.13 2.861 2.861 0 0 1-.656-.07 3.5 3.5 0 0 0 3.258 2.46A6.927 6.927 0 0 1 .84 12.46a7.617 7.617 0 0 1-.832-.05A9.8 9.8 0 0 0 5.354 14a9.93 9.93 0 0 0 9.922-10.06c0-.15 0-.3-.01-.45a7.146 7.146 0 0 0 1.74-1.83z"/></symbol><symbol id="socials__yt" viewBox="0 0 576 512"><path fill="currentColor" d="M549.655 124.083c-6.281-23.65-24.787-42.276-48.284-48.597C458.781 64 288 64 288 64S117.22 64 74.629 75.486c-23.497 6.322-42.003 24.947-48.284 48.597-11.412 42.867-11.412 132.305-11.412 132.305s0 89.438 11.412 132.305c6.281 23.65 24.787 41.5 48.284 47.821C117.22 448 288 448 288 448s170.78 0 213.371-11.486c23.497-6.321 42.003-24.171 48.284-47.821 11.412-42.867 11.412-132.305 11.412-132.305s0-89.438-11.412-132.305zm-317.51 213.508V175.185l142.739 81.205-142.739 81.201z"/></symbol></svg>