<svg xmlns="http://www.w3.org/2000/svg" xmlns:xlink="http://www.w3.org/1999/xlink" width="227px" height="58px">
  <path fill-rule="evenodd" fill="rgb(255, 255, 255)" d="M225.808,52.701 L221.336,52.701 C221.461,53.669 222.241,54.314 223.333,54.314 C223.978,54.314 224.519,54.095 224.924,53.648 L225.476,54.293 C224.976,54.875 224.217,55.187 223.302,55.187 C221.523,55.187 220.337,54.012 220.337,52.369 C220.337,50.736 221.513,49.560 223.104,49.560 C224.695,49.560 225.829,50.704 225.829,52.400 C225.829,52.483 225.819,52.608 225.808,52.701 ZM223.104,50.403 C222.147,50.403 221.440,51.048 221.336,51.984 L224.872,51.984 C224.768,51.058 224.071,50.403 223.104,50.403 ZM218.810,55.125 L216.959,52.795 L215.815,52.795 L215.815,55.125 L214.816,55.125 L214.816,49.612 L215.815,49.612 L215.815,51.942 L216.980,51.942 L218.769,49.612 L219.840,49.612 L217.749,52.265 L219.986,55.125 L218.810,55.125 ZM211.271,54.314 C211.874,54.314 212.415,54.064 212.769,53.523 L213.528,54.002 C213.091,54.771 212.270,55.187 211.282,55.187 C209.586,55.187 208.369,54.012 208.369,52.369 C208.369,50.725 209.586,49.560 211.282,49.560 C212.270,49.560 213.091,49.966 213.528,50.736 L212.769,51.224 C212.415,50.684 211.874,50.434 211.271,50.434 C210.190,50.434 209.378,51.193 209.378,52.369 C209.378,53.565 210.190,54.314 211.271,54.314 ZM204.648,55.187 C203.868,55.187 203.181,54.886 202.724,54.293 L202.724,57.143 L201.725,57.143 L201.725,49.612 L202.682,49.612 L202.682,50.486 C203.129,49.872 203.837,49.560 204.648,49.560 C206.260,49.560 207.435,50.684 207.435,52.369 C207.435,54.064 206.260,55.187 204.648,55.187 ZM204.565,50.434 C203.514,50.434 202.713,51.204 202.713,52.369 C202.713,53.544 203.514,54.314 204.565,54.314 C205.626,54.314 206.427,53.544 206.427,52.369 C206.427,51.204 205.626,50.434 204.565,50.434 ZM197.421,55.187 C195.768,55.187 194.551,54.012 194.551,52.369 C194.551,50.725 195.768,49.560 197.421,49.560 C199.075,49.560 200.282,50.725 200.282,52.369 C200.282,54.012 199.075,55.187 197.421,55.187 ZM197.421,50.434 C196.360,50.434 195.560,51.193 195.560,52.369 C195.560,53.544 196.360,54.314 197.421,54.314 C198.482,54.314 199.273,53.544 199.273,52.369 C199.273,51.193 198.482,50.434 197.421,50.434 ZM192.213,51.100 L190.154,54.501 L189.717,54.501 L187.678,51.089 L187.678,55.125 L186.763,55.125 L186.763,49.612 L187.793,49.612 L189.956,53.336 L192.182,49.612 L193.118,49.612 L193.118,55.125 L192.213,55.125 L192.213,51.100 ZM182.459,55.187 C180.805,55.187 179.588,54.012 179.588,52.369 C179.588,50.725 180.805,49.560 182.459,49.560 C184.113,49.560 185.319,50.725 185.319,52.369 C185.319,54.012 184.113,55.187 182.459,55.187 ZM182.459,50.434 C181.398,50.434 180.597,51.193 180.597,52.369 C180.597,53.544 181.398,54.314 182.459,54.314 C183.520,54.314 184.310,53.544 184.310,52.369 C184.310,51.193 183.520,50.434 182.459,50.434 ZM177.156,52.816 L174.015,52.816 L174.015,55.125 L173.017,55.125 L173.017,49.612 L174.015,49.612 L174.015,51.953 L177.156,51.953 L177.156,49.612 L178.155,49.612 L178.155,55.125 L177.156,55.125 L177.156,52.816 ZM168.786,55.187 C168.006,55.187 167.319,54.886 166.862,54.293 L166.862,57.143 L165.863,57.143 L165.863,49.612 L166.820,49.612 L166.820,50.486 C167.267,49.872 167.975,49.560 168.786,49.560 C170.398,49.560 171.573,50.684 171.573,52.369 C171.573,54.064 170.398,55.187 168.786,55.187 ZM168.703,50.434 C167.652,50.434 166.851,51.204 166.851,52.369 C166.851,53.544 167.652,54.314 168.703,54.314 C169.763,54.314 170.564,53.544 170.564,52.369 C170.564,51.204 169.763,50.434 168.703,50.434 ZM159.822,52.701 C159.947,53.669 160.727,54.314 161.819,54.314 C162.464,54.314 163.005,54.095 163.410,53.648 L163.962,54.293 C163.462,54.875 162.703,55.187 161.788,55.187 C160.009,55.187 158.824,54.012 158.824,52.369 C158.824,50.736 159.999,49.560 161.590,49.560 C163.182,49.560 164.315,50.704 164.315,52.400 C164.315,52.483 164.305,52.608 164.295,52.701 L159.822,52.701 ZM161.590,50.403 C160.633,50.403 159.926,51.048 159.822,51.984 L163.358,51.984 C163.254,51.058 162.558,50.403 161.590,50.403 ZM156.205,52.244 C155.456,52.535 154.728,52.691 154.073,52.691 C152.294,52.691 151.275,51.797 151.275,50.205 L151.275,47.844 L152.294,47.844 L152.294,50.091 C152.294,51.172 152.991,51.776 154.187,51.776 C154.842,51.776 155.539,51.620 156.205,51.318 L156.205,47.844 L157.235,47.844 L157.235,55.125 L156.205,55.125 L156.205,52.244 ZM145.151,55.125 L142.499,55.125 L142.499,49.612 L145.058,49.612 C146.358,49.612 147.138,50.122 147.138,51.027 C147.138,51.620 146.805,52.046 146.254,52.265 C146.982,52.452 147.325,52.909 147.325,53.606 C147.325,54.563 146.618,55.125 145.151,55.125 ZM144.975,50.382 L143.477,50.382 L143.477,51.984 L144.975,51.984 C145.734,51.984 146.139,51.703 146.139,51.172 C146.139,50.642 145.734,50.382 144.975,50.382 ZM145.141,52.701 L143.477,52.701 L143.477,54.355 L145.079,54.355 C145.900,54.355 146.327,54.106 146.327,53.544 C146.327,52.972 145.963,52.701 145.141,52.701 ZM136.771,51.110 L133.401,55.125 L132.486,55.125 L132.486,49.612 L133.484,49.612 L133.484,53.627 L136.865,49.612 L137.770,49.612 L137.770,55.125 L136.771,55.125 L136.771,51.110 ZM128.410,55.125 L127.412,55.125 L127.412,49.612 L131.468,49.612 L131.468,50.486 L128.410,50.486 L128.410,55.125 ZM121.755,57.205 C121.225,57.205 120.684,57.028 120.341,56.695 L120.767,55.947 C121.038,56.207 121.381,56.352 121.755,56.352 C122.234,56.352 122.536,56.134 122.806,55.499 L122.983,55.114 L120.549,49.612 L121.589,49.612 L123.513,54.022 L125.417,49.612 L126.394,49.612 L123.721,55.676 C123.232,56.841 122.598,57.205 121.755,57.205 ZM118.544,50.486 L116.172,50.486 L116.110,51.713 C116.016,53.658 115.756,55.208 114.508,55.208 C114.321,55.208 114.123,55.177 113.894,55.114 L113.957,54.272 C114.050,54.293 114.134,54.303 114.206,54.303 C115.101,54.303 115.142,52.951 115.215,51.651 L115.309,49.612 L119.542,49.612 L119.542,55.125 L118.544,55.125 L118.544,50.486 ZM111.431,54.314 C112.034,54.314 112.575,54.064 112.929,53.523 L113.688,54.002 C113.251,54.771 112.429,55.187 111.441,55.187 C109.746,55.187 108.529,54.012 108.529,52.369 C108.529,50.725 109.746,49.560 111.441,49.560 C112.429,49.560 113.251,49.966 113.688,50.736 L112.929,51.224 C112.575,50.684 112.034,50.434 111.431,50.434 C110.349,50.434 109.538,51.193 109.538,52.369 C109.538,53.565 110.349,54.314 111.431,54.314 ZM103.538,57.205 C103.008,57.205 102.467,57.028 102.124,56.695 L102.550,55.947 C102.821,56.207 103.164,56.352 103.538,56.352 C104.017,56.352 104.318,56.134 104.589,55.499 L104.766,55.114 L102.332,49.612 L103.372,49.612 L105.296,54.022 L107.199,49.612 L108.177,49.612 L105.504,55.676 C105.015,56.841 104.381,57.205 103.538,57.205 ZM94.419,52.701 C94.544,53.669 95.324,54.314 96.416,54.314 C97.061,54.314 97.602,54.095 98.008,53.648 L98.559,54.293 C98.060,54.875 97.300,55.187 96.385,55.187 C94.607,55.187 93.421,54.012 93.421,52.369 C93.421,50.736 94.596,49.560 96.188,49.560 C97.779,49.560 98.913,50.704 98.913,52.400 C98.913,52.483 98.902,52.608 98.892,52.701 L94.419,52.701 ZM96.188,50.403 C95.231,50.403 94.523,51.048 94.419,51.984 L97.956,51.984 C97.852,51.058 97.155,50.403 96.188,50.403 ZM90.990,49.612 L91.988,49.612 L91.988,55.125 L90.990,55.125 L90.990,49.612 ZM87.859,55.135 L85.539,55.125 L85.539,49.612 L86.538,49.612 L86.538,51.474 L88.025,51.484 C89.419,51.495 90.168,52.150 90.168,53.284 C90.168,54.480 89.336,55.146 87.859,55.135 ZM87.786,52.223 L86.538,52.202 L86.538,54.366 L87.786,54.376 C88.681,54.386 89.159,54.012 89.159,53.273 C89.159,52.545 88.691,52.233 87.786,52.223 ZM82.598,52.816 L79.457,52.816 L79.457,55.125 L78.458,55.125 L78.458,49.612 L79.457,49.612 L79.457,51.953 L82.598,51.953 L82.598,49.612 L83.597,49.612 L83.597,55.125 L82.598,55.125 L82.598,52.816 ZM74.872,55.135 L72.480,55.125 L72.480,49.612 L73.478,49.612 L73.478,51.474 L75.028,51.484 C76.432,51.495 77.181,52.150 77.181,53.284 C77.181,54.480 76.349,55.146 74.872,55.135 ZM74.789,52.223 L73.478,52.202 L73.478,54.366 L74.789,54.376 C75.694,54.386 76.162,54.012 76.162,53.273 C76.162,52.545 75.704,52.233 74.789,52.223 ZM69.549,50.486 L67.177,50.486 L67.115,51.713 C67.021,53.658 66.761,55.208 65.513,55.208 C65.326,55.208 65.128,55.177 64.899,55.114 L64.962,54.272 C65.055,54.293 65.139,54.303 65.211,54.303 C66.106,54.303 66.147,52.951 66.220,51.651 L66.314,49.612 L70.547,49.612 L70.547,55.125 L69.549,55.125 L69.549,50.486 ZM63.071,54.397 C62.738,54.896 62.124,55.187 61.261,55.187 C60.013,55.187 59.222,54.522 59.222,53.565 C59.222,52.681 59.794,51.953 61.438,51.953 L63.019,51.953 L63.019,51.755 C63.019,50.912 62.530,50.424 61.542,50.424 C60.886,50.424 60.221,50.652 59.794,51.016 L59.378,50.268 C59.950,49.810 60.772,49.560 61.656,49.560 C63.164,49.560 64.017,50.288 64.017,51.797 L64.017,55.125 L63.071,55.125 L63.071,54.397 ZM63.019,52.670 L61.479,52.670 C60.491,52.670 60.210,53.055 60.210,53.523 C60.210,54.074 60.668,54.418 61.427,54.418 C62.176,54.418 62.769,54.074 63.019,53.440 L63.019,52.670 ZM54.211,57.205 C53.680,57.205 53.139,57.028 52.796,56.695 L53.223,55.947 C53.493,56.207 53.836,56.352 54.211,56.352 C54.689,56.352 54.991,56.134 55.261,55.499 L55.438,55.114 L53.004,49.612 L54.044,49.612 L55.968,54.022 L57.872,49.612 L58.850,49.612 L56.176,55.676 C55.688,56.841 55.053,57.205 54.211,57.205 ZM50.863,55.125 L49.865,55.125 L49.865,50.486 L47.847,50.486 L47.847,49.612 L52.881,49.612 L52.881,50.486 L50.863,50.486 L50.863,55.125 ZM45.842,51.110 L42.472,55.125 L41.557,55.125 L41.557,49.612 L42.555,49.612 L42.555,53.627 L45.935,49.612 L46.840,49.612 L46.840,55.125 L45.842,55.125 L45.842,51.110 ZM37.336,52.920 L35.537,52.920 L35.537,55.125 L34.496,55.125 L34.496,47.844 L37.336,47.844 C39.229,47.844 40.373,48.801 40.373,50.382 C40.373,51.963 39.229,52.920 37.336,52.920 ZM37.305,48.749 L35.537,48.749 L35.537,52.015 L37.305,52.015 C38.636,52.015 39.333,51.422 39.333,50.382 C39.333,49.342 38.636,48.749 37.305,48.749 Z" />
  <path fill-rule="evenodd" fill="rgb(255, 255, 255)" d="M214.131,40.986 L199.810,40.986 L199.810,12.095 L209.385,12.095 L209.385,20.969 L215.370,20.969 C222.427,20.969 226.637,24.105 226.637,30.503 C226.637,37.395 221.767,40.986 214.131,40.986 ZM213.471,27.779 L209.385,27.779 L209.385,34.176 L213.471,34.176 C215.411,34.176 216.855,32.896 216.855,30.668 C216.855,28.480 215.411,27.779 213.471,27.779 ZM188.132,40.986 L178.557,40.986 L178.557,19.648 L170.096,19.648 L170.096,12.095 L196.593,12.095 L196.593,19.648 L188.132,19.648 L188.132,40.986 ZM157.304,34.135 L154.704,34.135 L150.288,40.986 L140.093,40.986 L145.789,32.731 C142.074,30.998 139.969,27.696 139.969,23.280 C139.969,16.387 145.128,12.095 153.342,12.095 L166.879,12.095 L166.879,40.986 L157.304,40.986 L157.304,34.135 ZM157.304,19.607 L153.507,19.607 C151.030,19.607 149.792,20.762 149.792,23.115 C149.792,25.550 151.072,26.788 153.507,26.788 L157.304,26.788 L157.304,19.607 ZM127.508,27.820 L121.235,38.386 L116.942,38.386 L110.669,28.274 L110.669,40.986 L101.795,40.986 L101.795,12.095 L109.802,12.095 L119.212,27.490 L128.375,12.095 L136.382,12.095 L136.465,40.986 L127.591,40.986 L127.508,27.820 ZM87.931,35.951 L76.952,35.951 L75.012,40.986 L65.107,40.986 L77.736,12.095 L87.312,12.095 L99.941,40.986 L89.871,40.986 L87.931,35.951 ZM82.441,21.670 L79.635,28.934 L85.248,28.934 L82.441,21.670 ZM53.677,19.648 L44.886,19.648 L44.886,40.986 L35.311,40.986 L35.311,12.095 L63.252,12.095 L63.252,40.986 L53.677,40.986 L53.677,19.648 Z" />
  <path fill-rule="evenodd" fill="rgb(225, 216, 159)" d="M14.999,41.000 L14.999,11.756 L26.000,11.756 L26.000,41.000 L14.999,41.000 ZM21.000,9.804 L21.000,11.753 L20.000,11.753 L20.000,9.804 C20.000,9.804 17.203,9.491 17.203,6.879 C17.203,4.267 20.937,-0.555 21.000,0.055 C21.062,0.664 20.300,1.153 21.000,2.979 C21.565,4.453 23.309,4.383 23.391,6.879 C23.472,9.375 21.000,9.804 21.000,9.804 ZM-0.000,20.528 L13.000,20.528 L13.000,41.000 L-0.000,41.000 L-0.000,20.528 ZM7.000,18.578 L7.000,20.527 L6.000,20.527 L6.000,18.578 C6.000,18.578 3.797,18.371 3.797,16.430 C3.797,14.488 4.717,14.048 5.382,13.399 C5.803,12.989 6.094,12.517 6.094,11.880 C6.094,10.820 5.142,8.854 5.203,8.433 C5.203,8.433 9.391,12.483 9.391,15.653 C9.391,18.822 7.000,18.578 7.000,18.578 Z" />
</svg>