<svg xmlns="http://www.w3.org/2000/svg" viewBox="0 0 228.49 562.5"><defs><style>@keyframes blink{25%{opacity:1}40%{opacity:.8}50%{transform:translateX(1%);transform-origin:0 0}75%{opacity:.2}}</style></defs><path d="M.07 12.24a42.06 42.06 0 0 1 10.23 4.12 229 229 0 0 1 22.58 12.91c7.64 5.18 15.23 10.46 21.92 16.86A118.77 118.77 0 0 1 66 58.92a198 198 0 0 1 12.59 17.79c.95 1.53.76 2.53-.54 3.66-3.76 3.25-3.67 3.23-1 7.42a99.16 99.16 0 0 1 8.4 15.69 172.65 172.65 0 0 1 7.39 21.34 227.77 227.77 0 0 1 6 27.74 111 111 0 0 0 2.56 11.57 7.08 7.08 0 0 1-.59 4.3 51.33 51.33 0 0 1-4.78 9.12c-2.49 4-1.92 7.81-.07 11.71 3.36 7.09 7.81 13.53 12 20.12 6.28 9.88 12.31 19.91 18.18 30 1.81 3.12.76 6.24 0 9.39-1.14 4.54-4.74 6.35-8.47 8.26-2.94 1.5-6.18 2.22-9 3.92-3 1.8-4 4.66-4.58 7.85-.71 3.76.25 7.33.94 10.95.64 3.35.59 6.49-1.87 9.25a3.46 3.46 0 0 1-2.84 1.17c-3.5.07-7-.2-10.49.56-4 .86-7.63 2.5-11.43 3.76-.89.3-1.78.63-2.68.87-1.45.38-1.33 1-.44 1.94 3 3.33 6.91 4.94 11.24 5.93 3.4.77 6.84 1.34 10.23 2.14 2.4.56 4 1.87 4.35 4.41.58 4.82.24 8.68-4 11.18-4.38 2.59-5.21 5-4.24 10.21.7 3.78 2.46 7.24 2.95 11.08 1 8.05.46 15.76-5 22.28-3.62 4.31-8.48 6.19-14.07 6.54-5.83.37-11.64 1.17-17.48 1.48-3.84.2-7.65.59-11.47.93A116.43 116.43 0 0 0 25 377.64c-4.44 1.32-8.84 2.72-13.16 4.39-5.55 2.14-9 5.95-9.76 12a35.13 35.13 0 0 1-.86 3.73c-.15.63-.7.52-1.16.56zm0 457.16c.94-.18 1.32.53 1.72 1.14 3.35 5.14 6.62 10.33 10 15.42 4.86 7.21 9.85 14.33 14.73 21.52q7 10.29 13.83 20.68c2.85 4.34 5.57 8.75 8.27 13.18 3.56 5.84 6.72 11.91 9.81 18 .7 1.37.55 2-1.14 1.9-2.55-.17-5.1.11-7.68-.33s-5.1.19-7.66.28c-4.18.15-8.38-.35-12.54-.26-9.8.22-19.6.28-29.4.3z" fill="#dedede"/><g class="voice" fill="#dedede"><path d="M228.45 302.39c-.85 0-1 .68-1.33 1.28-1.76 3-4 4.9-7.92 4.89q-43-.19-85.92 0c-6.45 0-10.33-6.18-7.66-11.46a7.69 7.69 0 0 1 7.32-4.45h85.92c3.82 0 6.87 1.18 8.32 5 .24.64.54 1.07 1.26 1.09z" style="animation:blink 3s ease-in-out 2.5s infinite"/><path d="M222.29 248.17a8.54 8.54 0 0 1-5.34 7.71c-7.3 2.76-14.61 5.52-21.82 8.48s-14.39 5.51-21.46 8.6c-6.2 2.7-12.61 4.9-18.93 7.34-6.65 2.57-13.33 5.08-19.94 7.77-2.81 1.15-7.56-.92-9.07-3.58a7.85 7.85 0 0 1 .87-9.33 10.85 10.85 0 0 1 4.16-2.76c4.29-1.7 8.54-3.5 12.84-5.16 8.06-3.11 16.17-6.07 24.21-9.23 9.4-3.69 18.74-7.54 28.11-11.29 5-2 10-4 15-5.85a8.25 8.25 0 0 1 11.37 7.3z" style="animation:blink 3s ease-in-out infinite"/><path d="M221.95 352.7c0 5.71-5.17 9.58-10.47 7.59-8.88-3.34-17.67-6.9-26.51-10.36-5.93-2.32-11.88-4.6-17.79-7-4.8-1.91-9.51-4-14.35-5.82q-9.82-3.59-19.5-7.54c-2.27-.92-4.72-1.49-6.52-3.46-2.36-2.6-2.76-6.36-.78-9.91a7.71 7.71 0 0 1 8.21-3.34c4.06 1 7.83 2.85 11.7 4.38 6 2.38 12 4.77 18.1 7.06s12.06 4.58 18 7c8.16 3.35 16.44 6.4 24.6 9.77 3.51 1.45 7.11 2.73 10.57 4.31 3.1 1.48 5.03 3.69 4.74 7.32z" style="animation:blink 3s ease-in-out 5s infinite"/></g></svg>