<svg xmlns="http://www.w3.org/2000/svg" width="2688.5" height="2688.5"><defs><style>@keyframes pulse{50%{transform:scale3d(1.05,1.05,1.05)}}.circles path{animation:pulse 8s infinite ease-in-out;transform-origin:center}</style><filter id="Filter_0"><feComposite operator="atop" in="floodOut" in2="SourceGraphic" result="compOut"/><feBlend in="compOut" in2="SourceGraphic"/></filter></defs><path fill-rule="evenodd" fill="#95DC58" d="M1342.5-.001C2083.942-.001 2685 601.057 2685 1342.5c0 741.442-601.058 1342.5-1342.5 1342.5S0 2083.942 0 1342.5C0 601.057 601.058-.001 1342.5-.001z"/><g class="circles" filter="url(#Filter_0)" fill-rule="evenodd" stroke="#9AE35B" stroke-width="7" fill="none"><path d="M1341.703 1168.531c95.502 0 172.922 77.427 172.922 172.937 0 95.511-77.42 172.938-172.922 172.938s-172.922-77.427-172.922-172.938c0-95.51 77.42-172.937 172.922-172.937z"/><path d="M1342.297 1063.125c154.061 0 278.953 124.884 278.953 278.937S1496.358 1621 1342.297 1621c-154.062 0-278.953-124.885-278.953-278.938s124.891-278.937 278.953-278.937z"/><path d="M1342.312 852.281c270.499 0 489.782 219.283 489.782 489.781 0 270.499-219.283 489.782-489.782 489.782-270.498 0-489.781-219.283-489.781-489.782 0-270.498 219.283-489.781 489.781-489.781z"/><path d="M1342.297 524.187c451.708 0 817.89 366.175 817.89 817.875s-366.182 817.875-817.89 817.875c-451.709 0-817.891-366.175-817.891-817.875s366.182-817.875 817.891-817.875z"/></g></svg>