<svg preserveAspectRatio="none" xmlns="http://www.w3.org/2000/svg" xmlns:xlink="http://www.w3.org/1999/xlink" width="548" height="102" viewBox="0 0 548 102"><defs><path id="y06ca" d="M749.341 45.323c26.86-.281 216.194-3.427 256.946-3.55 40.75-.125 196.94-1.776 208.388-1.776 13.62 0 28.325.629 28.325 10.001 0 15.443-12.32 13.635-12.14 16.624.182 2.993 4.183 4.168 4.047 8.877-.136 4.709-4.837 7.068-4.046 8.874.79 1.806 11.641 5.501 10.116 12.424-1.526 6.923-7.247 12.454-22.255 12.425-15.01-.027-228.183 1.848-265.038 1.775-36.856-.07-188.444.073-196.25 0-7.806-.07-24.245-1.612-24.278-10.65-.024-6.438 6.712-7.61 6.07-10.65-.643-3.04-10.854-4.846-10.117-10.65.738-5.802 3.153-8.507 2.024-12.425-1.13-3.917-6.07-4.066-6.07-8.874 0-5.445-2.582-12.146 24.278-12.425z"/><mask id="y06cc" width="2" height="2.02" x="-1" y="-1.01"><path fill="#fff" d="M724.3 39.3h519.4v72.4H724.3z"/><use xlink:href="#y06ca"/></mask><filter id="y06cb" width="579" height="135.7" x="697" y="12" filterUnits="userSpaceOnUse"><feOffset dx="5" dy="8.7" in="SourceGraphic" result="FeOffset1023Out"/><feGaussianBlur in="FeOffset1023Out" result="FeGaussianBlur1024Out" stdDeviation="6.92 6.92"/></filter></defs><g transform="translate(-715 -33)"><g filter="url(#y06cb)"><use fill="none" stroke="#000" stroke-opacity=".33" stroke-width="1.4" mask="url(&quot;#y06cc&quot;)" xlink:href="#y06ca"/><use fill-opacity=".33" xlink:href="#y06ca"/></g><use fill="#872270" xlink:href="#y06ca"/></g></svg>