<svg id="birth-hero__bubble.svg" xmlns="http://www.w3.org/2000/svg" width="233.65" height="227.25" viewBox="0 0 233.65 227.25"><defs><filter id="filter" x="1372.13" y="475.344" width="150.87" height="75.656" filterUnits="userSpaceOnUse"><feOffset result="offset" dx=".629" dy=".777" in="SourceAlpha"/><feGaussianBlur result="blur"/><feFlood result="flood" flood-color="#fff" flood-opacity=".59"/><feComposite result="composite" operator="in" in2="blur"/><feBlend result="blend" in="SourceGraphic"/></filter></defs><path id="Фигура_1_копия" data-name="Фигура 1 копия" d="M1422.68 647s13.57-10.092 18.14-13.506 9.15-7.714 9.06-9.953.65-4.807-4.23-5.686-35.95-8.026-49.21-18.483-32.83-32-18.73-59 54.47-50.647 92.53-54.028 74.73 2.735 92.82 22.748 18.28 36.91 7.63 56.161-24.18 29.846-47.32 43.363a305 305 0 0 1-56.81 25.591c-12.24 4.105-43.88 12.793-43.88 12.793z" transform="translate(-1344.19 -419.75)" style="mix-blend-mode:multiply" fill-rule="evenodd" fill="#b5c76e" opacity=".29"/><path id="Фигура_1" data-name="Фигура 1" d="M1423 647s10.48-14.2 14-19 6.77-10.852 6-14-.83-6.762-6-8-38.48-11.289-55-26-42.77-45.021-37-83 38.92-71.246 76-76 75.7 3.847 100 32 29.72 51.921 25 79-15 41.986-34 61a200.945 200.945 0 0 1-49 36c-10.99 5.78-40 18-40 18z" transform="translate(-1344.19 -419.75)" fill="#ffdc40" fill-rule="evenodd"/><path id="Счастливые_дети_довольные_мамы-_наша_работа" data-name="Счастливые дети, довольные мамы- наша работа" d="M1375.32 503.365a3 3 0 0 0 .45-.01 4.492 4.492 0 0 0 1.64-.6 8.53 8.53 0 0 0 1.52-1.1 3.643 3.643 0 0 0 1-.7 4.83 4.83 0 0 0 .89-.875 1.152 1.152 0 0 0 .32-.782 1.389 1.389 0 0 0-.25-.7.363.363 0 0 0-.47-.12 1.8 1.8 0 0 0-.87.527 3.293 3.293 0 0 1-.6.563 7 7 0 0 1-.9.575c-.12.074-.34.2-.66.391s-.62.353-.9.5a2.458 2.458 0 0 1-.78.262.744.744 0 0 1-.52-.091 1.85 1.85 0 0 1-.58-.816 5.823 5.823 0 0 1-.33-1.377 9.615 9.615 0 0 1 .02-2.331 2.538 2.538 0 0 0 .13-.592 1.305 1.305 0 0 0 .01-.444l.17-.6a7.772 7.772 0 0 1 .61-1.825c.29-.612.71-1.395 1.27-2.351a13.573 13.573 0 0 1 1.17-1.751 4.625 4.625 0 0 1 1.08-1.03 1.737 1.737 0 0 1 .59-.294.236.236 0 0 1 .18.044.486.486 0 0 1 .2.331 5.011 5.011 0 0 1-.04.758l-.06.628a6.4 6.4 0 0 1-.38 1.144 7.748 7.748 0 0 1-.46 1c-.07.023-.1.056-.08.1s.11.178.27.41a2.573 2.573 0 0 0 .59.3 1.322 1.322 0 0 0 .59.083.581.581 0 0 0 .4-.2 5.222 5.222 0 0 0 .97-2 6.062 6.062 0 0 0 .22-2.333 2.064 2.064 0 0 0-.34-1 2.2 2.2 0 0 0-1.04-.981 2.631 2.631 0 0 0-1.37-.187 2.567 2.567 0 0 0-1.49.649c-.64.566-1.12 1.028-1.45 1.386a8.689 8.689 0 0 0-.92 1.244c-.29.471-.67 1.179-1.15 2.124a14.743 14.743 0 0 0-1.04 2.367c-.07.2-.19.615-.35 1.24l-.14.483a9.452 9.452 0 0 0-.3 1.91 12.86 12.86 0 0 0 .12 2.213 6.835 6.835 0 0 0 .63 2.272 2.727 2.727 0 0 0 1.05 1.046 5.035 5.035 0 0 0 1.38.539zm13.82-11.229a1.041 1.041 0 0 0-.38-.153 1.553 1.553 0 0 0-.39 0 1.465 1.465 0 0 0-.87 1.037 3.251 3.251 0 0 1-.69 1.017q-.195.2-.54.643a9.782 9.782 0 0 1-.95.991 2.7 2.7 0 0 1-.99.533 1.408 1.408 0 0 1-.14-.383.377.377 0 0 1 .02-.18 14.879 14.879 0 0 1 1.06-2.568.9.9 0 0 0 .16-.663.767.767 0 0 0-.24-.5 1.38 1.38 0 0 0-1.14-.437.641.641 0 0 0-.38.236.954.954 0 0 0-.22.437 5.262 5.262 0 0 1-.27.654q-.15.483-.51 1.459l-.31.9a3.023 3.023 0 0 0-.07 1.626 1.9 1.9 0 0 0 .29.7 1.525 1.525 0 0 0 .62.478 1.316 1.316 0 0 0 .69.137.647.647 0 0 0 .28-.1 2.816 2.816 0 0 0 .64-.378 5.644 5.644 0 0 0 .56-.5 6.464 6.464 0 0 0-.2 1.132q.015.222.06.658a1.92 1.92 0 0 0 .38 1.041 1.563 1.563 0 0 0 .91.574 1.224 1.224 0 0 0 .4.018 1 1 0 0 0 .64-.411 2.581 2.581 0 0 0 .23-.428.654.654 0 0 0 .05-.338 2.645 2.645 0 0 0-.22-.683.507.507 0 0 0-.54-.222l-.01-.265.8-2.159c.04-.064.09-.147.15-.251a1.376 1.376 0 0 0 .14-.316c.17-.391.36-.776.55-1.155a1.818 1.818 0 0 1 .49-.679 1.172 1.172 0 0 0 .29-.857.776.776 0 0 0-.18-.433c-.09-.113-.15-.184-.17-.211zm1.55 7.413a1.524 1.524 0 0 0 .88.135q1.4-.171 3.37-2.718a5.9 5.9 0 0 0 .43-.63 2.558 2.558 0 0 0 .22.46 2.733 2.733 0 0 0 .29.453 2.767 2.767 0 0 0 1.05 1 2.176 2.176 0 0 0 1.2.185 4.605 4.605 0 0 0 .48-.1.744.744 0 0 0 .37-.356 1.2 1.2 0 0 0 .09-.742.483.483 0 0 0-.54-.422 1.093 1.093 0 0 1-.51-.114.848.848 0 0 1-.34-.335 2.834 2.834 0 0 1-.65-1.494 3.186 3.186 0 0 1 .06-1.138l.23-1.137-.89-.622c-.07-.051-.34-.231-.82-.542l-.65-.43a1.4 1.4 0 0 0-.94-.195 1.587 1.587 0 0 0-.86.394 7.132 7.132 0 0 0-1.07 1.152 5.268 5.268 0 0 0-.74 1.043l-.13.371a.211.211 0 0 0-.15.1.272.272 0 0 0-.04.172 1.679 1.679 0 0 0-.23.405 2.611 2.611 0 0 1-.28.5q-.54 1.4-.84 2.408a1.508 1.508 0 0 0-.1 1.165c.07.08.15.17.23.272a.539.539 0 0 1 .12.239 1.167 1.167 0 0 0 .34.224 1.383 1.383 0 0 1 .42.3zm.98-1.96c.01-.091.06-.285.12-.581a4.59 4.59 0 0 1 .3-.867 17.639 17.639 0 0 1 1.28-2.541 1.73 1.73 0 0 1 1-.909.532.532 0 0 1 .37.121 2.293 2.293 0 0 1 .47.6l-.39.845a7.387 7.387 0 0 1-.58.9c-.2.254-.48.573-.85.958-.09.1-.18.2-.25.286s-.15.17-.22.237a2.678 2.678 0 0 1-1.25.952zm11 1.042a5.211 5.211 0 0 0 1.03-.537 1.772 1.772 0 0 0 .62-.485.1.1 0 0 1 .05-.118.48.48 0 0 1 .15-.04 1.57 1.57 0 0 0 .6-.506 7.72 7.72 0 0 0 .76-1 1.014 1.014 0 0 0 .28-.622.113.113 0 0 1 .02-.068.078.078 0 0 1 .08-.054c.11-.073.06-.2-.14-.383a1.246 1.246 0 0 0-.59-.326l-.26.033a1.759 1.759 0 0 0-.39.092.522.522 0 0 0-.3.28.65.65 0 0 0-.25.308c-.07.149-.12.24-.14.272q-.09.076-.42.4a6.973 6.973 0 0 1-.71.585 1.662 1.662 0 0 1-.84.3 1.2 1.2 0 0 1-.4 0 .308.308 0 0 1-.16-.17 1.31 1.31 0 0 1-.11-.417 2 2 0 0 1 0-.489q.2-1.374.36-2.106a3.94 3.94 0 0 1 .47-1.176 2.944 2.944 0 0 1 .82-.821 1.781 1.781 0 0 1 .31-.128c.18-.021.28.1.32.361a5.062 5.062 0 0 1 0 .554 6.647 6.647 0 0 0-.07.9.441.441 0 0 0 .31.216 1.223 1.223 0 0 0 .47.042c.18-.021.26-.068.25-.141s.07-.141.23-.161a.689.689 0 0 0 .37-.445 2.266 2.266 0 0 0 .24-.85.6.6 0 0 0 .03-.335 2.187 2.187 0 0 0-.32-.848.673.673 0 0 0-.41-.436l-.13-.1a.553.553 0 0 0-.43-.39 3.83 3.83 0 0 0-.86-.2 3.514 3.514 0 0 0-.64.168 4.358 4.358 0 0 0-.7.285 2.266 2.266 0 0 0-.66.613q-.345.441-.81 1.141a7.252 7.252 0 0 0-.86 2.345 7.6 7.6 0 0 0-.17 2.437l.06.346a1.894 1.894 0 0 0 .87 1.39 2.426 2.426 0 0 0 1.66.384 2.735 2.735 0 0 0 .41-.1zm15.66-3.809c-.06-.14-.12-.3-.19-.475a2.526 2.526 0 0 1-.13-.57 2.873 2.873 0 0 1-.04-.44 1.859 1.859 0 0 0-.03-.439 3.442 3.442 0 0 0-.45-1.408 1.89 1.89 0 0 0-.86-.824.826.826 0 0 0-.65-.209 1.5 1.5 0 0 0-.85.481 9.407 9.407 0 0 0-.78.993c-.2.313-.33.51-.38.59.01-.074.01-.241.01-.5a5.6 5.6 0 0 0-.04-.65 2.146 2.146 0 0 0-.59-1.113 1.446 1.446 0 0 0-.95-.405 1.92 1.92 0 0 0-.76.339 2.971 2.971 0 0 0-.81.785 17.877 17.877 0 0 0-1.14 1.826l-.04.049q.21-1 .36-1.53a3.017 3.017 0 0 0 .08-1.14 1.28 1.28 0 0 0-.39-.861.534.534 0 0 0-.34-.224 1.233 1.233 0 0 0-.47-.031.682.682 0 0 0-.46.19 2.444 2.444 0 0 0-.19.81 11.57 11.57 0 0 0-.12 1.156 2.5 2.5 0 0 1-.04.547 3.337 3.337 0 0 1-.18.766q-.135.88-.21 1.887a9.867 9.867 0 0 0-.04 1.335 1.52 1.52 0 0 0 .36.831 1.665 1.665 0 0 0 .74.475.487.487 0 0 0 .22.039.305.305 0 0 0 .22-.148 1.861 1.861 0 0 0 .15-.452 16.755 16.755 0 0 0 1.1-2.041 4.831 4.831 0 0 0 .25-.5 3.185 3.185 0 0 1 .4-.68 2.477 2.477 0 0 1 .41-.428c.14-.113.24-.195.29-.246a.877.877 0 0 1 .47-.28.233.233 0 0 1 .24.1c-.04.4-.1.892-.19 1.464s-.16 1.092-.24 1.559c-.01.149-.01.245-.01.289a.8.8 0 0 0 .77.681.432.432 0 0 0 .28.055.6.6 0 0 0 .36-.256 3.54 3.54 0 0 0 .44-.752 17.839 17.839 0 0 1 1.09-2.14c.31-.488.58-.688.82-.6a1.807 1.807 0 0 1 .27.985l.17 1.354a.819.819 0 0 0 .73.653 3.292 3.292 0 0 0 1.2.107.371.371 0 0 0 .24-.207.566.566 0 0 0 .11-.411l-.03-.2-.18-.2zm8.46-7a1.645 1.645 0 0 0-.8-.566 2.767 2.767 0 0 0-1.14-.082 2.406 2.406 0 0 0-.69.173 8.565 8.565 0 0 1-.9.266c-.5.135-.88.248-1.13.338a.631.631 0 0 0-.44.742l.4.926c.16.069.25.109.29.119s.13.029.26.056a15.219 15.219 0 0 1-.54 1.552c-.37.858-.68 1.54-.94 2.045a3.318 3.318 0 0 1-.33.472 6.267 6.267 0 0 1-.53.53c-.21.2-.37.345-.47.446a.712.712 0 0 0-.2 0 .452.452 0 0 0-.36.31 1.939 1.939 0 0 0-.24.35.689.689 0 0 0-.02.3l.15.248a3.693 3.693 0 0 1 .38.308 1.183 1.183 0 0 0 .58.306c.07-.009.17-.017.28-.024a1.248 1.248 0 0 0 .33-.062.594.594 0 0 0 .26-.177l.62-.607.69-.861.22-.382a10.429 10.429 0 0 0 .72-1.551c.36-1 .62-1.78.79-2.325a8.6 8.6 0 0 0 .32-1.58 2.416 2.416 0 0 1 .56-.135 2.385 2.385 0 0 1 .4-.027 2.645 2.645 0 0 1 .02.707l-.1.611q-.15.837-.33 2.024-.2 1.186-.33 2a1.888 1.888 0 0 0-.07.562 2.532 2.532 0 0 0 .26.634 1.241 1.241 0 0 0 .85.272.611.611 0 0 0 .19-.068 2.72 2.72 0 0 0 .56-.412.837.837 0 0 0 .21-.591 6.719 6.719 0 0 1 .13-.881 3.817 3.817 0 0 0 .11-.567 5.649 5.649 0 0 0 .21-1.168c.16-.987.28-1.781.35-2.381a2.22 2.22 0 0 1-.06-.4 4.7 4.7 0 0 0-.13-.726 1.732 1.732 0 0 0-.39-.728zm7.29 6.818a1.417 1.417 0 0 0 .83.119 1.168 1.168 0 0 0 .47-.146.361.361 0 0 0 .21-.27 1.249 1.249 0 0 0-.42-1.1 1.177 1.177 0 0 1-.44-.467 2.328 2.328 0 0 1-.17-.7 4.214 4.214 0 0 1 .05-.926 10.755 10.755 0 0 1 .4-1.411 5.8 5.8 0 0 0 .28-2.052.9.9 0 0 0-.31-.672.953.953 0 0 1-.24-.236.3.3 0 0 0-.23-.171l-.35.064c-.03-.054-.1-.05-.19.014a.607.607 0 0 0-.22.237 1.4 1.4 0 0 0-.4.514.766.766 0 0 0-.07.541 5.259 5.259 0 0 1-.18 1.574 8.06 8.06 0 0 1-1 2.428 1.683 1.683 0 0 1-.97.807.535.535 0 0 1-.28-.034.446.446 0 0 1-.31-.426 2.926 2.926 0 0 1 .06-.9q.12-.546.39-1.533l.13-.436a4.7 4.7 0 0 0 .36-1.929.588.588 0 0 0-.11-.319.446.446 0 0 0-.37-.309 1.666 1.666 0 0 0-.67-.051.943.943 0 0 0-.34.087l-.27.72-.49 1.39a11.187 11.187 0 0 0-.48 1.987 8.269 8.269 0 0 0-.04 1.579c0 .207 0 .347.01.42a1.7 1.7 0 0 0 .86 1.268 1.3 1.3 0 0 0 1.12.439 2.387 2.387 0 0 0 1.15-.584 3.754 3.754 0 0 0 .91-.866.839.839 0 0 0 .22-.349 4.035 4.035 0 0 0 .17-.453c.01.073.02.194.04.361a1.584 1.584 0 0 0 .1.376 9.925 9.925 0 0 0 .41.936 1.459 1.459 0 0 0 .38.474zm10.85-15.763a1.823 1.823 0 0 0-.77-.4.8.8 0 0 0-.65 0l-.47.19c-.19.069-.4.145-.6.229a1 1 0 0 0-.4.249c-.07.082-.24.273-.53.575-.35.368-.65.7-.91 1.009a3.685 3.685 0 0 0-.56.922 3.506 3.506 0 0 0-.43.574c-.11.2-.25.455-.4.77l-.36.665a5.724 5.724 0 0 0-.41.936q-.255.7-.36 1.087a2.036 2.036 0 0 1-.43.695.96.96 0 0 0-.22.892l.05.237a1.126 1.126 0 0 1-.02.412 3.306 3.306 0 0 1-.1.4l-.14.483q-.03.114-.12.845c-.06.488-.12 1.245-.19 2.273a.894.894 0 0 0-.02.379 2.841 2.841 0 0 0 .21.717 4.723 4.723 0 0 0 .39.695 1.69 1.69 0 0 0 .74.563 1.668 1.668 0 0 0 .83.1l.45-.067.57-.468a8.188 8.188 0 0 0 .92-.878 5.081 5.081 0 0 0 .55-1.054 5.45 5.45 0 0 0 .33-.9 7.006 7.006 0 0 0 .17-.93 4.693 4.693 0 0 1 .15-.794 2.846 2.846 0 0 1-.03-.428c-.01-.155-.01-.32-.02-.5a.71.71 0 0 0 .01-.245.633.633 0 0 0-.25-.457 3.043 3.043 0 0 0-1.27-.554l.21-.136a8.577 8.577 0 0 0 1.64-1.464 11.106 11.106 0 0 0 1.6-1.727 6.922 6.922 0 0 0 .98-1.761c.03-.107.09-.3.19-.587s.15-.541.2-.768a1.681 1.681 0 0 0 .03-.625 2.566 2.566 0 0 0-.56-1.15zm-1.29 2.486a5.661 5.661 0 0 1-.67 1.246 10.182 10.182 0 0 1-1.28 1.554 6.953 6.953 0 0 1-1.71 1.286h-.16a15.156 15.156 0 0 1 2.54-4.014 11.061 11.061 0 0 1 1.45-1.617.611.611 0 0 1 .07.234 3.037 3.037 0 0 1-.24 1.315zm-3.33 7.9a5.256 5.256 0 0 0-.19.756 4.874 4.874 0 0 1-.51 1.679 1.591 1.591 0 0 1-.29.435.455.455 0 0 1-.25.165c-.11.012-.16-.047-.18-.178a10.958 10.958 0 0 1 .08-1.673 6.9 6.9 0 0 1 .2-1.443 1.03 1.03 0 0 0 .16-.507c.03-.24.05-.406.07-.5a.529.529 0 0 1 .27-.343l.38-.179-.07.385a1.83 1.83 0 0 1 .19.464 7.97 7.97 0 0 1 .14.936zm7.65-1.937a6.554 6.554 0 0 0-1.28 1.266c.04-.138.08-.291.13-.46s.09-.351.14-.549a15.853 15.853 0 0 0 .6-2.313 1.444 1.444 0 0 0-.37-.675 1.075 1.075 0 0 0-.77-.181l-.28.256-.33 1.281a4.9 4.9 0 0 0-.36 1c-.11.443-.27 1.082-.46 1.919l-.32 1.325a5.349 5.349 0 0 0-.13.858c-.04.374-.06.614-.08.719a3.536 3.536 0 0 0 .01.4.84.84 0 0 0 .3.616 1.362 1.362 0 0 0 .77.183.7.7 0 0 0 .45-.675.782.782 0 0 0 .38.574 2.051 2.051 0 0 0 .45.254.961.961 0 0 0 .43.037 6.654 6.654 0 0 0 1.11-.358 4.608 4.608 0 0 0 1.01-.612 5.475 5.475 0 0 0 1.9-2.738 3.415 3.415 0 0 0-.01-.642 2.451 2.451 0 0 0-.21-.751 1.2 1.2 0 0 0-.57-.982 1.906 1.906 0 0 0-1.21-.195 3.589 3.589 0 0 0-1.3.448zm6.6-3.138a1.5 1.5 0 0 0-1.1-.485.9.9 0 0 0-.62.408c-.01.134-.05.524-.13 1.169s-.21 1.421-.39 2.331c-.12.458-.2.733-.23.826a14.037 14.037 0 0 0-.34 1.748c-.02.121-.04.323-.08.609a3.292 3.292 0 0 0 0 .887 1.373 1.373 0 0 0 .58.759 1.953 1.953 0 0 0 1.01.153.915.915 0 0 0 .33-.417.618.618 0 0 0 .01-.423 6.146 6.146 0 0 1 .16-1.416c.03-.269.18-1.082.47-2.44s.47-2.174.55-2.451a1.2 1.2 0 0 0 .04-.537 1.831 1.831 0 0 0-.26-.721zm-5.68 6.261a2.327 2.327 0 0 1-.76.781 2.261 2.261 0 0 1-.98.408.726.726 0 0 1-.38-.042l-.24.008a10.27 10.27 0 0 1 .74-1.354 10.013 10.013 0 0 1 1.13-1.27c.02-.032.09-.1.19-.212a3.263 3.263 0 0 1 .68-.449 2.035 2.035 0 0 0 .15.18.282.282 0 0 1 .11.164 3.333 3.333 0 0 1-.64 1.786zm10.14 1.17a2.959 2.959 0 0 0 1.46-.6 4.433 4.433 0 0 0 1.02-1.078 2.2 2.2 0 0 0 .38-.845.831.831 0 0 0-.35-.467.712.712 0 0 0-.49-.206.783.783 0 0 0-.36.133 3.194 3.194 0 0 0-.37.356 5.2 5.2 0 0 1-.77.648 1.516 1.516 0 0 1-.59.228 1.2 1.2 0 0 1-.83-.142 1.288 1.288 0 0 1-.44-.81 2.48 2.48 0 0 1-.01-.819.394.394 0 0 1 .38-.291 4.565 4.565 0 0 1 .64.022 5.258 5.258 0 0 0 1.03-.027 2.74 2.74 0 0 0 1.63-.887 4.061 4.061 0 0 0 .81-1.43 3.3 3.3 0 0 0 .19-1l-.01-.065-.02-.11a1.555 1.555 0 0 0-.31-.692 2.083 2.083 0 0 0-.88-.646 2.865 2.865 0 0 0-1.49-.149 2.518 2.518 0 0 0-.65.157 4.461 4.461 0 0 0-.66.359 4.211 4.211 0 0 0-1.41 1.48 8.271 8.271 0 0 0-.83 1.919 5.285 5.285 0 0 0-.24 1.494 9.361 9.361 0 0 0 .07 1.121 2.547 2.547 0 0 0 1.01 1.893 2.859 2.859 0 0 0 2.09.452zm.12-5.356a2.736 2.736 0 0 1-.67 0 .42.42 0 0 1-.35-.145 5.357 5.357 0 0 1 .8-1.195 1.538 1.538 0 0 1 .76-.57l.24-.03a1.123 1.123 0 0 1 .54.123.459.459 0 0 1 .23.337 1.665 1.665 0 0 1-.4.68 3.391 3.391 0 0 1-.59.639 1.345 1.345 0 0 1-.56.157zm17.85-6.072a8.673 8.673 0 0 0-1.02-3.211 3.471 3.471 0 0 0-2.42-1.531 1.568 1.568 0 0 0-.86-.116 3.263 3.263 0 0 0-.67.171 1.952 1.952 0 0 0-.84.468.954.954 0 0 0-.23.727 1.334 1.334 0 0 0 .28.432 1.047 1.047 0 0 0 .43.257 2.195 2.195 0 0 1 .83-.279 2.538 2.538 0 0 1 1.14.125 2.284 2.284 0 0 1 .97.614 3.687 3.687 0 0 1 .55 1.815 14.481 14.481 0 0 1 .11 2.358 3.315 3.315 0 0 0-.41-.314 1.162 1.162 0 0 0-.42-.16 2.458 2.458 0 0 0-.69-.026 3.138 3.138 0 0 0-.81.21 2.429 2.429 0 0 0-.61.341 5.45 5.45 0 0 0-1.31 1.325 4.692 4.692 0 0 0-.82 1.531 9.49 9.49 0 0 0-.36 1.119 2.486 2.486 0 0 0-.08 1.041c.01.087.03.283.08.588a1.7 1.7 0 0 0 .26.744 1.616 1.616 0 0 0 .64 1.074 2.786 2.786 0 0 0 1.02.484 1.572 1.572 0 0 0 .85.107 5.281 5.281 0 0 0 2.81-2.5 10.84 10.84 0 0 0 1.41-4.229 5.076 5.076 0 0 0 .25-1.582 6.8 6.8 0 0 0-.08-1.586zm-2.92 5.809c-.06.1-.2.323-.4.68a8.052 8.052 0 0 1-.7 1.05 1.327 1.327 0 0 1-.84.569.385.385 0 0 1-.39-.218 1.542 1.542 0 0 1-.2-.619 2.573 2.573 0 0 1 .13-1.3 6.875 6.875 0 0 1 1.36-2.295 3.672 3.672 0 0 1 .71-.552 1.723 1.723 0 0 1 .63-.255.332.332 0 0 1 .42.325 3.638 3.638 0 0 1-.16 1.228 5.683 5.683 0 0 1-.56 1.388zm6.99 2.909a2.888 2.888 0 0 0 1.45-.6 4.1 4.1 0 0 0 1.02-1.078 2.112 2.112 0 0 0 .39-.846.88.88 0 0 0-.35-.467.716.716 0 0 0-.49-.206.794.794 0 0 0-.36.133 4 4 0 0 0-.38.357 5.257 5.257 0 0 1-.76.648 1.612 1.612 0 0 1-.59.228 1.187 1.187 0 0 1-.83-.142 1.288 1.288 0 0 1-.44-.81 2.479 2.479 0 0 1-.01-.819.385.385 0 0 1 .38-.291 4.4 4.4 0 0 1 .64.022 5.138 5.138 0 0 0 1.02-.027 2.737 2.737 0 0 0 1.64-.887 4.07 4.07 0 0 0 .81-1.43 2.913 2.913 0 0 0 .18-1v-.066l-.02-.109a1.472 1.472 0 0 0-.32-.692 1.978 1.978 0 0 0-.87-.646 2.855 2.855 0 0 0-1.49-.149 2.52 2.52 0 0 0-.65.156 4.586 4.586 0 0 0-.67.359 4.2 4.2 0 0 0-1.4 1.48 8.278 8.278 0 0 0-.83 1.92 5.362 5.362 0 0 0-.25 1.493 9.266 9.266 0 0 0 .08 1.122 2.572 2.572 0 0 0 1 1.893 2.9 2.9 0 0 0 2.1.452zm.12-5.356a2.787 2.787 0 0 1-.67 0 .417.417 0 0 1-.35-.146 5.056 5.056 0 0 1 .8-1.195 1.551 1.551 0 0 1 .76-.57l.24-.029a1.044 1.044 0 0 1 .53.122.413.413 0 0 1 .23.338 1.608 1.608 0 0 1-.39.68 3.077 3.077 0 0 1-.6.639 1.256 1.256 0 0 1-.55.157zm15.15 1.685c-.06-.14-.13-.3-.19-.476a2.53 2.53 0 0 1-.14-.57c-.02-.189-.03-.336-.03-.44s-.01-.25-.03-.439a3.776 3.776 0 0 0-.45-1.408 1.909 1.909 0 0 0-.87-.824.8.8 0 0 0-.64-.209 1.5 1.5 0 0 0-.85.481 8.255 8.255 0 0 0-.78.993c-.2.314-.33.51-.38.59 0-.074.01-.241 0-.5a5.88 5.88 0 0 0-.03-.65 2.22 2.22 0 0 0-.59-1.113 1.461 1.461 0 0 0-.95-.4 1.991 1.991 0 0 0-.77.338 2.937 2.937 0 0 0-.8.785 18.149 18.149 0 0 0-1.15 1.826l-.04.049c.14-.667.26-1.177.37-1.53a3.236 3.236 0 0 0 .08-1.14 1.377 1.377 0 0 0-.39-.861.592.592 0 0 0-.34-.224 1.233 1.233 0 0 0-.47-.031.66.66 0 0 0-.46.19 2.2 2.2 0 0 0-.19.81 9.562 9.562 0 0 0-.13 1.156 2.328 2.328 0 0 1-.03.548 3.961 3.961 0 0 1-.18.765q-.135.88-.21 1.887a8.384 8.384 0 0 0-.04 1.335 1.452 1.452 0 0 0 .36.831 1.633 1.633 0 0 0 .73.475.526.526 0 0 0 .23.039.272.272 0 0 0 .21-.148 1.453 1.453 0 0 0 .16-.451 16.81 16.81 0 0 0 1.1-2.042c.12-.222.2-.387.25-.5a3.722 3.722 0 0 1 .39-.68 2.918 2.918 0 0 1 .41-.428c.15-.113.24-.195.3-.246a.877.877 0 0 1 .47-.28.241.241 0 0 1 .24.1c-.04.4-.11.892-.19 1.464s-.17 1.092-.24 1.559a1.58 1.58 0 0 0-.01.289.788.788 0 0 0 .77.681.4.4 0 0 0 .27.055.611.611 0 0 0 .37-.256 3.54 3.54 0 0 0 .44-.752 17.839 17.839 0 0 1 1.09-2.14q.465-.732.81-.6a1.692 1.692 0 0 1 .28.986l.17 1.353a.808.808 0 0 0 .73.653 3.27 3.27 0 0 0 1.2.107.421.421 0 0 0 .24-.207.558.558 0 0 0 .1-.411c-.01-.131-.02-.2-.02-.2l-.18-.2zm6.45.959a1.42 1.42 0 0 0 .83.119 1.153 1.153 0 0 0 .47-.147.412.412 0 0 0 .21-.269 1.253 1.253 0 0 0-.42-1.1 1.141 1.141 0 0 1-.45-.466 2.76 2.76 0 0 1-.16-.7 3.687 3.687 0 0 1 .05-.927 12.178 12.178 0 0 1 .39-1.411 5.568 5.568 0 0 0 .28-2.051.866.866 0 0 0-.3-.672.983.983 0 0 1-.24-.237.3.3 0 0 0-.23-.171l-.35.065c-.04-.055-.1-.05-.2.013a.68.68 0 0 0-.21.237 1.312 1.312 0 0 0-.4.515.714.714 0 0 0-.07.54 5.256 5.256 0 0 1-.18 1.574 8.049 8.049 0 0 1-1 2.428 1.7 1.7 0 0 1-.98.807.5.5 0 0 1-.27-.033.455.455 0 0 1-.32-.427 2.973 2.973 0 0 1 .07-.894q.1-.546.39-1.533l.12-.437a4.382 4.382 0 0 0 .36-1.928.6.6 0 0 0-.1-.32.464.464 0 0 0-.37-.309 1.662 1.662 0 0 0-.67-.05 1.06 1.06 0 0 0-.35.086l-.26.72-.5 1.391a11.949 11.949 0 0 0-.47 1.987 7.517 7.517 0 0 0-.04 1.578c-.01.208 0 .348 0 .42a1.736 1.736 0 0 0 .87 1.268 1.3 1.3 0 0 0 1.12.439 2.394 2.394 0 0 0 1.14-.584 3.763 3.763 0 0 0 .92-.866.948.948 0 0 0 .22-.348c.07-.164.12-.315.17-.453.01.073.02.193.04.36a1.264 1.264 0 0 0 .09.377 9.515 9.515 0 0 0 .42.935 1.336 1.336 0 0 0 .38.475zm2.54 1.638a3.966 3.966 0 0 0 .43-.075.457.457 0 0 0 .25-.12 1.114 1.114 0 0 1 .12-.125.336.336 0 0 1 .18-.112 2.321 2.321 0 0 0 .53-.685 4.4 4.4 0 0 0 .5-.9 3.223 3.223 0 0 0 .24-1.449 2.7 2.7 0 0 0-.1-.431c-.22-.77-.51-1.134-.84-1.093a1.108 1.108 0 0 0-.57.4.809.809 0 0 0-.04.56c-.08.66-.15 1.1-.19 1.331a7.071 7.071 0 0 1-.95 1.845 1.46 1.46 0 0 0-.21.292.464.464 0 0 0-.06.273.706.706 0 0 0 .71.29zm-117.09 29.856a8.5 8.5 0 0 0-1.01-3.212 3.47 3.47 0 0 0-2.43-1.53 1.559 1.559 0 0 0-.86-.117 3.16 3.16 0 0 0-.66.171 1.837 1.837 0 0 0-.84.469.883.883 0 0 0-.23.727 1.492 1.492 0 0 0 .27.431 1.119 1.119 0 0 0 .43.258 2.179 2.179 0 0 1 .83-.28 2.6 2.6 0 0 1 1.15.126 2.309 2.309 0 0 1 .96.613 3.589 3.589 0 0 1 .55 1.816 15.725 15.725 0 0 1 .12 2.358 3.369 3.369 0 0 0-.42-.315 1.178 1.178 0 0 0-.42-.159 2.435 2.435 0 0 0-.69-.026 3.173 3.173 0 0 0-.8.21 2.481 2.481 0 0 0-.62.341 5.614 5.614 0 0 0-1.31 1.325 4.891 4.891 0 0 0-.82 1.53c-.14.387-.26.761-.36 1.119a2.869 2.869 0 0 0-.08 1.041c.01.088.04.284.08.588a1.851 1.851 0 0 0 .26.745 1.616 1.616 0 0 0 .64 1.073 2.747 2.747 0 0 0 1.03.484 1.538 1.538 0 0 0 .84.107 5.327 5.327 0 0 0 2.82-2.5 11.186 11.186 0 0 0 1.41-4.23 5.738 5.738 0 0 0 .25-1.582 7.3 7.3 0 0 0-.09-1.585zm-2.92 5.811q-.09.144-.39.68a9.311 9.311 0 0 1-.7 1.051 1.325 1.325 0 0 1-.84.568.4.4 0 0 1-.4-.218 1.531 1.531 0 0 1-.19-.618 2.578 2.578 0 0 1 .12-1.3 7.207 7.207 0 0 1 1.36-2.3 3.963 3.963 0 0 1 .71-.553 1.759 1.759 0 0 1 .63-.255.332.332 0 0 1 .42.326 3.394 3.394 0 0 1-.16 1.227 5.667 5.667 0 0 1-.56 1.388zm5.79 2.9a9.538 9.538 0 0 0 1.17-.276 2.321 2.321 0 0 0 .78-.452 8.713 8.713 0 0 0 1.12-1.023 6.468 6.468 0 0 0 .86-1.281 5.981 5.981 0 0 0 .81-3.513 2.921 2.921 0 0 0-.08-.434 2.365 2.365 0 0 0-.4-.948 1.4 1.4 0 0 0-.77-.482 1.326 1.326 0 0 0-1.02-.228 3.459 3.459 0 0 0-.84.214 4.82 4.82 0 0 0-1.83 1.377 6.637 6.637 0 0 0-.73 1 11.855 11.855 0 0 0-.59 1.07 6 6 0 0 0-.37 1.153 1.962 1.962 0 0 0-.06.783c.05.157.03.241-.05.251a.191.191 0 0 1-.06.085.061.061 0 0 0-.03.071.208.208 0 0 0 .1.109 1.356 1.356 0 0 0 .03.2.666.666 0 0 1-.01.313 1.391 1.391 0 0 0 .28.841 3.782 3.782 0 0 0 .79.866 3.164 3.164 0 0 0 .48.274.829.829 0 0 0 .42.037zm1.9-2.938a2.127 2.127 0 0 1-1.17.9c-.35.043-.56-.183-.62-.678a1.281 1.281 0 0 1-.01-.265 4.439 4.439 0 0 1 .51-1.714 7.652 7.652 0 0 1 1.11-1.521 1.424 1.424 0 0 1 .6-.384.409.409 0 0 1 .27.055.661.661 0 0 1 .22.571 1.6 1.6 0 0 1-.03.8c-.15.67-.28 1.139-.37 1.409a2.425 2.425 0 0 1-.51.827zm12.31-13.127a1.823 1.823 0 0 0-.77-.4.8.8 0 0 0-.65 0l-.47.19c-.19.068-.4.145-.6.229a1 1 0 0 0-.4.249c-.07.082-.24.273-.53.575-.35.368-.66.7-.91 1.009a3.667 3.667 0 0 0-.56.922 3.506 3.506 0 0 0-.43.574c-.11.2-.25.455-.4.77l-.36.665a5.724 5.724 0 0 0-.41.936q-.255.7-.36 1.087a2.046 2.046 0 0 1-.43.695.934.934 0 0 0-.22.892l.05.237a1.126 1.126 0 0 1-.02.412 3.306 3.306 0 0 1-.1.4l-.14.483q-.03.114-.12.845c-.06.488-.12 1.245-.19 2.273a.894.894 0 0 0-.02.379 2.841 2.841 0 0 0 .21.717 4.723 4.723 0 0 0 .39.7 1.69 1.69 0 0 0 .74.563 1.668 1.668 0 0 0 .83.1l.45-.067.57-.468a8.188 8.188 0 0 0 .92-.878 5.178 5.178 0 0 0 .54-1.054 4.767 4.767 0 0 0 .34-.9 9.113 9.113 0 0 0 .17-.93 4.672 4.672 0 0 1 .15-.794 2.846 2.846 0 0 1-.03-.428c-.01-.155-.01-.321-.02-.5a1.134 1.134 0 0 0 .01-.246.631.631 0 0 0-.25-.456 3.043 3.043 0 0 0-1.27-.554l.21-.136a8.886 8.886 0 0 0 1.64-1.464 11.106 11.106 0 0 0 1.6-1.727 7.243 7.243 0 0 0 .98-1.761c.03-.107.09-.3.19-.587s.15-.541.2-.768a1.682 1.682 0 0 0 .03-.625 2.561 2.561 0 0 0-.56-1.15zm-1.29 2.486a5.661 5.661 0 0 1-.67 1.246 10.182 10.182 0 0 1-1.28 1.554 6.924 6.924 0 0 1-1.71 1.285h-.16a14.868 14.868 0 0 1 2.54-4.014 11.158 11.158 0 0 1 1.45-1.618.624.624 0 0 1 .07.235 3.037 3.037 0 0 1-.24 1.315zm-3.33 7.9a5.265 5.265 0 0 0-.19.755 4.873 4.873 0 0 1-.51 1.68 1.591 1.591 0 0 1-.29.435.481.481 0 0 1-.25.164c-.11.013-.16-.046-.18-.177a10.958 10.958 0 0 1 .08-1.673 6.9 6.9 0 0 1 .2-1.443 1.03 1.03 0 0 0 .16-.507c.03-.24.05-.406.07-.5a.529.529 0 0 1 .27-.343l.38-.179-.07.384a1.849 1.849 0 0 1 .19.465c.03.129.08.441.14.936zm5.76 3.793a9.313 9.313 0 0 0 1.16-.276 2.363 2.363 0 0 0 .79-.452 9.288 9.288 0 0 0 1.11-1.023 6.062 6.062 0 0 0 .86-1.281 5.833 5.833 0 0 0 .81-3.513 3.3 3.3 0 0 0-.07-.434 2.515 2.515 0 0 0-.41-.948 1.368 1.368 0 0 0-.77-.482 1.326 1.326 0 0 0-1.02-.228 3.459 3.459 0 0 0-.84.214 4.8 4.8 0 0 0-1.82 1.377 5.982 5.982 0 0 0-.74 1 9.436 9.436 0 0 0-.58 1.07 4.873 4.873 0 0 0-.37 1.153 1.633 1.633 0 0 0-.06.783c.05.157.03.241-.06.251a.191.191 0 0 1-.06.085.117.117 0 0 0-.03.071.279.279 0 0 0 .1.109c0 .029.02.094.04.2a.671.671 0 0 1-.02.313 1.46 1.46 0 0 0 .28.841 3.782 3.782 0 0 0 .79.866 3.164 3.164 0 0 0 .48.274.857.857 0 0 0 .43.037zm1.9-2.938a2.108 2.108 0 0 1-1.18.9c-.35.043-.55-.183-.61-.678a.825.825 0 0 1-.01-.265 4.265 4.265 0 0 1 .5-1.714 8.54 8.54 0 0 1 1.11-1.521 1.424 1.424 0 0 1 .6-.384.409.409 0 0 1 .27.055.658.658 0 0 1 .23.571 1.46 1.46 0 0 1-.04.8 12.737 12.737 0 0 1-.37 1.409 2.549 2.549 0 0 1-.5.827zm10.76-6.221a1.6 1.6 0 0 0-.8-.567 2.784 2.784 0 0 0-1.14-.082 2.554 2.554 0 0 0-.69.174 9.1 9.1 0 0 1-.89.265q-.75.2-1.14.339a.638.638 0 0 0-.44.741l.4.926a2.52 2.52 0 0 0 .3.119c.03.011.12.029.26.057a15.183 15.183 0 0 1-.54 1.551c-.37.858-.69 1.54-.95 2.045a2.232 2.232 0 0 1-.33.473 5.994 5.994 0 0 1-.52.529c-.21.2-.37.345-.48.447a.664.664 0 0 0-.2 0 .452.452 0 0 0-.36.311 1.7 1.7 0 0 0-.23.35.561.561 0 0 0-.02.3l.14.249a3.422 3.422 0 0 1 .38.308 1.232 1.232 0 0 0 .58.305c.08-.009.17-.017.29-.024a1.173 1.173 0 0 0 .32-.062.668.668 0 0 0 .27-.177l.61-.607.69-.861.22-.381a10.487 10.487 0 0 0 .72-1.552c.37-1 .63-1.78.79-2.324a9.572 9.572 0 0 0 .33-1.581.562.562 0 1 1 .97.545l-.1.611q-.135.838-.33 2.024t-.33 2a1.547 1.547 0 0 0-.06.562 2.381 2.381 0 0 0 .25.633 1.265 1.265 0 0 0 .86.272.677.677 0 0 0 .19-.068 2.986 2.986 0 0 0 .56-.412.882.882 0 0 0 .2-.59 6.984 6.984 0 0 1 .14-.881c.06-.244.09-.433.11-.568a5.6 5.6 0 0 0 .21-1.167c.16-.987.27-1.781.35-2.382a1.547 1.547 0 0 1-.06-.4 4.813 4.813 0 0 0-.14-.726 1.726 1.726 0 0 0-.39-.728zm8.07 2.8a1.845 1.845 0 0 0-.29-.45 2.577 2.577 0 0 0-.42-.371c-.15-.114-.27-.2-.35-.267a2.908 2.908 0 0 0-.92-.419 2.233 2.233 0 0 0-1.01-.12l-.09-.011c.28-.492.49-.866.64-1.12a1.862 1.862 0 0 1 .14-.228 1.656 1.656 0 0 0 .18-.365 1.119 1.119 0 0 0 .03-.492 1.176 1.176 0 0 0-.37-.52 5.32 5.32 0 0 1-.27-.2.822.822 0 0 0-.47-.231 1.476 1.476 0 0 1-.32-.049l-.37.179c-.04.064-.12.195-.23.394a1.242 1.242 0 0 0-.18.653 3.819 3.819 0 0 0-.57 1.045 5.594 5.594 0 0 0-.39 1.2 3.267 3.267 0 0 1-.17.409 1.23 1.23 0 0 0-.13.625 6.89 6.89 0 0 0-.42 1.537 5.85 5.85 0 0 0-.08 1.562 1.659 1.659 0 0 0 .4.9 2.386 2.386 0 0 0 .82.585 1.967 1.967 0 0 0 .9.068 6.589 6.589 0 0 0 1.7-.419 6.434 6.434 0 0 0 1.46-.879 4.288 4.288 0 0 0 .78-.882 1.95 1.95 0 0 0 .37-1.009.682.682 0 0 0 0-.289 1.907 1.907 0 0 0-.14-.492 1.218 1.218 0 0 0-.23-.35zm-1.54.456a1.442 1.442 0 0 1-.67.97 3.083 3.083 0 0 0-.41.293 1.258 1.258 0 0 1-.5.261q-.165.066-.45.166a3.766 3.766 0 0 1-.53.154c.02-.313.06-.661.12-1.046a3.15 3.15 0 0 1 .19-.743.577.577 0 0 0 .15-.417v-.022a.049.049 0 0 1 .04-.061 2.723 2.723 0 0 0 .25-.108.731.731 0 0 1 .5-.061 1.578 1.578 0 0 0 .34.047l.06-.008a.954.954 0 0 1 .6.125.407.407 0 0 1 .31.45zm10.36-4.576a1.156 1.156 0 0 0 .03-.357.922.922 0 0 0-.41-.66 1.074 1.074 0 0 0-.78-.191 1.477 1.477 0 0 0-.62.252 4.655 4.655 0 0 0-.23.66.876.876 0 0 1-.02.191 5.269 5.269 0 0 0-.34 1.151 3.75 3.75 0 0 0-.13.592 3.724 3.724 0 0 1-.18.665 3.182 3.182 0 0 0-.73.023 3.768 3.768 0 0 0-.76.16 2.541 2.541 0 0 0-.41.1c-.18.06-.34.105-.47.136l.72-2.659a.853.853 0 0 0 .03-.281 1.846 1.846 0 0 0-.02-.3.894.894 0 0 0-.45-.642 1.2 1.2 0 0 0-.84-.152.634.634 0 0 0-.58.515c-.04.167-.1.489-.19.965s-.15.738-.17.786c-.03.107-.08.29-.14.549a5.972 5.972 0 0 0-.15.7 11.283 11.283 0 0 0-.34 1.372l-.16.707-.1.589a1.792 1.792 0 0 1-.03.335 2.413 2.413 0 0 1-.05.295l-.14 1.724.12.295a1.81 1.81 0 0 0 1.24.513.617.617 0 0 0 .47-.313 1.261 1.261 0 0 0 .13-.736 4.588 4.588 0 0 1 .02-.6l.01-.6a2.994 2.994 0 0 1 .06-.627q.045-.294.09-.489c.03-.128.06-.231.08-.308a3.915 3.915 0 0 0 .77-.028 1.858 1.858 0 0 0 .69-.173c.05-.022.14-.051.25-.087a4.287 4.287 0 0 1 .5-.116l.36-.112q-.06.452-.21 1.334a3.633 3.633 0 0 0-.07.74.787.787 0 0 0 .18.4 1.734 1.734 0 0 0 .24.147 2.44 2.44 0 0 0 .37.11c.17.039.3.067.39.086a1.457 1.457 0 0 0 .47-.235.882.882 0 0 0 .22-.492l.07-.519a6.279 6.279 0 0 0 .12-1.124q.015-.267.06-.649l.67-.326.2-.357a.9.9 0 0 0-.52-.913 2.311 2.311 0 0 1 .1-.332c.04-.131.1-.312.17-.543l.21-.491a2.657 2.657 0 0 0 .2-.69zm4.94.746a6.867 6.867 0 0 0-1.29 1.266c.04-.138.09-.291.13-.459s.1-.351.15-.55a17.556 17.556 0 0 0 .6-2.312 1.538 1.538 0 0 0-.37-.675 1.089 1.089 0 0 0-.78-.182l-.28.256-.33 1.282a5 5 0 0 0-.35 1c-.12.443-.27 1.083-.46 1.919l-.33 1.326a5.546 5.546 0 0 0-.12.858c-.04.373-.07.613-.08.718a2.447 2.447 0 0 0 0 .4.85.85 0 0 0 .31.616 1.37 1.37 0 0 0 .77.183.681.681 0 0 0 .44-.676.8.8 0 0 0 .39.574 1.717 1.717 0 0 0 .45.255.9.9 0 0 0 .42.036 6.025 6.025 0 0 0 1.11-.358 4.318 4.318 0 0 0 1.01-.612 4.533 4.533 0 0 0 .82-.765 4.781 4.781 0 0 0 1.09-1.973 3.382 3.382 0 0 0-.02-.641 2.751 2.751 0 0 0-.2-.751 1.227 1.227 0 0 0-.58-.982 1.882 1.882 0 0 0-1.21-.195 3.541 3.541 0 0 0-1.29.447zm6.59-3.138a1.488 1.488 0 0 0-1.1-.485.906.906 0 0 0-.61.408c-.01.135-.06.525-.14 1.169s-.2 1.422-.38 2.331c-.13.458-.2.734-.24.826a16.168 16.168 0 0 0-.34 1.749c-.01.12-.04.323-.08.608a3.759 3.759 0 0 0 0 .887 1.417 1.417 0 0 0 .58.76 2 2 0 0 0 1.02.152.975.975 0 0 0 .33-.417.683.683 0 0 0 .01-.423 5.639 5.639 0 0 1 .16-1.416c.02-.269.18-1.082.46-2.439s.47-2.175.56-2.451a1.372 1.372 0 0 0 .04-.538 2.05 2.05 0 0 0-.27-.721zm-5.68 6.262a2.3 2.3 0 0 1-.75.78 2.326 2.326 0 0 1-.98.409.765.765 0 0 1-.39-.042l-.24.008a10.3 10.3 0 0 1 .74-1.355 10.827 10.827 0 0 1 1.13-1.269c.03-.033.09-.1.2-.213a3.192 3.192 0 0 1 .67-.449 1.274 1.274 0 0 0 .16.181.34.34 0 0 1 .11.164 3.366 3.366 0 0 1-.65 1.786zm10.15 1.17a2.925 2.925 0 0 0 1.45-.6 4.436 4.436 0 0 0 1.02-1.079 2.1 2.1 0 0 0 .39-.845.88.88 0 0 0-.35-.467.733.733 0 0 0-.49-.206.715.715 0 0 0-.36.133 3.065 3.065 0 0 0-.38.357 5.257 5.257 0 0 1-.76.648 1.612 1.612 0 0 1-.59.228 1.186 1.186 0 0 1-.83-.143 1.283 1.283 0 0 1-.44-.81 2.884 2.884 0 0 1-.02-.818.4.4 0 0 1 .39-.291 4.35 4.35 0 0 1 .63.021 5.161 5.161 0 0 0 1.03-.026 2.683 2.683 0 0 0 1.63-.888 3.769 3.769 0 0 0 .81-1.429 3.012 3.012 0 0 0 .19-1l-.01-.066-.01-.109a1.587 1.587 0 0 0-.32-.693 2.02 2.02 0 0 0-.88-.645 2.839 2.839 0 0 0-1.49-.15 2.477 2.477 0 0 0-.64.157 4.127 4.127 0 0 0-.67.359 4.2 4.2 0 0 0-1.4 1.48 8.278 8.278 0 0 0-.83 1.92 5.362 5.362 0 0 0-.25 1.493c.01.413.03.787.07 1.122a2.58 2.58 0 0 0 1.01 1.893 2.9 2.9 0 0 0 2.1.452zm.11-5.356a2.7 2.7 0 0 1-.66 0 .4.4 0 0 1-.35-.146 5.341 5.341 0 0 1 .79-1.195 1.564 1.564 0 0 1 .77-.57l.24-.029a1.044 1.044 0 0 1 .53.122.434.434 0 0 1 .23.338 1.608 1.608 0 0 1-.39.68 3.037 3.037 0 0 1-.6.638 1.248 1.248 0 0 1-.56.158zm20.43-3.862a.681.681 0 0 0 .04-.382.961.961 0 0 0-.27-.565.736.736 0 0 1-.25-.247.7.7 0 0 0-.36-.232.587.587 0 0 0-.29-.053.93.93 0 0 0-.47.324 48.477 48.477 0 0 0-2.95 4 2.552 2.552 0 0 0-.23-.969 3.353 3.353 0 0 1-.2-.708 6.524 6.524 0 0 1-.27-.764c0-.058 0-.147.01-.268l-.17-.333c-.07-.051-.14-.115-.23-.193a3.809 3.809 0 0 0-.32-.238 1.36 1.36 0 0 0-.41-.182.919.919 0 0 0-.22 0 .664.664 0 0 0-.68.637l-.09.3a2.349 2.349 0 0 0-.51.661 4.517 4.517 0 0 0-.39.691 4.14 4.14 0 0 0-.51.948 5.241 5.241 0 0 1-.28.489c-.14.232-.58 1.11-1.33 2.635a.679.679 0 0 0-.32.46 2.013 2.013 0 0 0 .28.841 1.622 1.622 0 0 0 .67.417.531.531 0 0 0 .38.131.825.825 0 0 0 .56-.667 1.873 1.873 0 0 1 .28-.723l2-4.345a5.251 5.251 0 0 1 .5 1.745c.1.733.16 1.143.17 1.231a3.519 3.519 0 0 0 .01.376.983.983 0 0 0 .39.705 2.3 2.3 0 0 0 .68.427.99.99 0 0 0 .45-.21.827.827 0 0 0 .21-.514 1.9 1.9 0 0 1 .19-.511c.1-.19.23-.4.38-.645.1-.16.3-.517.62-1.074a1.7 1.7 0 0 0 .19-.289 1.1 1.1 0 0 1 .14-.239c.14-.224.23-.368.28-.434a13.208 13.208 0 0 0-.01 1.908l.06.281a.473.473 0 0 0 .02.308 2.333 2.333 0 0 0 .08.344 1.68 1.68 0 0 0 .1.52 3.232 3.232 0 0 0 .25.534c.12.2.21.363.28.487a.909.909 0 0 0 .4.384 1.148 1.148 0 0 0 .59.049 1.072 1.072 0 0 0 .5-.317.682.682 0 0 0 .1-.533 4.261 4.261 0 0 0-.2-.773 3.306 3.306 0 0 1-.19-.775c-.02-.2-.05-.54-.08-1.01a16.32 16.32 0 0 1 .14-1.879 12.72 12.72 0 0 1 .28-1.763zm2.46 5.926a1.545 1.545 0 0 0 .88.136c.93-.115 2.06-1.021 3.37-2.719a4.689 4.689 0 0 0 .43-.63 2.859 2.859 0 0 0 .23.461 3.874 3.874 0 0 0 .28.452 2.71 2.71 0 0 0 1.06 1 2.148 2.148 0 0 0 1.2.185c.08-.011.24-.045.47-.1a.762.762 0 0 0 .38-.356 1.288 1.288 0 0 0 .08-.742.484.484 0 0 0-.54-.422 1.156 1.156 0 0 1-.51-.114.915.915 0 0 1-.34-.335 2.914 2.914 0 0 1-.65-1.494 3.725 3.725 0 0 1 .06-1.138l.24-1.137-.9-.622c-.06-.05-.34-.231-.82-.542l-.65-.429a1.358 1.358 0 0 0-.93-.2 1.555 1.555 0 0 0-.86.394 7.562 7.562 0 0 0-1.08 1.152 5.791 5.791 0 0 0-.74 1.043l-.13.371a.194.194 0 0 0-.14.1.283.283 0 0 0-.05.172 1.852 1.852 0 0 0-.22.405 3.164 3.164 0 0 1-.29.5c-.35.931-.63 1.733-.83 2.408a1.458 1.458 0 0 0-.1 1.165c.07.08.14.171.22.272a.588.588 0 0 1 .13.239 1.012 1.012 0 0 0 .34.224 1.188 1.188 0 0 1 .41.3zm.98-1.96c.02-.091.06-.284.13-.581a4.553 4.553 0 0 1 .29-.867 17.564 17.564 0 0 1 1.28-2.54 1.787 1.787 0 0 1 1-.91.518.518 0 0 1 .37.121 2.1 2.1 0 0 1 .47.6l-.38.845a6.365 6.365 0 0 1-.59.9q-.3.381-.84.958c-.1.1-.18.195-.26.286l-.21.237a2.638 2.638 0 0 1-1.26.952zm18.34-6.641a.783.783 0 0 0 .04-.382 1.1 1.1 0 0 0-.27-.565.736.736 0 0 1-.25-.247.7.7 0 0 0-.36-.232.594.594 0 0 0-.3-.053.972.972 0 0 0-.47.324 47.308 47.308 0 0 0-2.94 4 2.779 2.779 0 0 0-.23-.969 2.784 2.784 0 0 1-.2-.708 4.015 4.015 0 0 1-.27-.764.845.845 0 0 1 .01-.268l-.18-.333c-.06-.051-.14-.115-.23-.193a3.809 3.809 0 0 0-.32-.238 1.258 1.258 0 0 0-.41-.182.926.926 0 0 0-.22 0 .655.655 0 0 0-.67.637l-.1.3a2.349 2.349 0 0 0-.51.661 4.517 4.517 0 0 0-.39.691 3.68 3.68 0 0 0-.5.948c-.05.095-.14.258-.29.489s-.58 1.11-1.32 2.635a.65.65 0 0 0-.32.46 1.762 1.762 0 0 0 .28.841 1.5 1.5 0 0 0 .67.417.5.5 0 0 0 .37.131.825.825 0 0 0 .56-.667 1.735 1.735 0 0 1 .29-.723l1.99-4.345a5.251 5.251 0 0 1 .5 1.745q.165 1.1.18 1.231a2.255 2.255 0 0 0 0 .376 1.03 1.03 0 0 0 .4.705 2.323 2.323 0 0 0 .67.427.9.9 0 0 0 .45-.21.827.827 0 0 0 .21-.514 1.663 1.663 0 0 1 .2-.511c.1-.19.22-.405.37-.645.1-.16.31-.517.62-1.074a1.7 1.7 0 0 0 .19-.289 1.717 1.717 0 0 1 .15-.239 4.512 4.512 0 0 1 .28-.434 13.208 13.208 0 0 0-.01 1.908l.05.281a.561.561 0 0 0 .02.308 1.992 1.992 0 0 0 .09.344 1.683 1.683 0 0 0 .09.52 3.373 3.373 0 0 0 .26.534c.11.2.2.363.28.487a.844.844 0 0 0 .39.384.949.949 0 0 0 1.1-.268.726.726 0 0 0 .1-.533 4.532 4.532 0 0 0-.21-.773 3.32 3.32 0 0 1-.18-.775c-.03-.2-.05-.54-.08-1.01a13.743 13.743 0 0 1 .13-1.879 12.212 12.212 0 0 1 .29-1.763zm5.38.38a6.867 6.867 0 0 0-1.29 1.266c.05-.138.09-.291.14-.459s.09-.351.14-.55a15.859 15.859 0 0 0 .6-2.312 1.538 1.538 0 0 0-.37-.675 1.089 1.089 0 0 0-.78-.182l-.27.256-.33 1.282a4.365 4.365 0 0 0-.36 1c-.11.443-.27 1.083-.46 1.919l-.33 1.326a5.546 5.546 0 0 0-.12.858c-.04.373-.06.613-.08.718-.01.208 0 .341 0 .4a.85.85 0 0 0 .31.616 1.37 1.37 0 0 0 .77.183.7.7 0 0 0 .45-.676.755.755 0 0 0 .38.574 1.891 1.891 0 0 0 .45.255.9.9 0 0 0 .42.036 6.025 6.025 0 0 0 1.11-.358 4.318 4.318 0 0 0 1.01-.612 4.533 4.533 0 0 0 .82-.765 4.781 4.781 0 0 0 1.09-1.973 3.382 3.382 0 0 0-.02-.641 2.751 2.751 0 0 0-.2-.751 1.244 1.244 0 0 0-.57-.982 1.906 1.906 0 0 0-1.21-.195 3.524 3.524 0 0 0-1.3.447zm6.6-3.138a1.522 1.522 0 0 0-1.11-.485.906.906 0 0 0-.61.408c-.01.135-.06.525-.13 1.169s-.21 1.422-.39 2.331c-.12.458-.2.734-.23.826a12.433 12.433 0 0 0-.34 1.749c-.02.12-.05.323-.08.608a3.747 3.747 0 0 0-.01.887 1.417 1.417 0 0 0 .58.76 2 2 0 0 0 1.02.152.975.975 0 0 0 .33-.417.618.618 0 0 0 .01-.423 6.146 6.146 0 0 1 .16-1.416c.03-.269.18-1.082.46-2.439s.47-2.175.56-2.451a1.207 1.207 0 0 0 .04-.538 1.837 1.837 0 0 0-.26-.721zm-5.68 6.262a2.687 2.687 0 0 1-1.74 1.189.713.713 0 0 1-.38-.042l-.25.008a11.641 11.641 0 0 1 .74-1.355 11.87 11.87 0 0 1 1.13-1.269c.03-.033.09-.1.2-.213a3.04 3.04 0 0 1 .68-.448.789.789 0 0 0 .15.18.34.34 0 0 1 .11.164 3.335 3.335 0 0 1-.64 1.786zm8.31-2.418q.675-.082 1.32-.218c.43-.09.69-.139.76-.148l1.51-.3a.666.666 0 0 0 .5-.173.459.459 0 0 0 .16-.418.611.611 0 0 0-.25-.434 2.167 2.167 0 0 0-1.58-.271 14.06 14.06 0 0 0-3.02.681c-.81.188-1.19.405-1.16.652a.437.437 0 0 0 .14.271.84.84 0 0 0 .84.34 2.448 2.448 0 0 0 .78.015zm-82.36 33.53a1.121 1.121 0 0 0 .02-.357.906.906 0 0 0-.4-.66 1.117 1.117 0 0 0-.79-.192 1.459 1.459 0 0 0-.61.253 2.861 2.861 0 0 0-.23.66c-.01.082-.01.145-.02.191a5.29 5.29 0 0 0-.35 1.15 3.525 3.525 0 0 0-.12.592 3.521 3.521 0 0 1-.19.666 3.135 3.135 0 0 0-.73.023 3.661 3.661 0 0 0-.75.159 2.33 2.33 0 0 0-.41.106c-.19.06-.34.105-.47.135l.71-2.659a.517.517 0 0 0 .03-.281 2.213 2.213 0 0 0-.01-.3.909.909 0 0 0-.46-.643 1.166 1.166 0 0 0-.83-.151.633.633 0 0 0-.58.514c-.04.168-.11.489-.2.966a5.607 5.607 0 0 1-.17.785c-.03.108-.07.291-.14.55s-.11.494-.14.705a10.815 10.815 0 0 0-.35 1.372l-.15.706-.11.589c0 .119-.01.231-.02.336s-.04.2-.06.295l-.14 1.724.13.3a1.806 1.806 0 0 0 1.23.513.62.62 0 0 0 .48-.313 1.263 1.263 0 0 0 .13-.737 5.09 5.09 0 0 1 .01-.6l.02-.6a2.29 2.29 0 0 1 .05-.628c.04-.2.07-.359.1-.488s.05-.232.07-.308a3.923 3.923 0 0 0 .77-.029 1.818 1.818 0 0 0 .69-.173c.06-.021.14-.05.26-.087a4.812 4.812 0 0 1 .49-.116l.36-.111q-.045.45-.21 1.334a2.842 2.842 0 0 0-.06.739.779.779 0 0 0 .18.4 1.077 1.077 0 0 0 .24.148 2.123 2.123 0 0 0 .37.11c.16.039.29.067.38.085a1.323 1.323 0 0 0 .47-.235.819.819 0 0 0 .22-.492l.07-.518a6.494 6.494 0 0 0 .13-1.124c.01-.178.02-.395.05-.649l.67-.326.2-.358a.879.879 0 0 0-.51-.912q.03-.137.09-.333t.18-.542c.03-.093.1-.257.2-.491a2.366 2.366 0 0 0 .21-.69zm1.99 6.3a1.54 1.54 0 0 0 .88.135q1.395-.171 3.36-2.719a4.895 4.895 0 0 0 .44-.629 2.591 2.591 0 0 0 .22.46 2.713 2.713 0 0 0 .29.452 2.684 2.684 0 0 0 1.05 1 2.176 2.176 0 0 0 1.2.186 4.077 4.077 0 0 0 .47-.1.723.723 0 0 0 .38-.357 1.2 1.2 0 0 0 .09-.742.483.483 0 0 0-.54-.421 1.08 1.08 0 0 1-.51-.115.841.841 0 0 1-.34-.335 2.751 2.751 0 0 1-.65-1.494 3.182 3.182 0 0 1 .06-1.137l.23-1.138-.89-.621a27.77 27.77 0 0 0-.82-.542l-.65-.43a1.4 1.4 0 0 0-.94-.2 1.594 1.594 0 0 0-.86.394 7.661 7.661 0 0 0-1.08 1.152 5.521 5.521 0 0 0-.73 1.044l-.13.371a.211.211 0 0 0-.15.1.271.271 0 0 0-.04.172 1.662 1.662 0 0 0-.23.4 3.333 3.333 0 0 1-.28.5q-.54 1.4-.84 2.407a1.508 1.508 0 0 0-.1 1.165 3.088 3.088 0 0 1 .22.272.485.485 0 0 1 .13.239 1.158 1.158 0 0 0 .34.225 1.366 1.366 0 0 1 .42.3zm.97-1.96c.02-.091.07-.285.13-.581a5.317 5.317 0 0 1 .29-.867 18.522 18.522 0 0 1 1.29-2.541 1.73 1.73 0 0 1 1-.909.5.5 0 0 1 .36.121 2.25 2.25 0 0 1 .48.6l-.39.846a7.387 7.387 0 0 1-.58.9c-.2.254-.48.573-.85.957-.09.1-.18.2-.25.286s-.15.17-.22.237a2.643 2.643 0 0 1-1.26.953zm19.35-2.377a1.608 1.608 0 0 0-.3.125.8.8 0 0 1-.25.1.256.256 0 0 1-.23-.082 7.43 7.43 0 0 1-.07-1.234 7.353 7.353 0 0 1 .17-1.195c.04-.212.08-.424.11-.634a1.8 1.8 0 0 0-.02-.574 1.588 1.588 0 0 0-1.13-.947.458.458 0 0 0-.48.191 4.022 4.022 0 0 0-.39.713 2.392 2.392 0 0 1-.21.447l-.76 1.224a1.435 1.435 0 0 0-.18.289l-.3.479-1.21 1.5a.991.991 0 0 1-.14-.426 3.437 3.437 0 0 1 .29-1.587 4.009 4.009 0 0 0 .36-1.6.5.5 0 0 0-.08-.256 1.667 1.667 0 0 0-.42-.525 2.711 2.711 0 0 0-.68-.359.767.767 0 0 0-.51.15.608.608 0 0 0-.2.446 3.343 3.343 0 0 1-.4.891l-.51.905c-.31.571-.49.881-.52.93l-.36.509c-.21.262-.38.5-.52.706a.7.7 0 0 1-.5.394.646.646 0 0 1-.2-.019 5.428 5.428 0 0 1 .21-.713c.09-.263.17-.464.22-.6a4.92 4.92 0 0 1 .23-.8 2.243 2.243 0 0 1 .37-.623 2.675 2.675 0 0 0 .35-.952 1.007 1.007 0 0 0-.45-.72 1.374 1.374 0 0 0-.9-.333c-.43.054-.84.739-1.21 2.055-.32 1-.52 1.661-.62 1.982a3.351 3.351 0 0 0-.07 1.561 2.682 2.682 0 0 0 .35.866 1.723 1.723 0 0 0 .56.54c.24.142.4.243.5.3a.854.854 0 0 0 .44.034 1.371 1.371 0 0 0 .52-.152c.13-.134.35-.4.67-.814a9.26 9.26 0 0 1 .82-.921l.57-.757q.165.379.48 1a1.73 1.73 0 0 0 .49.517 2.79 2.79 0 0 0 .71.422 2.9 2.9 0 0 0 .36 0 1.539 1.539 0 0 0 .99-.609q.18-.245.66-.846c.31-.4.59-.763.83-1.088a2.188 2.188 0 0 0 .85 1.358c.03.026.15.129.35.312a1.412 1.412 0 0 0 .88.313 1.52 1.52 0 0 0 .89-.353 1.042 1.042 0 0 0 .23-.8.9.9 0 0 0-.2-.485.753.753 0 0 0-.44-.256zm2.44 1.54a1.545 1.545 0 0 0 .88.136c.93-.115 2.06-1.021 3.37-2.719a4.689 4.689 0 0 0 .43-.63 3.571 3.571 0 0 0 .22.46 3.621 3.621 0 0 0 .29.453 2.71 2.71 0 0 0 1.06 1 2.127 2.127 0 0 0 1.19.185 4.605 4.605 0 0 0 .48-.1.8.8 0 0 0 .38-.356 1.288 1.288 0 0 0 .08-.742.484.484 0 0 0-.54-.422 1.124 1.124 0 0 1-.51-.114.915.915 0 0 1-.34-.335 2.834 2.834 0 0 1-.65-1.494 3.724 3.724 0 0 1 .06-1.138l.24-1.137-.9-.622c-.06-.05-.34-.231-.82-.542l-.65-.429a1.358 1.358 0 0 0-.93-.2 1.555 1.555 0 0 0-.86.394 7.562 7.562 0 0 0-1.08 1.152 5.268 5.268 0 0 0-.74 1.043l-.13.371a.177.177 0 0 0-.14.095.23.23 0 0 0-.05.172 2.152 2.152 0 0 0-.23.4 2.611 2.611 0 0 1-.28.5c-.36.931-.63 1.733-.83 2.408a1.459 1.459 0 0 0-.1 1.165c.07.08.14.171.22.272a.588.588 0 0 1 .13.239.89.89 0 0 0 .34.224 1.188 1.188 0 0 1 .41.3zm.98-1.96c.02-.091.06-.285.13-.581a3.947 3.947 0 0 1 .29-.867 17.639 17.639 0 0 1 1.28-2.541 1.788 1.788 0 0 1 1-.909.518.518 0 0 1 .37.121 2.1 2.1 0 0 1 .47.6l-.38.845a7.373 7.373 0 0 1-.59.9c-.2.254-.48.573-.85.958-.09.1-.17.2-.25.286l-.21.237a2.733 2.733 0 0 1-1.26.952zm14.44 5.7a.857.857 0 0 0 .55-.489 1.6 1.6 0 0 0 .22-.981.742.742 0 0 1 .06-.649.315.315 0 0 0 .13-.271 1.833 1.833 0 0 0 .01-.523 1.673 1.673 0 0 0 .09-.532 2.418 2.418 0 0 0 0-.543.829.829 0 0 0 .07-.384c-.01-.162-.01-.265-.02-.309a.122.122 0 0 1-.07-.146.286.286 0 0 1 .04-.094.749.749 0 0 0 .29-.512 2.074 2.074 0 0 0 .14-.715.419.419 0 0 1 .11-.3.679.679 0 0 0 .28.11 1.806 1.806 0 0 0 .4-.015 3.75 3.75 0 0 0 1.11-.358 1.426 1.426 0 0 0 .62-.386.236.236 0 0 1 .02-.148.182.182 0 0 1 .06-.062 1.635 1.635 0 0 0 .96-.417 2.859 2.859 0 0 0 .9-.854.727.727 0 0 1 .3-.5 3.578 3.578 0 0 0 .45-1 2.965 2.965 0 0 0 .21-1.146 2.4 2.4 0 0 0-.79-1.554 1.976 1.976 0 0 0-1.65-.5 3.9 3.9 0 0 0-1.91.9c-.01.016.05-.11.2-.379a1.43 1.43 0 0 0 .16-.862 3.58 3.58 0 0 0-.01-.421 1.414 1.414 0 0 0-.11-.385 2.68 2.68 0 0 0-.27-.388 1.286 1.286 0 0 0-.75-.151.624.624 0 0 0-.44.231 1.544 1.544 0 0 0-.16.23.26.26 0 0 0-.03.171 2.944 2.944 0 0 1-.09.763 11.771 11.771 0 0 1-.3 1.189c-.23.946-.51 2.184-.82 3.715a26.446 26.446 0 0 0-.51 2.9c-.01.075-.02.206-.04.393a2.184 2.184 0 0 0-.02.412.851.851 0 0 0-.16.252.514.514 0 0 0-.04.26 2.185 2.185 0 0 1-.01.567 1.9 1.9 0 0 1-.11.489c0 .118 0 .248-.01.39a1.215 1.215 0 0 0-.01.322 6.25 6.25 0 0 1-.08 1.3 1.967 1.967 0 0 0 0 .355 1.112 1.112 0 0 0 .26.677c.13.146.21.225.22.238a.368.368 0 0 0 .36.157zm1.86-7.986c-.09.01-.14-.05-.16-.181a2.437 2.437 0 0 1 .19-.987 4.062 4.062 0 0 1 .57-1.123 3.217 3.217 0 0 1 1.74-1.345.51.51 0 0 1 .49.184 1.1 1.1 0 0 1 .27.566 1.142 1.142 0 0 1-.18.731 4.524 4.524 0 0 1-.67.858 4.739 4.739 0 0 1-1.15.817 3.909 3.909 0 0 1-1.1.48zm6.82 1.289a1.545 1.545 0 0 0 .88.136q1.4-.173 3.37-2.719a4.565 4.565 0 0 0 .43-.63 4.188 4.188 0 0 0 .51.913 2.71 2.71 0 0 0 1.06 1 2.127 2.127 0 0 0 1.19.185 4.273 4.273 0 0 0 .48-.1.806.806 0 0 0 .38-.357 1.287 1.287 0 0 0 .08-.742.483.483 0 0 0-.54-.421 1.093 1.093 0 0 1-.51-.115.907.907 0 0 1-.34-.335 2.83 2.83 0 0 1-.65-1.494 3.727 3.727 0 0 1 .06-1.138l.24-1.137-.9-.621c-.06-.051-.34-.232-.82-.542l-.65-.43a1.363 1.363 0 0 0-.93-.2 1.555 1.555 0 0 0-.86.394 7.611 7.611 0 0 0-1.08 1.152 5.261 5.261 0 0 0-.74 1.044l-.13.37a.178.178 0 0 0-.14.1.227.227 0 0 0-.05.171 2.191 2.191 0 0 0-.23.405 2.579 2.579 0 0 1-.28.5c-.36.931-.63 1.734-.83 2.408a1.458 1.458 0 0 0-.1 1.165c.07.08.14.171.22.272a.588.588 0 0 1 .13.239.89.89 0 0 0 .34.224 1.188 1.188 0 0 1 .41.3zm.98-1.96c.02-.091.06-.284.13-.581a3.947 3.947 0 0 1 .29-.867 17.564 17.564 0 0 1 1.28-2.54 1.79 1.79 0 0 1 1-.91.518.518 0 0 1 .37.121 2.1 2.1 0 0 1 .47.6l-.38.845a7.468 7.468 0 0 1-.59.9c-.2.253-.48.572-.85.957-.09.1-.17.2-.25.286l-.21.237a2.725 2.725 0 0 1-1.26.952zm11.5-7.176l.22.727.07.524.07.412a.42.42 0 0 1 .04.172 5.264 5.264 0 0 1-.04 1.147 5.363 5.363 0 0 1-.27 1.174 5.653 5.653 0 0 0-.21.647 3.428 3.428 0 0 1-.26.664 3.145 3.145 0 0 1-.49.625.8.8 0 0 1-.51.173 1.1 1.1 0 0 1-.45-.012 2.87 2.87 0 0 1-.08-.344 4.5 4.5 0 0 1-.01-.575 2.9 2.9 0 0 1 .29-.723 15.487 15.487 0 0 0 .42-1.071c.08-.217.17-.434.27-.653a2.4 2.4 0 0 1 .38-.6 2.437 2.437 0 0 0 .2-.668 1.164 1.164 0 0 0 .03-.358.862.862 0 0 0-.31-.538l-.55-.309a.645.645 0 0 0-.43.119 3.5 3.5 0 0 0-.42.384 10.09 10.09 0 0 0-.81 1.34c-.19.393-.4.922-.65 1.587a1.81 1.81 0 0 1-.12.337.793.793 0 0 0-.03.547c0 .044 0 .181-.02.412a5.421 5.421 0 0 0 .03.783 2.724 2.724 0 0 0 1.11 1.97 3.715 3.715 0 0 0 .95.327 2.917 2.917 0 0 1 .57.173 2.274 2.274 0 0 0 .66-.126 1.649 1.649 0 0 0 .51-.306 4.836 4.836 0 0 0 1.15-1.438 15.89 15.89 0 0 0 .91-2.162 2.389 2.389 0 0 0 .13-.936 4.1 4.1 0 0 1-.02-.54 1.949 1.949 0 0 0 .04-.914 3.806 3.806 0 0 0-.23-.969q-.105-.674-.27-1.308c-.11-.422-.22-.8-.32-1.125-.03-.129-.07-.265-.11-.407a4.4 4.4 0 0 1-.13-.472 1.733 1.733 0 0 1 1.07-1.992 1.92 1.92 0 0 0 .33-.019 3.169 3.169 0 0 0 .4-.082 2.813 2.813 0 0 1 .37-.08.775.775 0 0 1 .14.017.865.865 0 0 0 .26 0 .684.684 0 0 0 .2-.068.853.853 0 0 1 .25-.041c.11-.006.2-.014.27-.023a2.487 2.487 0 0 0 1.22-.559 1.141 1.141 0 0 0 .31-.914l-.67-.738a.7.7 0 0 0-.32-.028 1.088 1.088 0 0 0-.44.187 1.814 1.814 0 0 1-.79.43l-1.41.218a3.425 3.425 0 0 0-1.24.329 3.05 3.05 0 0 0-1.01.7 4.6 4.6 0 0 0-.44.631 1.751 1.751 0 0 0-.26.7 10.412 10.412 0 0 0 .05 1.5c.06.5.2 1.21.4 2.145zm6.12 7.162a9.313 9.313 0 0 0 1.16-.276 2.318 2.318 0 0 0 .78-.451 8.643 8.643 0 0 0 1.12-1.024 6.08 6.08 0 0 0 .86-1.28 5.982 5.982 0 0 0 .81-3.513 3.267 3.267 0 0 0-.07-.434 2.515 2.515 0 0 0-.41-.948 1.362 1.362 0 0 0-.77-.482 1.326 1.326 0 0 0-1.02-.229 3.505 3.505 0 0 0-.84.214 4.917 4.917 0 0 0-1.83 1.377 6.6 6.6 0 0 0-.73 1 11.86 11.86 0 0 0-.59 1.069 5.371 5.371 0 0 0-.36 1.154 1.633 1.633 0 0 0-.06.783c.05.157.03.24-.06.251a.183.183 0 0 1-.06.084.119.119 0 0 0-.03.071.2.2 0 0 0 .1.109c0 .03.02.1.04.2a.831.831 0 0 1-.02.312 1.46 1.46 0 0 0 .28.841 3.786 3.786 0 0 0 .79.867 3.352 3.352 0 0 0 .48.274.847.847 0 0 0 .43.036zm1.9-2.938a2.14 2.14 0 0 1-1.18.9c-.35.043-.55-.183-.62-.678-.01-.116-.01-.2-.01-.264a4.429 4.429 0 0 1 .51-1.714 8.545 8.545 0 0 1 1.11-1.522 1.429 1.429 0 0 1 .6-.383.4.4 0 0 1 .27.055.683.683 0 0 1 .23.571 1.567 1.567 0 0 1-.04.8 12.7 12.7 0 0 1-.37 1.408 2.549 2.549 0 0 1-.5.827zm14.99-.777c-.07-.14-.13-.3-.2-.475a2.548 2.548 0 0 1-.13-.571 1.859 1.859 0 0 1-.03-.439 2.883 2.883 0 0 0-.04-.44 3.442 3.442 0 0 0-.45-1.407 1.887 1.887 0 0 0-.86-.825.83.83 0 0 0-.65-.209 1.509 1.509 0 0 0-.85.481 8.1 8.1 0 0 0-.77.993q-.315.471-.39.59c.01-.074.01-.24.01-.5a3.985 3.985 0 0 0-.04-.649 2.15 2.15 0 0 0-.59-1.114 1.436 1.436 0 0 0-.94-.4 1.946 1.946 0 0 0-.77.338 2.817 2.817 0 0 0-.8.785 18.262 18.262 0 0 0-1.15 1.826l-.04.049q.21-1 .36-1.53a3.254 3.254 0 0 0 .09-1.14 1.336 1.336 0 0 0-.4-.861.534.534 0 0 0-.34-.224 1.219 1.219 0 0 0-.47-.031.687.687 0 0 0-.46.19 2.452 2.452 0 0 0-.19.81 11.556 11.556 0 0 0-.12 1.157 3.061 3.061 0 0 1-.03.547 3.964 3.964 0 0 1-.19.765q-.135.88-.21 1.888a7.963 7.963 0 0 0-.03 1.334 1.517 1.517 0 0 0 .35.832 1.674 1.674 0 0 0 .74.475.489.489 0 0 0 .22.038.3.3 0 0 0 .22-.148 1.5 1.5 0 0 0 .15-.451 15.377 15.377 0 0 0 1.1-2.042 4.73 4.73 0 0 0 .25-.5 3.236 3.236 0 0 1 .4-.68 2.469 2.469 0 0 1 .41-.427c.14-.114.24-.2.29-.247a.871.871 0 0 1 .48-.28.22.22 0 0 1 .23.1c-.04.4-.1.892-.19 1.464s-.16 1.092-.24 1.559a1.291 1.291 0 0 0 0 .289.779.779 0 0 0 .77.681.4.4 0 0 0 .27.056.62.62 0 0 0 .37-.256 4.722 4.722 0 0 0 .44-.752 16.463 16.463 0 0 1 1.09-2.14c.3-.489.58-.688.81-.6a1.812 1.812 0 0 1 .27.986l.17 1.354a.818.818 0 0 0 .73.652 3.272 3.272 0 0 0 1.2.108.374.374 0 0 0 .24-.207.568.568 0 0 0 .11-.412l-.03-.2s-.06-.066-.17-.2zm1.89 1.1a1.532 1.532 0 0 0 .88.136q1.395-.173 3.37-2.719a5.8 5.8 0 0 0 .43-.629 2.591 2.591 0 0 0 .22.46 2.713 2.713 0 0 0 .29.452 2.752 2.752 0 0 0 1.05 1 2.176 2.176 0 0 0 1.2.185 4.273 4.273 0 0 0 .48-.1.746.746 0 0 0 .37-.357 1.2 1.2 0 0 0 .09-.742.483.483 0 0 0-.54-.421 1.093 1.093 0 0 1-.51-.115.841.841 0 0 1-.34-.335 2.83 2.83 0 0 1-.65-1.494 3.727 3.727 0 0 1 .06-1.138l.23-1.137-.89-.621a27.77 27.77 0 0 0-.82-.542l-.65-.43a1.4 1.4 0 0 0-.94-.2 1.594 1.594 0 0 0-.86.394 7.221 7.221 0 0 0-1.07 1.152 5.261 5.261 0 0 0-.74 1.044l-.13.37a.213.213 0 0 0-.15.1.268.268 0 0 0-.04.171 1.7 1.7 0 0 0-.23.4 2.579 2.579 0 0 1-.28.5c-.36.931-.64 1.734-.83 2.408a1.484 1.484 0 0 0-.11 1.165c.07.08.15.171.23.272a.588.588 0 0 1 .13.239.909.909 0 0 0 .33.225 1.368 1.368 0 0 1 .42.3zm.98-1.96c.01-.091.06-.284.12-.581a4.59 4.59 0 0 1 .3-.867 17.564 17.564 0 0 1 1.28-2.54 1.761 1.761 0 0 1 1-.91.532.532 0 0 1 .37.121 2.293 2.293 0 0 1 .47.6l-.39.845a6.433 6.433 0 0 1-.58.9c-.2.253-.48.572-.85.957-.09.1-.17.2-.25.286s-.15.17-.22.237a2.67 2.67 0 0 1-1.25.952z" transform="translate(-1344.19 -419.75)" filter="url(#filter)" fill-rule="evenodd"/></svg>