<svg id="i_features--flags.svg" xmlns="http://www.w3.org/2000/svg" width="246.85" height="246.84" viewBox="0 0 246.85 246.84"><defs><style>.cls-3{fill:none;stroke:#000;stroke-linecap:round;stroke-linejoin:round;stroke-width:8px;fill-rule:evenodd}</style><filter id="filter" filterUnits="userSpaceOnUse"><feFlood result="flood" flood-color="#174d1d"/><feComposite result="composite" operator="in" in2="SourceGraphic"/><feBlend result="blend" in2="SourceGraphic"/></filter></defs><circle id="Эллипс_12_копия_2" data-name="Эллипс 12 копия 2" cx="123.425" cy="123.42" r="123.425" fill="#fff"/><g id="Иконка_флаги" data-name="Иконка флаги" filter="url(#filter)"><path id="Фигура_1" data-name="Фигура 1" class="cls-3" d="M1338.22 2094.31s36.41 11.09 64.68 11.09c25.39 0 60.98-12.94 60.98-12.94" transform="translate(-1277.84 -2007.16)"/><path id="Фигура_2" data-name="Фигура 2" class="cls-3" d="M1383.12 2115.23h38.81v60.99l-18.48-29.57-22.18 31.41z" transform="translate(-1277.84 -2007.16)"/><path id="Фигура_2_копия_3" data-name="Фигура 2 копия 3" class="cls-3" d="M1479.39 2083.22a4.61 4.61 0 1 1-4.61 4.61 4.6 4.6 0 0 1 4.61-4.61z" transform="translate(-1277.84 -2007.16)"/><circle id="Фигура_2_копия_4" data-name="Фигура 2 копия 4" cx="45.895" cy="80.67" r="4.605" fill="none" stroke="#000" stroke-linecap="round" stroke-linejoin="round" stroke-width="8"/><g id="Группа_13" data-name="Группа 13"><path id="Фигура_2_копия" data-name="Фигура 2 копия" class="cls-3" d="M1433.57 2114.4l37.42-10.27 16.14 58.81-25.64-23.62-13.07 36.16z" transform="translate(-1277.84 -2007.16)"/><path id="Фигура_2_копия_2" data-name="Фигура 2 копия 2" class="cls-3" d="M1369.08 2114.4l-37.42-10.27-16.14 58.81 25.65-23.62 13.07 36.16z" transform="translate(-1277.84 -2007.16)"/></g></g></svg>