<svg xmlns="http://www.w3.org/2000/svg" viewBox="0 0 246.84 246.84"><g id="Слой_2" data-name="Слой 2"><g id="i_features--meal.svg" data-name="i features--meal.svg"><circle id="Эллипс_12" data-name="Эллипс 12" cx="123.42" cy="123.42" r="123.42" fill="#fff"/><path d="M113.76 150.9v1a6 6 0 0 0 6 6h84.71a6 6 0 0 0 6-6v-1a6 6 0 0 0-6-6h-84.71a6 6 0 0 0-6 6zm97-14.37a4.41 4.41 0 0 0-4.41-4.41h-88a4.41 4.41 0 0 0-4.4 4.41v3.93a4.41 4.41 0 0 0 4.41 4.41h88a4.41 4.41 0 0 0 4.4-4.41zm-48-44.91c5.75 0 16.25-.1 23.63 0 24.65.5 29.18 27.46 29.18 27.46h-48.64m-4.17-27.5c-5.75 0-16.25-.1-23.63 0-24.65.5-29.18 27.46-29.18 27.46h48.65m8.33 66.44h-4.17c5.75 0 16.25.1 23.63 0C211 185 215.57 158 215.57 158H109.94s4.54 27 29.18 27.46c7.38.15 17.88.09 23.63 0h-4.17m52.18-60.31a6 6 0 0 0-6-6H120a6 6 0 0 0-6 6v.75a6 6 0 0 0 6 6h84.78a6 6 0 0 0 6-6z" fill="none" stroke="#017302" stroke-linecap="round" stroke-linejoin="round" stroke-width="8"/><path id="Бутылка" d="M54.67 52.84h22a4 4 0 0 1 4 4v12a4 4 0 0 1-4 4h-22a4 4 0 0 1-4-4v-12a4 4 0 0 1 4-4zm3.17 20.23L40 94.72v85s.91 6.48 9.64 6.48c4.62 0 8.9-6.48 8.9-6.48s2.8 7.13 8.06 7.13m7.82-113.78l17.52 22.29v85s-.25 6.6-9.08 6.49c-4.62-.06-8.43-7.13-8.43-7.13s-2.52 7.13-7.78 7.13M40 111.59h51.95v29.19H40z" fill="none" stroke="#017302" stroke-width="8"/></g></g></svg>