<svg xmlns="http://www.w3.org/2000/svg" width="1177" height="1177" viewBox="0 0 1177 1177"><path fill-rule="evenodd" opacity=".149" fill="#FFF" d="M588.5 0C913.519 0 1177 263.481 1177 588.5S913.519 1177 588.5 1177C263.48 1177 0 913.519 0 588.5S263.48 0 588.5 0z"/><path fill-rule="evenodd" opacity=".149" fill="#FFF" d="M588.5 223C790.36 223 954 386.64 954 588.5S790.36 954 588.5 954 223 790.36 223 588.5 386.64 223 588.5 223z"/><path fill-rule="evenodd" opacity=".149" fill="#FFF" d="M589 398c105.486 0 191 85.514 191 191s-85.514 191-191 191-191-85.514-191-191 85.514-191 191-191z"/><path fill-rule="evenodd" opacity=".149" fill="#FFF" d="M589 459c71.797 0 130 58.203 130 130s-58.203 130-130 130-130-58.203-130-130 58.203-130 130-130z"/></svg>