<svg width="21" height="20" xmlns="http://www.w3.org/2000/svg"><path d="M2.122 11.8h-1.07c-.893 0-1.338-1.08-.705-1.71L9.817.683a1 1 0 0 1 1.41 0l9.47 9.407c.633.63.187 1.71-.705 1.71h-1.07v6.713a1 1 0 0 1-1 1h-14.8a1 1 0 0 1-1-1V11.8zm8.4-8.998L3.43 9.848a1 1 0 0 1 .693.952v6.713h12.8V10.8a1 1 0 0 1 .693-.952l-7.093-7.046zm5.803-.796h.258v2.638a1 1 0 1 0 2 0V1.006a1 1 0 0 0-1-1h-2.258a1 1 0 0 0-1 1v1.38a1 1 0 0 0 2 0v-.38z"/><path d="M11.84 10.83v4.823a1 1 0 0 0 2 0V9.83a1 1 0 0 0-1-1H8.204a1 1 0 0 0-1 1v5.823a1 1 0 0 0 2 0V10.83h2.636z"/></svg>