<?xml version="1.0" encoding="utf-8"?><!DOCTYPE svg PUBLIC "-//W3C//DTD SVG 1.1//EN" "http://www.w3.org/Graphics/SVG/1.1/DTD/svg11.dtd"><svg version="1.1" xmlns="http://www.w3.org/2000/svg" xmlns:xlink="http://www.w3.org/1999/xlink" width="19.999999999999996" height="28" viewBox="0 0 19.999999999999996 28" data-code="61784" data-tags="rouble,rub,ruble"><g fill="#444" transform="scale(0.02734375 0.02734375)"><path d="M596 322.857c0-76.571-54.286-128-134.857-128h-182.857v256h182.857c80.571 0 134.857-51.429 134.857-128zM731.429 322.857c0 146.857-106.286 249.714-258.857 249.714h-194.286v67.429h288.571c10.286 0 18.286 8 18.286 18.286v73.143c0 10.286-8 18.286-18.286 18.286h-288.571v109.714c0 10.286-8 18.286-18.286 18.286h-95.429c-10.286 0-18.286-8-18.286-18.286v-109.714h-128c-10.286 0-18.286-8-18.286-18.286v-73.143c0-10.286 8-18.286 18.286-18.286h128v-67.429h-128c-10.286 0-18.286-8-18.286-18.286v-85.143c0-10.286 8-18.286 18.286-18.286h128v-359.429c0-10.286 8-18.286 18.286-18.286h308c152.571 0 258.857 102.857 258.857 249.714z" /></g></svg>