<svg width="77" height="94" xmlns="http://www.w3.org/2000/svg"><path d="M38.323 32.098a6.276 6.276 0 0 1-3.464-.97c-6.155-3.87-13.196-4.647-20.185.827a14.99 14.99 0 0 0-3.069 3.276c-3.516 5.059-4.76 12.89-3.56 21.587a51.848 51.848 0 0 0 2.12 9.113 3.499 3.499 0 0 1-6.645 2.193 58.844 58.844 0 0 1-2.406-10.35c-1.42-10.291.098-19.849 4.746-26.536a21.978 21.978 0 0 1 4.5-4.792c5.437-4.258 11.291-5.826 17.172-5.177 2.717.3 5.249 1.04 7.556 2.067-.062-2.234-.441-4.53-1.251-6.7-1.046-2.8-2.74-5.133-5.219-6.924a3.498 3.498 0 1 1 4.097-5.672c3.648 2.635 6.165 6.103 7.676 10.149 1.094 2.926 1.603 5.921 1.693 8.822a25.252 25.252 0 0 1 6.795-1.742c5.88-.65 11.735.92 17.172 5.177 8.292 6.495 11.231 18.755 9.091 32.38-2 12.732-8.182 24.622-16.294 30.313-5.954 4.176-10.464 4.918-14.556 2.414a10.682 10.682 0 0 1-6.086 1.908 10.68 10.68 0 0 1-6.088-1.908c-4.09 2.504-8.6 1.763-14.555-2.414-2.802-1.967-5.376-4.659-7.648-7.928a3.499 3.499 0 0 1 5.745-3.993c1.827 2.628 3.836 4.729 5.922 6.193 4.01 2.813 5.6 3.037 7.048 2.069 2.22-1.487 5.135-1.479 7.28.181a3.718 3.718 0 0 0 2.296.803c.827 0 1.616-.278 2.294-.803 2.145-1.66 5.06-1.668 7.278-.183 1.45.97 3.041.746 7.051-2.067 6.371-4.47 11.672-14.664 13.4-25.67 1.787-11.373-.553-21.134-6.493-25.786-6.988-5.474-14.029-4.696-20.185-.826a6.282 6.282 0 0 1-3.228.969zM64.247 0c6.768 0 12.536 3.382 12.536 3.382s-6.38 4.846-10.937 10.483c-3.028 3.746-6.489 4.713-10.48 4.713-2.918 0-6.119-.516-9.643-.84 0 0 .776-10.474 10.29-15.715C58.714.533 61.56 0 64.246 0z" fill="#6BCFF6"/></svg>