<svg width="90" height="90" xmlns="http://www.w3.org/2000/svg" xmlns:xlink="http://www.w3.org/1999/xlink"><defs><path id="a" d="M0 .115h79.884V80H0z"/></defs><g fill="none" fill-rule="evenodd"><g transform="translate(5 5.885)"><mask id="b" fill="#fff"><use xlink:href="#a"/></mask><path d="M39.942 80a40.03 40.03 0 0 1-18.895-4.743 3.001 3.001 0 0 1 2.842-5.285A33.993 33.993 0 0 0 39.942 74c18.715 0 33.942-15.227 33.942-33.942 0-18.716-15.227-33.943-33.942-33.943C21.226 6.115 6 21.342 6 40.058a33.93 33.93 0 0 0 8.245 22.176 3 3 0 1 1-4.54 3.922A39.932 39.932 0 0 1 0 40.058C0 18.033 17.918.115 39.942.115s39.942 17.918 39.942 39.943C79.884 62.082 61.966 80 39.942 80" fill="#6BCFF6" mask="url(#b)"/></g><path d="M49.73 54.84c-3.322.786-7.21-5.305-7.628-5.976v-.003l-.019-.028a.312.312 0 0 1-.018-.03h-.003c-.449-.651-4.474-6.653-2.425-9.383 2.17-2.887 7.07-1.863 5.054-7.452-2.017-5.587-3.918-8.23-6.697-6.67-2.697 1.514-13.346 8.396-2.655 26.096.164.291.363.617.603.985l.218.33.215.331c.195.297.374.556.54.776 11.991 17.1 22.623 10.054 25.098 8.183 2.542-1.922.882-4.721-3.432-8.806-4.314-4.085-5.338.816-8.852 1.648" fill="#6BCFF6"/></g></svg>