<svg version="1.1" id="Layer_1" xmlns="http://www.w3.org/2000/svg" x="0" y="0" viewBox="0 0 80 80" xml:space="preserve"><style>.st0{fill:#6bcff6}</style><path class="st0" d="M17.5 43.5s-3.1-.9-6.7-.9-6.4.9-6.4.9C3.1 43.5 2 48.3 2 54.3c0 6 1.1 10.8 2.4 10.8 0 0 2.4 1.2 6.5 1.2 4.2 0 6.5-1.2 6.5-1.2 1.3 0 2.4-4.8 2.4-10.8 0-6-1-10.8-2.3-10.8z" id="XMLID_3759_"/><path class="st0" d="M60.2 54.2c0 6 1.1 10.8 2.4 10.8 0 0 2.4 1.2 6.5 1.2s6.5-1.2 6.5-1.2c1.3 0 2.4-4.8 2.4-10.8 0-6-1.1-10.8-2.4-10.8 0 0-2.8-.9-6.4-.9-3.5 0-6.7.9-6.7.9-1.3.1-2.3 4.9-2.3 10.8z" id="XMLID_3761_"/><path class="st0" d="M37.4 78c-13.1 0-19-5-19.2-5.2-.8-.7-.8-1.8-.2-2.6.7-.7 1.8-.8 2.6-.2.1.1 5.3 4.4 16.8 4.4 1 0 1.8.8 1.8 1.8s-.8 1.8-1.8 1.8z" id="XMLID_3763_"/><path class="st0" d="M52.4 76.2c0 2.1-1.7 3.8-3.8 3.8h-12c-2.1 0-3.8-1.7-3.8-3.8 0-2.1 1.7-3.8 3.8-3.8h12c2.1 0 3.8 1.7 3.8 3.8z" id="XMLID_3764_"/><path class="st0" d="M67.7 37.4h-.3c-1.6-.2-2.9-1.6-2.7-3.3 0-.1 1.1-13.1-6.4-21.3-4.1-4.5-10.1-6.7-17.9-6.7-4.9 0-9.2.8-12.7 2.4-1.5.7-3.3 0-4-1.5-.7-1.5 0-3.3 1.5-4 4.3-2 9.4-3 15.2-3 9.6.1 17.1 3 22.4 8.8 9.2 10.1 8 25.2 7.9 25.9-.2 1.5-1.5 2.7-3 2.7zm-55.3-.1c-1.5 0-2.8-1.1-3-2.7-.1-.5-1.2-11.5 4.3-21 .8-1.4 2.7-1.9 4.1-1.1 1.4.8 1.9 2.7 1.1 4.1-4.5 7.8-3.6 17.3-3.6 17.4.2 1.6-1 3.1-2.7 3.3h-.2z"/></svg>