<svg version="1.1" id="Layer_1" xmlns="http://www.w3.org/2000/svg" x="0" y="0" viewBox="0 0 80 80" xml:space="preserve"><style>.st0{fill:#6bcff6}</style><path class="st0" d="M46 51.4c.2.2.3.3.1.7-.3.5-4.5 6.9-13 6.9-2 0-2.6-1-2.6-2 0-1.2 1.1-4.3 3.9-12.4l1.8-5.3c.6-1.7 1-2.9 1-3.7 0-.5-.3-.9-.9-.9-1.1 0-4.1 3.4-4.9 4.5-.3.3-.5.3-.7.1l-.6-.6c-.1-.3-.3-.5-.1-.7.3-.4 5.7-8.2 12.8-8.2 2.1 0 2.9 1.1 2.9 2.4 0 1.5-.8 3.5-2.1 7.3L40 49.8c-.9 2.5-1.1 3.4-1.1 4.1 0 .5.2.9.9.9 1.3 0 4.5-3.5 4.9-4.1.1-.2.4-.2.5-.1l.8.8zm2-32.7c0 2.1-2.1 4.4-4.6 4.4-2.6 0-4.3-1.5-4.3-4.1 0-2.1 1.9-4.1 4.1-4.1 3.3.1 4.8 1.7 4.8 3.8z"/><path class="st0" d="M40 79.9c-6.6 0-13.1-1.6-18.9-4.7-1.5-.8-2-2.6-1.2-4.1.8-1.5 2.6-2 4.1-1.2 4.9 2.6 10.5 4 16.1 4C58.8 73.9 74 58.7 74 40S58.7 6.1 40 6.1 6.1 21.3 6.1 40c0 8.1 2.9 16 8.2 22.2 1.1 1.3.9 3.1-.3 4.2-1.3 1.1-3.1.9-4.2-.3C3.5 58.9.1 49.6.1 40 .1 18 18 .1 40 .1S79.9 18 79.9 40 62 79.9 40 79.9z"/></svg>