<svg width="34" height="34" xmlns="http://www.w3.org/2000/svg" xmlns:xlink="http://www.w3.org/1999/xlink"><defs><path id="a" d="M0 .915h34.016v34.016H0z"/></defs><g transform="translate(0 -.915)" fill="none" fill-rule="evenodd"><mask id="b" fill="#fff"><use xlink:href="#a"/></mask><path d="M17.008 34.93c9.393 0 17.008-7.613 17.008-17.007C34.016 8.53 26.4.915 17.008.915 7.615.915 0 8.53 0 17.923 0 27.317 7.615 34.93 17.008 34.93" fill="#00A8F6" mask="url(#b)"/><path d="M12.998 8.255c-1.035.047-1.742.211-2.361.452A4.757 4.757 0 0 0 8.914 9.83a4.759 4.759 0 0 0-1.121 1.723c-.241.619-.406 1.325-.453 2.36-.047 1.038-.058 1.37-.058 4.011 0 2.642.011 2.973.058 4.01.047 1.035.212 1.742.453 2.36a4.75 4.75 0 0 0 1.121 1.724 4.757 4.757 0 0 0 1.723 1.122c.619.24 1.326.405 2.361.451 1.038.049 1.368.06 4.01.06 2.642 0 2.973-.011 4.01-.06 1.035-.046 1.743-.21 2.362-.451a4.762 4.762 0 0 0 1.722-1.122 4.762 4.762 0 0 0 1.122-1.723c.24-.619.405-1.326.452-2.36.047-1.039.058-1.37.058-4.01 0-2.643-.011-2.973-.058-4.011-.047-1.036-.212-1.742-.452-2.361a4.775 4.775 0 0 0-1.122-1.723 4.762 4.762 0 0 0-1.722-1.122c-.619-.24-1.327-.405-2.362-.452-1.037-.046-1.368-.059-4.01-.059-2.642 0-2.972.013-4.01.06m.08 17.584c-.948-.043-1.463-.201-1.806-.334a3.01 3.01 0 0 1-1.118-.729 2.997 2.997 0 0 1-.728-1.117c-.133-.343-.292-.858-.335-1.806-.047-1.026-.057-1.334-.057-3.93 0-2.598.01-2.905.057-3.931.043-.949.202-1.463.335-1.806.176-.454.387-.778.728-1.118.34-.34.664-.552 1.118-.729.343-.133.858-.29 1.806-.335 1.025-.046 1.333-.056 3.93-.056 2.597 0 2.905.01 3.931.056.948.044 1.463.202 1.806.335a3.03 3.03 0 0 1 1.118.729c.34.34.551.663.727 1.117.133.344.292.858.335 1.806.047 1.026.057 1.333.057 3.931s-.01 2.905-.057 3.93c-.043.948-.202 1.463-.335 1.806a3.007 3.007 0 0 1-.727 1.119 3.017 3.017 0 0 1-1.118.728c-.343.133-.858.29-1.806.334-1.026.047-1.334.056-3.931.056s-2.905-.009-3.93-.056m7.955-13.108a1.167 1.167 0 1 0 2.334 0 1.167 1.167 0 0 0-2.334 0m-9.02 5.192a4.995 4.995 0 1 0 9.99-.002 4.995 4.995 0 0 0-9.99.002m1.753 0a3.241 3.241 0 1 1 6.483-.002 3.241 3.241 0 0 1-6.483.002" fill="#FFF" mask="url(#b)"/></g></svg>