<svg width="35" height="35" xmlns="http://www.w3.org/2000/svg"><g fill="none" fill-rule="evenodd"><path d="M17.195 34.085c9.393 0 17.008-7.614 17.008-17.008 0-9.392-7.615-17.008-17.008-17.008C7.802.069.187 7.685.187 17.077c0 9.394 7.615 17.008 17.008 17.008" fill="#7A509D"/><path d="M24.743 8.603c-.51-.48-2.576-2.016-7.175-2.037 0 0-5.423-.335-8.067 2.148-1.472 1.507-1.99 3.712-2.044 6.446-.055 2.735-.126 7.857 4.698 9.247l.005.001-.003 2.12s-.03.86.521 1.033c.668.213 1.06-.44 1.697-1.143.351-.386.833-.953 1.197-1.386 3.3.283 5.837-.366 6.125-.462.667-.22 4.436-.715 5.05-5.838.632-5.282-.308-8.622-2.004-10.129m.57 9.747c-.518 4.278-3.575 4.548-4.138 4.734-.24.078-2.469.646-5.27.458l-3.039 3.367-.003-3.88-.024-.006c-4.08-1.16-3.944-5.51-3.898-7.794.046-2.284.465-4.155 1.711-5.413 2.235-2.073 6.842-1.764 6.842-1.764 3.891.018 5.755 1.217 6.188 1.62 1.435 1.257 2.166 4.268 1.631 8.678" fill="#FFF"/><path d="M21.8 18.989a28.316 28.316 0 0 0-.92-.755c-.283-.213-.736-.5-.99-.647-.453-.26-.917-.096-1.11.158l-.397.513c-.204.259-.52.216-.601.199-.588-.148-1.214-.516-1.854-1.135-.648-.626-1.04-1.28-1.18-1.958l-.01-.045c-.037-.28.009-.408.123-.598l.022-.018c.269-.25.767-.554.834-.844.196-.504-.655-1.553-.776-1.738 0 0-.62-.82-.84-.975-.236-.198-.604-.311-.975-.083l-.02.014c-1.065.72-1.451 1.136-1.346 1.754l.055.249c.54 1.704 1.584 3.52 3.14 5.139 1.54 1.597 3.206 2.554 4.848 3.217.426.14.868.019 1.322-.368l.008-.006a4.24 4.24 0 0 0 .828-1.045l.002-.007c.2-.394.132-.767-.162-1.021m-2.556-3.732a.123.123 0 0 1-.122-.119c-.022-.442-.14-.78-.354-1.006-.213-.224-.53-.35-.945-.372a.125.125 0 0 1-.116-.133.125.125 0 0 1 .13-.119c.478.027.85.178 1.107.45.256.27.398.663.423 1.167a.125.125 0 0 1-.117.132h-.006" fill="#FFF"/><path d="M20.46 15.674h-.003a.125.125 0 0 1-.12-.128c.019-.848-.23-1.565-.736-2.132a2.69 2.69 0 0 0-.913-.665 3.673 3.673 0 0 0-1.225-.29.125.125 0 0 1-.114-.134.124.124 0 0 1 .13-.117c.98.074 1.754.422 2.303 1.036.55.616.82 1.393.8 2.307a.125.125 0 0 1-.122.123" fill="#FFF"/><path d="M21.703 16.172a.125.125 0 0 1-.122-.125c-.006-.749-.119-1.427-.337-2.016a4.222 4.222 0 0 0-.971-1.525 4.378 4.378 0 0 0-1.45-.97 4.778 4.778 0 0 0-1.77-.334.123.123 0 0 1-.122-.126.125.125 0 0 1 .123-.125h.002c1.342.01 2.482.472 3.387 1.375.454.454.801.997 1.03 1.617.229.615.348 1.323.354 2.102 0 .07-.055.126-.123.127z" fill="#FFF"/></g></svg>