<svg width="35" height="34" xmlns="http://www.w3.org/2000/svg" xmlns:xlink="http://www.w3.org/1999/xlink"><defs><path id="a" d="M.952.915h34.016v34.016H.952z"/></defs><g transform="translate(0 -.915)" fill="none" fill-rule="evenodd"><mask id="b" fill="#fff"><use xlink:href="#a"/></mask><path d="M17.96 34.93c9.393 0 17.008-7.613 17.008-17.007C34.968 8.53 27.353.915 17.96.915 8.567.915.952 8.53.952 17.923c0 9.394 7.615 17.008 17.008 17.008" fill="#39BC2D" mask="url(#b)"/><path d="M23.737 20.155c-.068-.112-.248-.179-.518-.313-.271-.134-1.601-.784-1.848-.873-.248-.089-.43-.134-.61.134-.18.27-.698.873-.856 1.052-.158.18-.315.202-.586.068-.27-.134-1.141-.418-2.175-1.332-.804-.71-1.346-1.589-1.504-1.858-.158-.269-.017-.414.118-.548.122-.12.27-.313.406-.47.136-.156.18-.268.27-.447.09-.179.046-.336-.022-.47-.068-.135-.61-1.455-.834-1.993-.225-.537-.45-.447-.61-.447-.156 0-.337-.023-.517-.023a1 1 0 0 0-.721.336c-.248.27-.947.918-.947 2.238 0 1.321.969 2.597 1.105 2.776.135.178 1.87 2.976 4.62 4.051 2.749 1.074 2.749.716 3.245.671.496-.045 1.6-.649 1.826-1.276.225-.627.225-1.164.158-1.276M18.165 8.43c-5.115 0-9.276 4.13-9.276 9.204 0 2.015.656 3.88 1.767 5.397l-1.16 3.42 3.566-1.134a9.274 9.274 0 0 0 5.104 1.522c5.114 0 9.276-4.129 9.276-9.204 0-5.076-4.161-9.205-9.277-9.205m11.034 9.204c0 6.047-4.94 10.95-11.034 10.95a11.06 11.06 0 0 1-5.333-1.363l-6.11 1.941 1.993-5.874a10.833 10.833 0 0 1-1.584-5.654c0-6.046 4.94-10.948 11.034-10.948 6.095 0 11.034 4.902 11.034 10.948" fill="#FFF" mask="url(#b)"/></g></svg>