<svg xmlns="http://www.w3.org/2000/svg" width="122" height="102"><g fill="none" fill-rule="evenodd" transform="translate(3 3)"><circle cx="58" cy="66" r="33" fill="#6BCFF6" opacity=".2"/><path stroke="#6BCFF6" stroke-linecap="round" stroke-linejoin="round" stroke-width="6" d="M25.968 16A54.044 54.044 0 0 0 14 50m76-34a54.044 54.044 0 0 1 11.968 34M16.315 7C6.173 18.254 0 33.154 0 49.496M99 7c10.142 11.254 16.315 26.154 16.315 42.496" opacity=".2"/><g stroke="#6BCFF6" stroke-width="6" transform="translate(22)"><path d="M26.844 70.439c0 5.28 4.184 9.561 9.344 9.561 5.16 0 9.344-4.28 9.344-9.561H26.844z"/><path stroke-linecap="round" stroke-linejoin="round" d="M14.844 30.335c2.807-10.477 10.059-18.568 20.826-18.568 10.767 0 18.387 8.09 20.826 18.568 2.439 10.478 4.912 19.077 6.018 22.618 1.226 3.923 4.168 7.11 8.826 9.561v7.364H0v-7.364c4.658-2.451 7.6-5.638 8.826-9.56.586-1.877 1.453-5.174 2.556-9.418"/><circle cx="35.67" cy="5.884" r="5.884"/></g></g></svg>