<svg xmlns="http://www.w3.org/2000/svg" viewBox="0 0 45.894 45.894" width="512" height="512"><path d="M2.512 43.883c1.387 1.307 3.953.834 5.732-1.054l9.364-9.94a17.517 17.517 0 0 0 10.668 3.62c9.73 0 17.618-7.888 17.618-17.619 0-9.729-7.888-17.618-17.618-17.618-9.731 0-17.619 7.888-17.619 17.618 0 3.552 1.06 6.852 2.868 9.618-.988.219-2.009.785-2.853 1.681L0 41.517l2.512 2.366zM28.276 5.971c7.136 0 12.92 5.784 12.92 12.919 0 7.136-5.784 12.92-12.92 12.92-7.135 0-12.92-5.784-12.92-12.92 0-7.135 5.785-12.919 12.92-12.919z" fill="#1eb1f6"/></svg>