<svg width="1920" height="760" xmlns="http://www.w3.org/2000/svg" xmlns:xlink="http://www.w3.org/1999/xlink"><defs><path id="a" d="M0 0h1920v760H0z"/></defs><g fill="none" fill-rule="evenodd"><mask id="b" fill="#fff"><use xlink:href="#a"/></mask><use fill="#179BFF" xlink:href="#a"/><path d="M2007.948 291.099c-1.461 18.082.966 40.552 6.892 69.358 1.261 6.132 2.655 12.46 4.383 19.987.923 4.018 4.012 17.242 4.444 19.11 3.813 16.497 5.75 26.132 6.78 35.32 2.566 22.983-10.995 43.057-30.864 50.768-20.06 7.786-43.866 1.924-57.355-17.203-5.39-7.642-10.351-16.264-18.08-30.758-1.426-2.672-7.388-13.941-8.95-16.873-3.558-6.673-6.525-12.124-9.47-17.36-16.081-28.59-30.306-48.01-44.493-59.507-4.794-3.885-9.31-6.602-13.534-8.25-5.97-2.329-14.124-3.682-24.332-3.831-17.584-.258-39.022 2.95-66.378 9.418-6.39 1.51-12.962 3.158-20.997 5.243-3.246.842-16.702 4.374-20.1 5.253-17.094 4.424-27.465 6.75-37.165 7.975-22.789 2.878-43.678-10.254-51.488-30.846-7.733-20.394-1.023-43.831 17.538-56.924 8.153-5.747 17.525-11.023 32.654-18.817 3.671-1.89 16.763-8.556 17.876-9.125 7.215-3.69 12.88-6.645 18.362-9.598 30.006-16.165 50.102-30.322 61.899-44.524 2.988-3.597 5.285-7.041 6.929-10.314 3.285-6.542 5.48-15.572 6.339-26.994 1.363-18.144-.678-40.223-5.727-67.904-1.114-6.109-2.358-12.426-3.865-19.717-.594-2.874-1.207-5.792-1.998-9.532-.068-.319-1.542-7.269-1.957-9.237-3.482-16.508-5.154-25.444-6.13-34.144-2.566-22.982 10.996-43.056 30.865-50.768 20.059-7.785 43.865-1.923 57.354 17.204 5.708 8.092 10.837 17.35 18.317 32.216 1.858 3.69 8.493 17.055 8.691 17.45 3.52 7.058 6.314 12.55 9.115 17.87 16.816 31.945 31.62 52.324 46.28 62.507 2.929 2.034 5.728 3.55 8.415 4.6 6.678 2.604 16.426 3.91 28.947 3.564 17.098-.473 37.476-3.863 63.042-10.06 6.624-1.606 13.434-3.353 21.78-5.568 3.188-.846 17.163-4.594 20.785-5.552 17.62-4.658 28.251-7.092 38.117-8.337 22.791-2.883 43.687 10.248 51.498 30.845 7.734 20.394 1.024 43.832-17.537 56.924-8.344 5.882-18.025 11.252-33.661 19.146-3.933 1.985-18.315 9.151-18.53 9.26-7.539 3.77-13.397 6.759-19.08 9.754-28.53 15.038-48.143 28.214-60.502 41.462-4.305 4.614-7.436 8.97-9.463 13.005-2.89 5.756-4.846 13.595-5.646 23.504z" fill="#2EA5FF" fill-rule="nonzero" mask="url(#b)"/><path d="M1015.591 405.826c-38.785-103.562-234-88.179-234 68.44 0 78.031 59.67 181.862 234 287.669 174.33-105.807 234-209.638 234-287.669 0-155.717-195-172.616-234-68.44z" fill="#FFF" opacity=".1" mask="url(#b)" transform="rotate(24 1015.591 550.935)"/><path d="M441.46 1.216c-67.383-6.552-104.975 17.352-119.399 29.51-14.423-12.158-52.017-36.062-119.4-29.51-89.365 8.688-104.398 94.692-87.637 230.15 24.905 201.275 68.592 294.031 114.008 294.031 45.415 0 42.485-30.407 51.274-95.568 8.79-65.161 10.255-85.434 41.02-85.434.252 0 .491-.075.735-.116.244.04.483.116.735.116 30.764 0 32.23 20.273 41.02 85.434 8.79 65.16 5.86 95.568 51.275 95.568s89.102-92.756 114.007-294.03C545.86 95.908 530.826 9.904 441.461 1.216z" fill="#FFF" opacity=".1" mask="url(#b)" transform="rotate(24 322.061 262.748)"/></g></svg>