<svg xmlns="http://www.w3.org/2000/svg" width="21" height="21"><path fill="#00A0F9" d="M19.679 7.472l-.078.164c-.051.088-.147.246-.283.464a42.1 42.1 0 0 1-.774 1.192 42.433 42.433 0 0 1-2.71 3.615 29.72 29.72 0 0 1-1.725 1.887c-.404.402-.827.799-1.266 1.189a37.647 37.647 0 0 1-4.035 3.1 35.86 35.86 0 0 1-1.331.85c-.245.149-.422.252-.553.325-1.823.935-3.332 1.033-4.548-.182L.683 18.388c-.907-.904-.968-2.457.107-3.197l3.425-2.56c.978-.661 2.136-.7 2.958.12l.385.383a30.906 30.906 0 0 0 2.858-2.494 26.377 26.377 0 0 0 2.108-2.39l-.415-.413c-.824-.822-.785-1.981-.093-2.997l2.539-3.377.093-.107a2.2 2.2 0 0 1 3.106 0l1.692 1.689c1.178 1.174 1.087 2.088.233 4.427zm-1.645-3.01l-1.693-1.69a.2.2 0 0 0-.248-.026l-2.45 3.257c-.173.254-.177.363-.122.418l1.036 1.033a1 1 0 0 1 .095 1.307 29.786 29.786 0 0 1-2.824 3.296c-1.1 1.098-2.376 2.171-3.762 3.203a1 1 0 0 1-1.303-.094l-1.002-.999c-.057-.057-.17-.053-.388.093l-3.416 2.555c.037-.026.04.06.138.157l1.694 1.688c.444.444 1.083.402 2.19-.165.08-.044.237-.136.46-.272.379-.23.801-.498 1.257-.803a35.676 35.676 0 0 0 3.82-2.933c.41-.365.805-.735 1.18-1.11a27.456 27.456 0 0 0 1.607-1.758 40.468 40.468 0 0 0 2.581-3.444 40.11 40.11 0 0 0 .948-1.477c.553-1.523.579-1.861.202-2.237z"/></svg>