<svg xmlns="http://www.w3.org/2000/svg" width="15" height="22"><g fill="#00A0F9"><path d="M7.712.652a7.06 7.06 0 0 1 7.06 7.06c0 1.752-.607 3.614-1.863 6.059-.5.974-1.092 2.025-1.95 3.485-.177.3-1.852 3.12-2.384 4.03a1 1 0 0 1-1.727 0c-.531-.909-2.203-3.724-2.383-4.03-.858-1.46-1.45-2.51-1.95-3.485C1.259 11.326.653 9.464.653 7.71A7.06 7.06 0 0 1 7.712.652zm5.06 7.06a5.06 5.06 0 0 0-10.12 0c0 2.303-.005 2.41 5.06 11.087 5.07-8.686 5.06-8.784 5.06-11.088z"/><path d="M7.712 8.159a.594.594 0 1 0 0-1.188.594.594 0 0 0 0 1.188zm0 2a2.594 2.594 0 1 1 0-5.189 2.594 2.594 0 0 1 0 5.189z"/></g></svg>