<svg width="60" height="60" xmlns="http://www.w3.org/2000/svg"><g fill="none" fill-rule="evenodd"><path fill="#E83C8C" d="M30 0l-4.837 2.992-5.583-1.19-3.5 4.447-5.659.77-1.747 5.356-5.055 2.622.214 5.622L0 24.791 2.162 30 0 35.209l3.833 4.172-.214 5.622 5.055 2.622 1.748 5.357 5.658.769 3.5 4.447 5.583-1.19L30 60l4.837-2.992 5.583 1.19 3.5-4.447 5.659-.77 1.747-5.356 5.055-2.622-.214-5.622L60 35.209l-2.162-5.21L60 24.792l-3.833-4.172.214-5.622-5.055-2.622-1.748-5.357-5.658-.77-3.5-4.446-5.583 1.19z"/><text font-family="Fregat-Bold, Fregat" font-size="20" font-weight="bold" fill="#FFF"><tspan x="17" y="37">№1</tspan></text></g></svg>