<svg width="23" height="24" xmlns="http://www.w3.org/2000/svg"><g fill="none" fill-rule="evenodd"><path d="M11.463 23.39c6.262 0 11.339-5.076 11.339-11.339C22.802 5.79 17.725.713 11.463.713 5.201.713.124 5.79.124 12.05c0 6.263 5.077 11.339 11.34 11.339" fill="#7A509D"/><path d="M16.496 6.402c-.341-.32-1.718-1.344-4.784-1.358 0 0-3.615-.223-5.378 1.432-.981 1.005-1.326 2.475-1.362 4.298-.037 1.823-.084 5.238 3.132 6.164h.003l-.002 1.414s-.02.573.347.689c.446.142.707-.293 1.132-.762.234-.257.555-.635.798-.924 2.2.189 3.89-.244 4.083-.308.445-.147 2.957-.477 3.366-3.892.422-3.521-.205-5.748-1.335-6.753m.38 6.498c-.346 2.852-2.384 3.032-2.76 3.156-.16.052-1.645.43-3.513.306l-2.025 2.244-.002-2.586-.016-.004c-2.721-.774-2.63-3.674-2.6-5.196.032-1.523.31-2.77 1.142-3.61 1.49-1.381 4.56-1.175 4.56-1.175 2.595.012 3.838.811 4.126 1.08.957.838 1.444 2.845 1.088 5.785" fill="#FFF" fill-rule="nonzero"/><path d="M14.534 13.326a18.877 18.877 0 0 0-.613-.504 8.11 8.11 0 0 0-.66-.43c-.303-.174-.612-.065-.74.104l-.266.342c-.136.173-.346.144-.4.133-.392-.099-.81-.344-1.236-.757-.432-.417-.693-.852-.786-1.305l-.007-.03a.515.515 0 0 1 .081-.399l.015-.012c.18-.166.511-.369.556-.562.13-.336-.437-1.036-.517-1.159 0 0-.413-.546-.56-.65a.542.542 0 0 0-.65-.055l-.013.01c-.71.48-.968.756-.898 1.168l.037.166c.36 1.136 1.056 2.348 2.094 3.426 1.026 1.065 2.136 1.703 3.23 2.145.285.094.58.013.882-.245l.006-.004c.23-.217.415-.449.552-.697v-.005c.134-.262.089-.51-.107-.68m-1.704-2.488a.082.082 0 0 1-.081-.08c-.015-.294-.094-.52-.236-.67-.142-.15-.354-.233-.63-.248a.083.083 0 0 1-.077-.088.083.083 0 0 1 .086-.08c.319.018.567.119.738.3.17.18.266.442.282.778a.083.083 0 0 1-.078.088h-.004" fill="#FFF"/><path d="M13.64 11.116h-.002a.083.083 0 0 1-.08-.085c.013-.566-.153-1.044-.49-1.422a1.793 1.793 0 0 0-.61-.443 2.449 2.449 0 0 0-.816-.193.083.083 0 0 1-.076-.09.083.083 0 0 1 .087-.078c.653.05 1.169.282 1.535.691.367.41.547.929.534 1.538a.083.083 0 0 1-.082.082" fill="#FFF"/><path d="M14.469 11.448a.083.083 0 0 1-.082-.083 3.965 3.965 0 0 0-.224-1.344 2.814 2.814 0 0 0-.648-1.017 2.919 2.919 0 0 0-.967-.647 3.185 3.185 0 0 0-1.179-.222.082.082 0 0 1-.081-.084c0-.047.037-.084.082-.084.896.007 1.656.315 2.259.917.303.303.534.665.687 1.078.152.41.231.882.235 1.401a.083.083 0 0 1-.081.085h-.001z" fill="#FFF"/></g></svg>