<svg width="23" height="24" xmlns="http://www.w3.org/2000/svg" xmlns:xlink="http://www.w3.org/1999/xlink"><defs><path id="a" d="M0 .61h22.677v22.677H0z"/><path id="c" d="M0 .61h22.677v22.677H0z"/></defs><g fill="none" fill-rule="evenodd"><g transform="translate(0 .057)"><mask id="b" fill="#fff"><use xlink:href="#a"/></mask><path d="M11.339 23.287c6.262 0 11.338-5.076 11.338-11.338S17.601.609 11.34.609-.001 5.688-.001 11.95s5.078 11.338 11.34 11.338" fill="#00A8F6" mask="url(#b)"/></g><g transform="translate(0 .057)"><mask id="d" fill="#fff"><use xlink:href="#c"/></mask><path d="M8.665 5.504c-.69.031-1.161.14-1.574.301a3.171 3.171 0 0 0-1.148.748c-.361.36-.582.722-.748 1.148-.16.413-.27.884-.302 1.574-.031.692-.038.913-.038 2.674 0 1.76.007 1.981.038 2.673.032.69.142 1.162.302 1.574.166.426.387.788.748 1.148.36.361.722.583 1.148.748.413.161.884.27 1.574.302.692.032.912.039 2.674.039 1.761 0 1.982-.007 2.673-.04.69-.03 1.162-.14 1.575-.3a3.175 3.175 0 0 0 1.148-.749c.36-.36.582-.722.748-1.148.16-.412.27-.884.301-1.574.031-.692.039-.912.039-2.673 0-1.761-.008-1.982-.039-2.674-.031-.69-.141-1.161-.301-1.574a3.183 3.183 0 0 0-.748-1.148 3.175 3.175 0 0 0-1.148-.748c-.413-.16-.885-.27-1.575-.301-.691-.032-.912-.04-2.673-.04-1.762 0-1.982.008-2.674.04m.054 11.723c-.632-.03-.976-.135-1.204-.223a2.006 2.006 0 0 1-.746-.486 1.998 1.998 0 0 1-.485-.745c-.089-.229-.195-.572-.223-1.204-.032-.684-.038-.889-.038-2.62 0-1.732.006-1.937.038-2.62.028-.633.134-.976.223-1.205.117-.302.258-.518.485-.745.227-.227.443-.367.746-.485.228-.089.572-.194 1.204-.224.683-.03.888-.037 2.62-.037 1.731 0 1.936.007 2.62.037.632.03.976.135 1.204.224.303.118.518.258.746.485.226.227.367.443.484.745.089.229.195.572.224 1.204.031.684.038.889.038 2.621 0 1.731-.007 1.936-.038 2.62-.029.632-.135.975-.224 1.204a2.005 2.005 0 0 1-.484.745 2.012 2.012 0 0 1-.746.486c-.228.088-.572.194-1.204.223-.684.031-.889.037-2.62.037-1.732 0-1.937-.006-2.62-.037m5.303-8.74a.778.778 0 1 0 1.556 0 .778.778 0 0 0-1.556 0M8.009 11.95a3.33 3.33 0 1 0 6.66-.001 3.33 3.33 0 0 0-6.66.001m1.168 0a2.16 2.16 0 1 1 4.322 0 2.16 2.16 0 0 1-4.322 0" fill="#FFF" fill-rule="nonzero" mask="url(#d)"/></g></g></svg>