<svg width="24" height="24" xmlns="http://www.w3.org/2000/svg" xmlns:xlink="http://www.w3.org/1999/xlink"><defs><path id="a" d="M.635.61h22.677v22.677H.635z"/><path id="c" d="M.635.61h22.677v22.677H.635z"/></defs><g fill="none" fill-rule="evenodd"><g transform="translate(0 .057)"><mask id="b" fill="#fff"><use xlink:href="#a"/></mask><path d="M11.974 23.287c6.262 0 11.338-5.076 11.338-11.338S18.236.609 11.974.609.634 5.688.634 11.95s5.078 11.338 11.34 11.338" fill="#39BC2D" mask="url(#b)"/></g><g transform="translate(0 .057)"><mask id="d" fill="#fff"><use xlink:href="#c"/></mask><path d="M15.824 13.437c-.045-.075-.165-.12-.345-.209-.18-.09-1.067-.523-1.232-.582-.165-.06-.286-.09-.406.09-.12.179-.466.581-.571.7-.106.12-.21.135-.39.046-.18-.09-.762-.279-1.45-.888a5.386 5.386 0 0 1-1.004-1.239c-.105-.179-.01-.276.08-.365.08-.08.18-.209.27-.313.09-.104.12-.179.18-.298.06-.12.03-.224-.015-.314s-.406-.97-.556-1.328c-.15-.358-.3-.298-.406-.298-.105 0-.225-.016-.345-.016a.667.667 0 0 0-.48.224c-.166.18-.632.612-.632 1.492 0 .881.646 1.732.736 1.851.09.119 1.247 1.984 3.08 2.7 1.833.717 1.833.478 2.164.448.33-.03 1.066-.433 1.217-.85.15-.419.15-.777.105-.851M12.11 5.619c-3.41 0-6.184 2.753-6.184 6.136 0 1.344.437 2.587 1.178 3.598l-.773 2.28 2.377-.756a6.182 6.182 0 0 0 3.402 1.015c3.41 0 6.184-2.753 6.184-6.136 0-3.384-2.774-6.137-6.184-6.137m7.356 6.136c0 4.032-3.294 7.3-7.356 7.3-1.29 0-2.502-.33-3.556-.908L4.482 19.44l1.328-3.916a7.222 7.222 0 0 1-1.056-3.77c0-4.03 3.293-7.298 7.356-7.298s7.356 3.268 7.356 7.298" fill="#FFF" fill-rule="nonzero" mask="url(#d)"/></g></g></svg>