<svg width="22" height="22" xmlns="http://www.w3.org/2000/svg"><g fill="#1DA8FA" fill-rule="evenodd"><path d="M21.762 11.238c0 5.812-4.712 10.524-10.524 10.524C5.426 21.762.714 17.05.714 11.238.714 5.426 5.426.714 11.238.714c5.812 0 10.524 4.712 10.524 10.524zm-2 0a8.524 8.524 0 0 0-8.524-8.524 8.524 8.524 0 0 0-8.524 8.524 8.524 8.524 0 0 0 8.524 8.524 8.524 8.524 0 0 0 8.524-8.524z" fill-rule="nonzero"/><path d="M8.24 4.722s-.589-.47-1.147 0c-.56.47-.648.382-1.089.765-.44.382.53-.06.795.382.264.442.44 1.5.146 2.177-.294.676-.352 1-.411 1.147-.06.147-.06.912.088 1.147.147.235.647.912 1.029 1.441.383.53.412.765.412 1s.236.441.5.617c.265.177.53.118.618.207.088.088.147-.118.44 0 .295.117-.352-1.294 0-1.824.354-.53 1.648-.059 2.03 0 .383.06.589-.294.912-.559.324-.265.53-1.059.853-1.235.324-.176 1.618-1.824 1.206-2.235-.412-.412-1.601-.941-1.874-.97-.273-.03-.008.94-.273 1.293s-.824-.441-1.412-.764c-.588-.324.412-.942.647-1.354.235-.411-.824-.205-1.206-.205s-1.059-.06-1.176-.148c-.118-.088 0-.529-.294-.558-.294-.03-.5.265-.589.117a4.362 4.362 0 0 1-.205-.44m6.853 2.058s-1.03-.176-1.147-.765c-.118-.588.117-.44-.5-.706-.618-.264-1.618-.353-1.648-.5-.03-.147-.676-.94-.294-.882.383.059 2.337.059 3.198.97.861.912 1.537 2.648.39 1.883m-1.353 5.093s-.724.435-.724.793c0 .358-.025.666-.282.921-.255.256-.537.692-.153.948.384.255.433.767.486.895.052.129 1.024.077.845.512-.18.436-1.305 2.329-1.254 2.508.052.179.895-.332 1.408-.742.511-.41 2.328-1.28 2.354-1.485.026-.204 0-.46.256-.46s.82-.486.87-.922c.051-.435 1.126-1.254.947-1.304-.179-.052-1.638.025-1.638-.18 0-.204.052-.921-.384-.921-.435 0-.884-.217-1.018-.275-.133-.058-.352-.044-.703 0-.352.044-.478-.714-1.01-.288"/></g></svg>