<svg xmlns="http://www.w3.org/2000/svg" viewBox="0 0 18 42"><path d="M13.9 26.5c1.5 4.4 2.5 8.9-2.3 11.7C8.5 34 11 30 13.9 26.5zM11 39.8C6 41.3 2.8 37.6.3 33.7c4.8.1 9.5.7 10.7 6.1zM8.5 29.5c-2.1-4.7 1.2-8.1 4.9-10.9.5 4.6.4 9.2-4.9 10.9zm-.6 4.1c-5.2-.5-6.7-5-7.5-9.5 4.3 1.9 8.5 4.2 7.5 9.5zm1.6-14.5c-.8-5.1 3.4-7.5 7.7-9.2-.8 4.5-2.1 8.9-7.7 9.2zm-2.9 6.2C1.8 23 2 18.3 2.9 13.9c3.4 3.2 6.5 6.7 3.7 11.4zM11 11.1c-1.3-5 2.5-7.8 6.6-10-.3 4.6-1.1 9.2-6.6 10zM6.8 4.3c2.7 3.8 4.9 7.9 1.2 11.9C3.8 13 5 8.5 6.8 4.3z" fill="#d5dde0"/></svg>