<svg width="202" height="52" xmlns="http://www.w3.org/2000/svg"><g fill="none" fill-rule="evenodd"><path d="M24.507 9.256c9.517 0 17.236 7.698 17.236 17.19 0 9.494-7.719 17.192-17.236 17.192-9.518 0-17.236-7.698-17.236-17.191 0-9.493 7.718-17.191 17.236-17.191" fill="#E83C8C"/><path d="M23.77 51.068H0V27.36l23.77 23.708zM0 2.183h23.77L0 25.893V2.182zM49.013 27.36v23.708h-23.77l23.77-23.708zM76.38 11.74c0 2.16-.15 10.77-7.47 10.77-7.32 0-7.47-8.61-7.47-10.77 0-2.19.15-10.8 7.47-10.8 7.32 0 7.47 8.61 7.47 10.8zm-7.47 7.53c3.03 0 3.21-5.07 3.21-7.53 0-2.91-.33-7.56-3.21-7.56s-3.21 4.65-3.21 7.56c0 2.46.18 7.53 3.21 7.53zm16.45-5.76v7.89c0 .27-.06.6-.6.6h-2.88c-.54 0-.6-.33-.6-.6V2.05c0-.54.33-.6.6-.6h4.92c1.86 0 3.93.15 5.4 1.47 1.47 1.35 1.62 3.15 1.62 4.26 0 1.2-.21 2.52-.96 3.63-.6.9-1.32 1.38-2.49 1.98l4.47 8.01c.12.24.24.39.24.54 0 .21-.18.27-.39.33l-2.73.78c-.45.12-.57.21-1.11-.87l-4.05-8.07h-1.44zm0-3.15h.78c1.77 0 3.6-.24 3.6-3.06 0-2.64-1.71-2.7-3.27-2.7h-1.11v5.76zm19.869-5.31V21.4c0 .54-.33.6-.6.6h-2.88c-.54 0-.6-.33-.6-.6V5.05h-3.99c-.45 0-.45-.33-.45-.45V1.9c0-.12 0-.45.45-.45h12.75c.6 0 .45.42.39.63l-.66 2.49c-.12.42-.39.48-.63.48h-3.78zm21.64 6.69c0 2.16-.15 10.77-7.47 10.77-7.32 0-7.47-8.61-7.47-10.77 0-2.19.15-10.8 7.47-10.8 7.32 0 7.47 8.61 7.47 10.8zm-7.47 7.53c3.03 0 3.21-5.07 3.21-7.53 0-2.91-.33-7.56-3.21-7.56s-3.21 4.65-3.21 7.56c0 2.46.18 7.53 3.21 7.53zm12.969-17.82h5.85c1.53 0 3.87.18 5.58 2.22 1.59 1.89 2.01 5.01 2.01 8.1 0 3.54-.57 6.24-2.01 7.98-1.68 2.01-4.05 2.25-5.58 2.25h-5.85c-.6 0-.6-.51-.6-.66V2.08c0-.27.03-.63.6-.63zm3.48 3.24v14.07h2.13c.96 0 2.31-.45 2.94-2.31.45-1.35.63-3.36.63-4.74 0-1.41-.18-3.39-.63-4.71-.63-1.86-1.98-2.31-2.94-2.31h-2.13zm28.57 7.05c0 2.16-.15 10.77-7.47 10.77-7.32 0-7.47-8.61-7.47-10.77 0-2.19.15-10.8 7.47-10.8 7.32 0 7.47 8.61 7.47 10.8zm-7.47 7.53c3.03 0 3.21-5.07 3.21-7.53 0-2.91-.33-7.56-3.21-7.56s-3.21 4.65-3.21 7.56c0 2.46.18 7.53 3.21 7.53zm15.819-8.7v10.98c0 .12 0 .45-.45.45h-2.55c-.12 0-.45 0-.45-.45V1.9c0-.12 0-.45.45-.45h2.79c.21 0 .3-.06.54.39l4.95 9.3c.99 1.86 1.65 3.99 1.77 4.35h.06c-.03-1.14-.09-2.88-.09-3.9V1.9c0-.45.33-.45.45-.45h2.55c.12 0 .45 0 .45.45v19.65c0 .45-.33.45-.45.45h-2.28c-.33 0-.48-.24-.57-.42l-5.49-10.23c-.54-1.02-1.2-2.22-1.71-4.08h-.06c.06.78.09 2.46.09 3.3zm22.24-5.52V21.4c0 .54-.33.6-.6.6h-2.88c-.54 0-.6-.33-.6-.6V5.05h-3.99c-.45 0-.45-.33-.45-.45V1.9c0-.12 0-.45.45-.45h12.75c.6 0 .45.42.39.63l-.66 2.49c-.12.42-.39.48-.63.48h-3.78zM73.14 47.46l.93 1.68c.12.21.15.33.15.45 0 .21-.24.42-.36.51-1.05.87-2.88 1.41-4.68 1.41-6.84 0-7.71-6.24-7.71-10.5 0-9.27 4.44-11.07 7.62-11.07 1.47 0 3.3.45 4.5 1.5.42.36.57.6.57.78 0 .15-.09.27-.15.39l-1.11 1.68c-.09.15-.15.3-.33.3-.21 0-.48-.21-.63-.33-.78-.63-1.53-1.08-2.49-1.08-1.02 0-1.86.36-2.43.96-.9.93-1.29 2.7-1.29 6.66 0 1.32.09 4.74 1.17 6.21.45.6 1.26 1.26 2.64 1.26.84 0 1.65-.27 2.46-.75.3-.18.54-.36.75-.36.24 0 .3.15.39.3zm22.181-6.72c0 2.16-.15 10.77-7.47 10.77-7.32 0-7.47-8.61-7.47-10.77 0-2.19.15-10.8 7.47-10.8 7.32 0 7.47 8.61 7.47 10.8zm-7.47 7.53c3.03 0 3.21-5.07 3.21-7.53 0-2.91-.33-7.56-3.21-7.56s-3.21 4.65-3.21 7.56c0 2.46.18 7.53 3.21 7.53zm22.061-2.31l-1.74-5.85c-.15-.54-.66-2.37-1.05-4.71h-.09c-.03 4.11-.03 5.22-.06 6.12l-.27 8.85c0 .39-.06.63-.48.63h-2.49c-.3 0-.51-.12-.48-.63l.84-19.29c.03-.51.15-.63.48-.63h3.18c.27 0 .36 0 .51.48l2.43 7.56c.33 1.08.81 2.97.9 3.6h.06c.18-1.41.51-2.25.96-3.6l2.55-7.56c.09-.27.15-.48.54-.48h3.06c.42 0 .6.06.63.96l.84 18.96c.03.54-.21.63-.45.63h-3c-.36 0-.45-.21-.45-.63l-.24-10.17c-.03-.66-.03-.87-.03-1.71V35.4h-.09c-.33 1.83-.6 3.27-1.05 4.71l-1.83 5.85c-.09.27-.09.51-.51.51h-2.13c-.48 0-.45-.24-.54-.51zm23.531-3.18v7.62c0 .27-.06.6-.6.6h-2.88c-.54 0-.6-.33-.6-.6V31.05c0-.54.33-.6.6-.6h4.92c1.35 0 3.21.06 4.59.84 1.14.63 2.43 1.98 2.43 4.89 0 3.96-2.61 6.6-6.87 6.6h-1.59zm0-9.18v5.94h.93c1.74 0 3.45-.24 3.45-3.15 0-2.76-1.92-2.79-3.06-2.79h-1.32zm21.341 13.8h7.29c.15 0 .45.03.48.33v.06c0 .21-.03.3-.06.39l-.57 2.28c-.12.42-.18.54-.66.54h-9.96c-.54 0-.6-.33-.6-.6V31.05c0-.54.33-.6.6-.6h2.88c.54 0 .6.33.6.6V47.4zm19.241-5.49v5.85h6.24c.27 0 .6.06.6.6v2.04c0 .54-.33.6-.6.6h-9.72c-.54 0-.6-.33-.6-.6V31.05c0-.54.33-.6.6-.6h10.17c.12 0 .27.03.36.15.09.12.06.27.03.39l-.6 2.25c-.03.15-.12.45-.57.45h-5.91v4.98h5.04c.54 0 .6.33.6.6v2.04c0 .54-.33.6-.6.6h-5.04zm27.371 8.55l-2.76.78c-.24.06-.45.03-.57-.09-.03-.03-.12-.12-.3-.48l-2.58-5.07c-.45-.9-.66-1.35-.87-2.01h-.06c-.27.75-.6 1.44-.84 1.89l-2.79 5.28c-.03.09-.09.15-.15.24-.09.15-.18.27-.39.27-.03 0-.12 0-.36-.06l-2.76-.63c-.24-.06-.6-.12-.6-.42 0-.12.03-.24.21-.54l5.58-9.51-5.07-8.28c-.12-.21-.27-.39-.27-.57 0-.27.27-.3.54-.36l3-.66c.24-.06.33-.06.39-.06.24 0 .3.18.39.36l2.22 4.44c.51 1.02.75 1.68.9 2.28h.06c.3-1.11.6-1.74.84-2.28l1.95-4.2c.06-.12.09-.21.15-.33.06-.12.18-.27.39-.27.06 0 .27.03.36.06l2.73.75c.27.09.57.15.57.42 0 .06-.03.12-.12.3l-4.77 8.4 5.34 9.42c.09.15.21.36.21.51 0 .27-.33.36-.57.42z" fill="#179BFF"/></g></svg>