<svg width="194" height="51" xmlns="http://www.w3.org/2000/svg"><g fill="none" fill-rule="evenodd"><path d="M24.507 8.256c9.517 0 17.236 7.698 17.236 17.19 0 9.494-7.719 17.192-17.236 17.192-9.518 0-17.236-7.698-17.236-17.191 0-9.493 7.718-17.191 17.236-17.191" fill="#E83C8C"/><path d="M23.77 50.068H0V26.36l23.77 23.708zM0 1.183h23.77L0 24.893V1.182zM49.013 26.36v23.708h-23.77l23.77-23.708zm19.99-15.743c0-2.86-.325-7.432-3.164-7.432-2.838 0-3.164 4.571-3.164 7.432 0 2.418.178 7.402 3.164 7.402s3.164-4.984 3.164-7.402m-3.164 10.587c-7.215 0-7.362-8.464-7.362-10.587C58.477 8.464 58.624 0 65.839 0s7.363 8.464 7.363 10.617c0 2.123-.148 10.587-7.363 10.587M81.273 9.437h.916c1.715 0 3.4-.236 3.4-3.096 0-2.713-1.892-2.743-3.015-2.743h-1.301v5.84zm0 10.676c0 .265-.06.59-.592.59h-2.838c-.533 0-.592-.325-.592-.59V1.091c0-.53.325-.59.592-.59h4.849c1.33 0 3.164.06 4.524.826 1.124.62 2.395 1.947 2.395 4.807 0 3.893-2.573 6.488-6.771 6.488h-1.567v7.491zm18.213 0c0 .53-.326.59-.592.59h-2.838c-.533 0-.592-.324-.592-.59V4.04h-3.933c-.443 0-.443-.324-.443-.442V.944c0-.118 0-.443.443-.443h12.567c.592 0 .444.413.385.62l-.65 2.447c-.119.413-.385.472-.622.472h-3.725v16.073zm16.35-9.496c0-2.86-.325-7.432-3.164-7.432-2.838 0-3.164 4.571-3.164 7.432 0 2.418.178 7.402 3.164 7.402 2.987 0 3.164-4.984 3.164-7.402m-3.164 10.587c-7.215 0-7.362-8.464-7.362-10.587 0-2.153.147-10.617 7.362-10.617s7.363 8.464 7.363 10.617c0 2.123-.148 10.587-7.363 10.587m19.485-17.518h-3.046v3.687c0 1.622-.266 4.512-.68 6.4a15.196 15.196 0 0 1-1.301 3.745h5.027V3.686zm-6.358 17.017v4.188c0 .53-.325.59-.591.59h-2.573c-.532 0-.591-.325-.591-.59v-6.783c0-.266.06-.59.591-.59h.562c.946-1.681 1.36-3.156 1.656-4.955.414-2.536.444-5.249.444-5.78l.029-5.692c0-.265.06-.59.592-.59h9.668c.533 0 .592.325.592.59v16.427h1.183c.532 0 .591.324.591.59v6.783c0 .265-.06.59-.591.59h-2.573c-.532 0-.591-.325-.591-.59v-4.188h-8.398zm25.132-10.086c0-2.86-.325-7.432-3.164-7.432-2.838 0-3.164 4.571-3.164 7.432 0 2.418.178 7.402 3.164 7.402 2.987 0 3.164-4.984 3.164-7.402m-3.164 10.587c-7.215 0-7.362-8.464-7.362-10.587 0-2.153.147-10.617 7.362-10.617s7.363 8.464 7.363 10.617c0 2.123-.148 10.587-7.363 10.587M159.18 1.091c0-.56.295-.59.59-.59h2.84c.295 0 .59.03.59.59v7.52h5.59v-7.52c0-.56.295-.59.59-.59h2.84c.561 0 .59.295.59.59v19.022c0 .295-.029.59-.59.59h-2.84c-.295 0-.59-.03-.59-.59v-8.316h-5.59v8.316c0 .56-.295.59-.59.59h-2.84c-.295 0-.59-.03-.59-.59V1.091zm24.451 19.022c0 .53-.325.59-.591.59h-2.84c-.532 0-.591-.324-.591-.59V4.04h-3.933c-.443 0-.443-.324-.443-.442V.944c0-.118 0-.443.443-.443h12.567c.591 0 .443.413.384.62l-.65 2.447c-.119.413-.384.472-.621.472h-3.726v16.073zM60.28 50.192c-.296 0-.591-.03-.591-.59V30.58c0-.56.295-.59.591-.59h2.839c.296 0 .591.03.591.59v7.52h1.006c1.419 0 2.188-.412 2.513-2.211l.443-2.507c.207-1.21.474-2.36 1.804-3.156.857-.53 1.922-.737 2.514-.737.236 0 .473.06.561.354l.621 2.094c.089.295-.03.56-.295.62l-.74.176c-.68.177-1.064.413-1.3 1.888l-.356 2.093c-.206 1.18-.71 2.3-2.306 2.861v.088c2.158.679 2.543 2.566 2.661 3.127l.473 2.477c.267 1.386.414 1.77 1.301 1.976l.77.177c.383.088.354.413.295.59l-.769 2.241c-.089.236-.148.442-.65.442-.326 0-2.04-.088-3.076-.973-.916-.796-1.064-1.976-1.241-2.92l-.71-3.538c-.177-.885-.414-1.976-2.248-1.976h-1.27v8.316c0 .56-.296.59-.592.59H60.28zm25.665-10.086c0-2.86-.326-7.432-3.164-7.432-2.839 0-3.164 4.571-3.164 7.432 0 2.418.177 7.402 3.164 7.402 2.986 0 3.164-4.984 3.164-7.402M82.78 50.693c-7.215 0-7.363-8.464-7.363-10.587 0-2.153.148-10.617 7.363-10.617 7.215 0 7.362 8.464 7.362 10.617 0 2.123-.147 10.587-7.362 10.587m15.67-11.206c-.147-.531-.65-2.33-1.034-4.63h-.089c-.03 4.04-.03 5.131-.059 6.016l-.266 8.7c0 .383-.06.62-.473.62h-2.455c-.295 0-.502-.119-.472-.62l.827-18.963c.03-.502.148-.62.474-.62h3.134c.266 0 .355 0 .503.472l2.394 7.432c.326 1.062.799 2.92.887 3.54h.06c.177-1.387.502-2.213.946-3.54l2.513-7.432c.089-.265.148-.471.532-.471h3.016c.415 0 .592.059.622.943l.827 18.639c.03.53-.207.62-.443.62h-2.957c-.355 0-.443-.207-.443-.62l-.237-9.998c-.03-.649-.03-.855-.03-1.68v-3.039h-.088c-.326 1.798-.592 3.214-1.035 4.63l-1.804 5.75c-.089.266-.089.502-.503.502h-2.099c-.473 0-.444-.236-.532-.502l-1.715-5.75zM119 49.602c0 .266-.06.59-.592.59h-2.839c-.532 0-.591-.324-.591-.59V30.58c0-.53.325-.59.591-.59h12.182c.533 0 .592.325.592.59v19.022c0 .53-.325.59-.592.59h-2.838c-.532 0-.592-.324-.592-.59V33.176H119v16.426zm19.572-13.3c0 .825-.03 2.33-.325 6.34-.207 2.89-.592 5.84-3.105 7.137-.65.324-2.543.915-3.282.915-.089 0-.355 0-.414-.266l-.74-2.654c-.088-.295 0-.56.296-.59l.533-.059c2.099-.236 2.69-1.652 2.986-4.542.178-1.77.355-5.544.355-7.372v-4.63c0-.59.473-.59.62-.59h9.493c.295 0 .59.029.59.59v19.021c0 .56-.295.59-.59.59h-2.81c-.62 0-.62-.354-.62-.59V33.53h-2.987v2.773zm16.291 10.705h6.15c.267 0 .592.059.592.59v2.005c0 .531-.325.59-.592.59h-9.58c-.532 0-.591-.324-.591-.59V30.58c0-.53.325-.59.591-.59h10.024c.118 0 .266.03.355.148.088.118.059.265.03.383l-.592 2.212c-.03.148-.118.442-.562.442h-5.825v4.896h4.967c.533 0 .592.324.592.59v2.005c0 .531-.325.59-.592.59h-4.967v5.75zm11.264 3.185c-.295 0-.59-.03-.59-.59V30.58c0-.56.295-.59.59-.59h2.84c.295 0 .59.03.59.59v7.52h1.006c1.42 0 2.188-.412 2.513-2.211l.444-2.507c.207-1.21.473-2.36 1.803-3.156.858-.53 1.922-.737 2.514-.737.236 0 .473.06.562.354l.62 2.094c.09.295-.029.56-.295.62l-.74.176c-.68.177-1.064.413-1.3 1.888l-.355 2.093c-.207 1.18-.71 2.3-2.307 2.861v.088c2.159.679 2.543 2.566 2.662 3.127l.473 2.477c.266 1.386.414 1.77 1.3 1.976l.77.177c.384.088.354.413.295.59l-.769 2.241c-.088.236-.148.442-.65.442-.325 0-2.04-.088-3.075-.973-.917-.796-1.065-1.976-1.242-2.92l-.71-3.538c-.177-.885-.414-1.976-2.247-1.976h-1.272v8.316c0 .56-.295.59-.59.59h-2.84zm27.587-1.828c.118.206.148.324.148.442 0 .206-.237.413-.355.501-1.035.855-2.839 1.387-4.613 1.387-6.742 0-7.599-6.135-7.599-10.323 0-9.113 4.376-10.882 7.51-10.882 1.45 0 3.253.443 4.436 1.475.414.354.562.59.562.766 0 .148-.09.266-.148.384l-1.094 1.652c-.089.147-.148.294-.326.294-.207 0-.473-.206-.62-.324-.77-.62-1.509-1.062-2.455-1.062-1.005 0-1.833.354-2.395.944-.887.914-1.271 2.654-1.271 6.547 0 1.298.088 4.66 1.153 6.105.443.59 1.242 1.238 2.602 1.238.828 0 1.626-.265 2.425-.737.295-.177.532-.354.739-.354.236 0 .295.148.384.295l.917 1.652z" fill="#179BFF"/></g></svg>