<svg xmlns="http://www.w3.org/2000/svg" width="48" height="46"><g fill="none" fill-rule="evenodd"><path fill="#7A509D" d="M23.535 46C36.532 46 47.07 35.704 47.07 23c0-12.7-10.538-23-23.535-23C10.537 0 0 10.3 0 23c0 12.704 10.537 23 23.535 23"/><path fill="#FFF" fill-rule="nonzero" d="M34.423 11.374c-.701-.66-3.533-2.766-9.841-2.795 0 0-7.438-.46-11.064 2.947-2.02 2.068-2.73 5.093-2.804 8.845-.075 3.752-.172 10.78 6.444 12.687l.007.002-.004 2.908s-.042 1.179.714 1.418c.916.292 1.454-.604 2.328-1.569a73.43 73.43 0 0 0 1.641-1.901c4.526.388 8.006-.503 8.401-.634.915-.303 6.084-.981 6.925-8.01.868-7.248-.421-11.83-2.747-13.898m.781 13.373c-.71 5.87-4.903 6.24-5.675 6.496-.33.107-3.386.886-7.23.628l-4.166 4.62-.004-5.324-.033-.008c-5.597-1.591-5.41-7.561-5.346-10.694.063-3.134.638-5.7 2.346-7.427 3.066-2.844 9.384-2.42 9.384-2.42 5.337.024 7.894 1.67 8.488 2.221 1.968 1.726 2.97 5.858 2.236 11.908"/><path fill="#FFF" d="M29.582 24.516a37.947 37.947 0 0 0-1.238-.995c-.383-.28-.992-.659-1.333-.853-.61-.34-1.235-.126-1.493.209l-.536.675c-.275.342-.699.285-.809.263-.791-.195-1.634-.68-2.495-1.496-.872-.824-1.398-1.685-1.587-2.58l-.013-.059c-.051-.367.01-.537.164-.787l.03-.024c.362-.33 1.032-.73 1.122-1.112.264-.664-.881-2.046-1.044-2.29 0 0-.833-1.079-1.13-1.284-.318-.261-.814-.41-1.313-.11l-.025.019c-1.435.95-1.954 1.497-1.813 2.31l.074.329c.728 2.245 2.132 4.638 4.227 6.77 2.072 2.104 4.313 3.365 6.523 4.238.573.186 1.168.025 1.779-.485l.01-.007a5.607 5.607 0 0 0 1.115-1.377l.003-.01c.269-.518.177-1.01-.218-1.344m-2.996-4.19a.155.155 0 0 1-.158-.146c-.028-.54-.181-.954-.456-1.23-.274-.275-.684-.429-1.218-.456a.155.155 0 0 1-.15-.162.158.158 0 0 1 .167-.146c.617.033 1.097.218 1.428.55.33.33.513.812.545 1.428a.156.156 0 0 1-.15.162h-.008m2.134 0h-.004a.159.159 0 0 1-.159-.158c.025-1.047-.303-1.932-.973-2.632a3.556 3.556 0 0 0-1.208-.821 5.146 5.146 0 0 0-1.62-.358.158.158 0 0 1-.15-.166.16.16 0 0 1 .172-.144c1.295.091 2.319.52 3.045 1.279.729.76 1.086 1.72 1.06 2.848a.16.16 0 0 1-.163.152"/><path fill="#FFF" d="M29.792 21.395c-.088 0-.16-.079-.161-.179-.008-1.074-.155-2.047-.44-2.891a6.15 6.15 0 0 0-1.275-2.188 5.735 5.735 0 0 0-1.902-1.391 5.796 5.796 0 0 0-2.32-.479c-.088 0-.16-.082-.16-.18.002-.101.074-.18.162-.18h.001c1.762.014 3.256.677 4.443 1.972a6.475 6.475 0 0 1 1.35 2.32c.3.881.456 1.897.463 3.014 0 .1-.07.18-.16.182z"/></g></svg>