<svg xmlns="http://www.w3.org/2000/svg" xmlns:xlink="http://www.w3.org/1999/xlink" width="44" height="44"><defs><path id="a" d="M1.217 1.17h43.465v43.464H1.217z"/><path id="c" d="M1.217 1.17h43.465v43.464H1.217z"/></defs><g fill="none" fill-rule="evenodd"><g transform="translate(-1 -.892)"><mask id="b" fill="#fff"><use xlink:href="#a"/></mask><path fill="#39BC2D" d="M22.95 44.634c12.002 0 21.732-9.73 21.732-21.733 0-12-9.73-21.732-21.733-21.732C10.947 1.169 1.217 10.9 1.217 22.9c0 12.004 9.73 21.733 21.732 21.733" mask="url(#b)"/></g><g transform="translate(-1 -.892)"><mask id="d" fill="#fff"><use xlink:href="#c"/></mask><path fill="#FFF" fill-rule="nonzero" d="M30.33 25.754c-.087-.143-.317-.229-.662-.4-.346-.171-2.046-1.002-2.361-1.116-.317-.113-.548-.17-.778.172-.23.343-.893 1.115-1.095 1.344-.202.23-.403.258-.75.087-.344-.172-1.457-.534-2.778-1.702-1.028-.909-1.72-2.03-1.922-2.374-.202-.344-.022-.53.15-.7.157-.154.347-.4.52-.601.173-.2.23-.343.344-.571.117-.23.06-.43-.028-.602-.087-.171-.778-1.858-1.065-2.546-.288-.686-.575-.57-.778-.57-.201 0-.432-.03-.662-.03-.23 0-.605.087-.922.43-.317.343-1.21 1.172-1.21 2.859 0 1.688 1.238 3.318 1.412 3.547.173.227 2.39 3.803 5.904 5.176 3.512 1.373 3.512.915 4.146.858.634-.058 2.044-.83 2.333-1.63.288-.802.288-1.488.202-1.631M23.21 10.77c-6.536 0-11.852 5.275-11.852 11.76 0 2.575.838 4.958 2.257 6.896l-1.48 4.37 4.555-1.449a11.85 11.85 0 0 0 6.522 1.945c6.534 0 11.852-5.276 11.852-11.76 0-6.487-5.317-11.762-11.854-11.762m14.1 11.76c0 7.727-6.313 13.99-14.1 13.99-2.47 0-4.794-.632-6.814-1.74L8.59 37.26l2.545-7.505a13.842 13.842 0 0 1-2.024-7.225c0-7.725 6.313-13.989 14.1-13.989s14.098 6.264 14.098 13.99" mask="url(#d)"/></g></g></svg>