<svg width="24" height="18" xmlns="http://www.w3.org/2000/svg"><g fill="none" fill-rule="evenodd"><path d="M12.011.05C5.406.05.051 5.426.051 12.057c0 3.596 1.56 5.94 1.56 5.94L22.407 18s1.564-2.563 1.564-5.942C23.971 5.426 18.617.05 12.011.05zm9.518 16.486l-18.998-.008S1.52 14.62 1.52 12.02c0-5.813 4.715-10.524 10.532-10.524S22.584 6.207 22.584 12.02c0 2.631-1.055 4.516-1.055 4.516z" fill="#0017C8" fill-rule="nonzero"/><path d="M19.797 14.511L15.392 3.24h-.15L12.05 9.454l-3.305-6.27L4.22 14.511H3.05v.91h6.408v-.91H8.186l1.272-3.54 2.593 4.45 2.491-4.45 1.272 3.54h-1.272v.91h6.356v-.91z" fill="#EB1E00"/></g></svg>