<svg width="20" height="19" xmlns="http://www.w3.org/2000/svg"><g fill="#172A3F"><path d="M16.875 19H3.125c-.5 0-1-.375-1-1v-6.25H1.25a.94.94 0 0 1-.875-.625c-.125-.125 0-.5.25-.875l8.75-8.75a.962.962 0 0 1 1.25.125l8.75 8.75c.25.25.375.625.25 1a.94.94 0 0 1-.875.625h-1v6.25c0 .375-.375.75-.875.75zm-12.75-1.875h11.75v-6.25c0-.375.25-.75.625-.875L10 3.625l-6.5 6.5a.94.94 0 0 1 .625.875v6.125zM16.5 6.25c-.5 0-1-.375-1-1V2.875h-.25v.375c0 .5-.375 1-1 1s-.75-.5-.75-1.125v-1.25c0-.5.375-1 1-1h2.125c.5 0 1 .375 1 1V5.25c-.125.5-.625 1-1.125 1z"/><path d="M12.125 16.375c-.5 0-1-.375-1-1V11H8.75v4.5c0 .5-.375 1-1 1s-1-.375-1-1v-5.375c0-.5.375-1 1-1H12c.5 0 1 .375 1 1V15.5c.125.5-.375.875-.875.875z"/></g></svg>