<svg xmlns="http://www.w3.org/2000/svg" width="62" height="76"><path fill="#FFF" fill-rule="evenodd" d="M48.374.545C38.57-.398 33.1 3.043 31 4.793c-2.099-1.75-7.57-5.19-17.374-4.248C.622 1.796-1.566 14.176.873 33.675 4.497 62.648 10.854 76 17.463 76c6.608 0 6.182-4.377 7.461-13.757 1.28-9.38 1.492-12.298 5.97-12.298.036 0 .07-.01.106-.017.036.006.07.017.107.017 4.476 0 4.69 2.918 5.969 12.298C38.355 71.623 37.929 76 44.537 76c6.609 0 12.966-13.352 16.59-42.325 2.439-19.499.251-31.879-12.753-33.13z"/></svg>