<svg xmlns="http://www.w3.org/2000/svg" width="152" height="101"><path d="M62.944 63.473c1.094 3.109 3.157 6.658 6.269 11.001a160.3 160.3 0 0 0 2.204 2.993c.45.599 1.94 2.565 2.15 2.843 1.851 2.456 2.885 3.912 3.735 5.361 2.124 3.624 1.356 7.958-1.371 10.706-2.754 2.774-7.138 3.56-10.79 1.383-1.46-.87-2.92-1.935-5.273-3.769-.434-.338-2.257-1.768-2.733-2.139a156.38 156.38 0 0 0-2.854-2.181c-4.781-3.557-8.577-5.728-11.78-6.588-1.083-.29-2.034-.408-2.856-.37-1.163.055-2.616.433-4.322 1.163-2.937 1.256-6.258 3.373-10.32 6.467-.948.723-1.917 1.482-3.097 2.422-.476.38-2.448 1.96-2.947 2.357-2.51 1.997-4.06 3.15-5.579 4.07a8.785 8.785 0 0 1-10.824-1.315A8.804 8.804 0 0 1 1.26 87.134c.929-1.556 2.094-3.124 4.03-5.536.469-.585 2.149-2.658 2.292-2.835a173.369 173.369 0 0 0 2.338-2.95c3.785-4.9 6.074-8.734 6.983-11.962.23-.818.356-1.56.387-2.224.062-1.329-.24-2.99-.942-4.948-1.114-3.112-3.085-6.626-5.968-10.846-.636-.932-1.31-1.888-2.098-2.987a336.8 336.8 0 0 0-1.036-1.434l-1.007-1.389c-1.798-2.482-2.736-3.841-3.54-5.213-2.125-3.625-1.357-7.958 1.37-10.706 2.754-2.774 7.138-3.56 10.79-1.383 1.545.921 3.08 2.079 5.42 3.993.581.475 2.67 2.203 2.732 2.254a164.9 164.9 0 0 0 2.833 2.292c5.151 4.06 9.114 6.347 12.3 6.954a7.437 7.437 0 0 0 1.736.142c1.3-.061 3.015-.565 5.067-1.548 2.803-1.341 5.934-3.41 9.719-6.327.98-.756 1.982-1.55 3.203-2.534.467-.376 2.51-2.03 3.04-2.457 2.58-2.075 4.164-3.264 5.71-4.2a8.785 8.785 0 0 1 10.825 1.314 8.804 8.804 0 0 1 1.296 10.743c-.95 1.592-2.16 3.199-4.172 5.664-.506.62-2.363 2.872-2.391 2.906a180.713 180.713 0 0 0-2.446 3.029c-3.624 4.604-5.905 8.24-6.977 11.351-.373 1.084-.571 2.038-.61 2.858-.054 1.169.2 2.614.8 4.318zm80.528-41.866c.547 1.545 1.578 3.309 3.134 5.467.332.46.681.93 1.102 1.488l1.075 1.413c.926 1.22 1.443 1.944 1.868 2.664 1.062 1.802.678 3.956-.686 5.321-1.377 1.38-3.569 1.77-5.395.688-.73-.433-1.46-.962-2.636-1.873l-1.366-1.063c-.542-.42-.99-.76-1.427-1.085-2.391-1.767-4.289-2.847-5.89-3.274-.542-.144-1.017-.203-1.429-.183-.581.027-1.308.215-2.16.577-1.469.625-3.13 1.677-5.16 3.215-.475.359-.96.736-1.549 1.203l-1.474 1.172c-1.255.992-2.03 1.565-2.789 2.022a4.412 4.412 0 0 1-5.412-.653 4.356 4.356 0 0 1-.648-5.34c.464-.773 1.047-1.552 2.015-2.75.234-.292 1.075-1.322 1.146-1.41.462-.57.823-1.021 1.169-1.466 1.893-2.435 3.037-4.341 3.491-5.946a4.94 4.94 0 0 0 .194-1.105c.031-.66-.12-1.486-.471-2.46-.557-1.546-1.542-3.292-2.984-5.39a76.66 76.66 0 0 0-1.05-1.484c-.155-.215-.313-.434-.517-.713l-.504-.69c-.899-1.234-1.367-1.91-1.77-2.591-1.062-1.802-.678-3.956.686-5.321 1.377-1.38 3.569-1.77 5.395-.688.772.458 1.54 1.034 2.71 1.985.29.236 1.335 1.095 1.366 1.12.552.453.987.803 1.416 1.14 2.576 2.017 4.557 3.154 6.15 3.456.318.06.606.082.868.07.65-.03 1.507-.28 2.534-.769 1.4-.667 2.967-1.695 4.859-3.145.49-.376.99-.77 1.602-1.26.233-.186 1.254-1.008 1.52-1.22 1.29-1.032 2.081-1.623 2.854-2.088a4.412 4.412 0 0 1 5.413.653 4.356 4.356 0 0 1 .648 5.34c-.475.791-1.08 1.59-2.086 2.815-.253.308-1.182 1.427-1.196 1.444a89.92 89.92 0 0 0-1.222 1.505c-1.812 2.289-2.953 4.096-3.489 5.642-.187.539-.286 1.013-.305 1.42-.027.581.1 1.3.4 2.147z" fill="#FFF"/></svg>