<svg xmlns="http://www.w3.org/2000/svg" width="42" height="56"><path d="M38.72 28.495c.369-.318 2.811-1.173 3.227-4.057.413-2.868-1.707-4.424-1.95-4.8a1.63 1.63 0 0 1-.263-1.818c.138-.466 1.73-2.503.516-5.154-1.207-2.634-3.834-2.8-4.243-2.986-.576-.155-1.117-.876-1.206-1.607-.103-.353.04-3.185-2.36-4.722-2.443-1.566-4.743-.29-5.188-.225a1.64 1.64 0 0 1-1.766-.518C25.119 2.29 23.922 0 21 0c-2.905 0-4.148 2.315-4.487 2.608a1.64 1.64 0 0 1-1.766.518c-.483-.07-2.73-1.351-5.188.224C7.154 4.893 7.31 7.7 7.2 8.073c-.089.731-.63 1.452-1.206 1.607-.444.201-3.029.336-4.243 2.986-1.206 2.635.389 4.724.516 5.154a1.63 1.63 0 0 1-.263 1.818c-.264.409-2.365 1.915-1.95 4.8.413 2.867 2.888 3.765 3.227 4.057.576.351.877 1.007.765 1.671 0 .487-.952 2.887.962 5.09.148.17.307.327.473.473L.178 48.603a1.637 1.637 0 0 0 .188 1.585c.334.46.882.716 1.45.675l6.52-.462 4.391 5.035a1.648 1.648 0 0 0 2.77-.468L21 41.234l5.731 13.755a1.645 1.645 0 0 0 2.785.419l4.171-5.005 6.497.46a1.649 1.649 0 0 0 1.45-.675c.334-.46.405-1.06.188-1.585L36.52 35.729c.166-.146.325-.303.473-.473 1.902-2.19.962-4.642.962-5.09a1.629 1.629 0 0 1 .765-1.67zM8.536 36.95c.294.011.362-.001 1.386-.021a1.633 1.633 0 0 1 1.549.993l.212.492-3.709 8.722-3.744.266L8.536 36.95zm4.905 14.304l-2.45-2.809 3.05-7.174a4.965 4.965 0 0 0 3.182.55l-3.782 9.433zm15.285-.032l-3.914-9.395a4.945 4.945 0 0 0 3.147-.556l3.061 7.2-2.294 2.751zm9.045-3.82l-3.744-.266-3.709-8.722.212-.492a1.64 1.64 0 0 1 1.55-.993c.997.02 1.09.032 1.385.02l4.306 10.453zm-.767-21.707a4.896 4.896 0 0 0-2.295 5.012c.04.664.521 1.566-.202 2.4-.726.834-1.665.483-2.353.541a4.912 4.912 0 0 0-4.648 2.979c-.52.833-.449 1.61-1.47 1.91-1.063.31-1.662-.49-2.273-.814a4.925 4.925 0 0 0-5.525 0c-.584.309-1.212 1.124-2.273.813-.835-.245-1.43-1.766-1.47-1.91a4.913 4.913 0 0 0-4.648-2.978c-.987.022-1.73.175-2.353-.542-.725-.835-.243-1.71-.202-2.4a4.896 4.896 0 0 0-2.295-5.011c-.531-.407-1.529-.633-1.686-1.724-.157-1.095.72-1.566 1.13-2.128a4.891 4.891 0 0 0 .787-5.454c-.225-.626-.943-1.357-.484-2.36.46-1.005 1.459-.93 2.105-1.18 1.879-.504 3.366-2.307 3.617-4.383.117-.501-.017-1.784.873-2.355.932-.597 1.73.003 2.41.142a4.92 4.92 0 0 0 5.3-1.553c.477-.463.846-1.418 1.952-1.418 1.107 0 1.456.938 1.95 1.418a4.922 4.922 0 0 0 5.301 1.553c.653-.133 1.48-.738 2.41-.142.893.572.756 1.854.873 2.355.25 2.076 1.738 3.879 3.617 4.383.621.24 1.645.178 2.105 1.18.46 1.006-.25 1.71-.484 2.36a4.89 4.89 0 0 0 .787 5.454c.39.534 1.287 1.036 1.13 2.128-.157 1.091-1.153 1.315-1.686 1.724z"/><path d="M20.5 10C14.159 10 9 15.159 9 21.5S14.159 33 20.5 33 32 27.841 32 21.5 26.841 10 20.5 10zm0 19.714c-4.53 0-8.214-3.685-8.214-8.214 0-4.53 3.685-8.214 8.214-8.214 4.53 0 8.214 3.685 8.214 8.214 0 4.53-3.685 8.214-8.214 8.214z"/></svg>