<svg width="55" height="54" xmlns="http://www.w3.org/2000/svg"><path d="M54.796 51.648l-16.22-28.582a1.617 1.617 0 0 0-1.408-.812h-.007a1.616 1.616 0 0 0-1.408.824l-4.88 8.785-8.207-14.862v-4.345h6.445v1.582c0 .874.722 1.582 1.612 1.582h12.89c.594 0 1.14-.32 1.421-.835.28-.514.25-1.139-.08-1.624l-2.627-3.869 2.627-3.868c.33-.486.36-1.11.08-1.624a1.616 1.616 0 0 0-1.42-.836h-11.28V1.582C32.334.708 31.613 0 30.723 0h-9.668c-.89 0-1.612.708-1.612 1.582v15.417L.197 51.661a1.557 1.557 0 0 0 .029 1.565c.29.48.817.774 1.385.774H53.39c.571 0 1.1-.297 1.389-.78.29-.484.296-1.082.018-1.572zM21.051 20.715l5.201 9.419-1.77 1.158-2.288-2.246a1.632 1.632 0 0 0-2.279 0l-2.288 2.246-1.797-1.176 5.22-9.401zM40.602 6.328L39.05 8.615a1.558 1.558 0 0 0 0 1.755l1.552 2.286h-8.268V6.328h8.268zM22.666 3.164h6.445v6.328h-6.445V3.164zM4.325 50.836l9.957-17.93 2.656 1.738c.64.419 1.49.336 2.033-.197l2.084-2.045 2.083 2.045c.311.305.724.463 1.14.463.31 0 .62-.087.893-.266l2.624-1.717 9.889 17.909H4.325zm37.025 0l-8.647-15.66 4.48-8.064 13.463 23.724H41.35z"/></svg>