<svg width="108" height="99" xmlns="http://www.w3.org/2000/svg"><g fill="none" fill-rule="evenodd"><circle cx="33" cy="33" r="33" transform="translate(19 33)" fill="#E83C8C" opacity=".2"/><path d="M28 81c15 0 24-17.237 24-38.5S44 4 28 4 4 21.237 4 42.5 13 81 28 81z" stroke="#E83C8C" stroke-width="8" fill-rule="nonzero"/><path d="M84.707 22.713c0 2.784-.867 5.155-2.6 7.112-1.733 1.957-3.974 2.936-6.724 2.936-2.71 0-4.95-.979-6.723-2.936-1.773-1.957-2.66-4.328-2.66-7.112 0-2.865.877-5.296 2.63-7.293 1.753-1.998 4.024-2.996 6.813-2.996 2.79 0 5.06 1.029 6.814 3.087 1.633 1.936 2.45 4.337 2.45 7.202zm14.464-8.292c0 .605-.24 1.412-.718 2.421l-9.98 20.64a226.747 226.747 0 0 1-2.451 5.265 1833.095 1833.095 0 0 0-6.216 12.771C79.01 57.173 77.933 58 76.58 58c-.757 0-1.395-.252-1.913-.757-.518-.504-.777-1.14-.777-1.906 0-.605.299-1.533.897-2.784l18.288-37.95C93.911 12.868 94.947 12 96.182 12c1.992 0 2.989.807 2.989 2.421zM107 47.53c0 2.825-.877 5.205-2.63 7.142-1.753 1.937-4.004 2.905-6.753 2.905-2.67 0-4.891-.988-6.664-2.965-1.773-1.978-2.66-4.338-2.66-7.082 0-2.905.857-5.347 2.57-7.324 1.713-1.977 3.984-2.966 6.813-2.966 2.87 0 5.14.979 6.814 2.936 1.673 1.957 2.51 4.408 2.51 7.354zM75.383 27.797c1.355 0 2.43-.524 3.228-1.573.677-.928 1.016-2.119 1.016-3.571 0-1.413-.339-2.603-1.016-3.571-.757-1.13-1.813-1.695-3.168-1.695-1.394 0-2.47.545-3.227 1.634-.678.928-1.016 2.139-1.016 3.632 0 1.331.378 2.522 1.135 3.57.757 1.05 1.773 1.574 3.048 1.574zm26.477 19.55c0-1.412-.339-2.602-1.016-3.57-.797-1.05-1.873-1.574-3.227-1.574-1.355 0-2.411.565-3.168 1.694-.677.969-1.016 2.16-1.016 3.571 0 1.332.359 2.482 1.076 3.45.797 1.09 1.833 1.635 3.108 1.635 1.354 0 2.43-.545 3.227-1.635.677-.928 1.016-2.118 1.016-3.57z" stroke="#E83C8C" fill="#E83C8C"/></g></svg>