<svg xmlns="http://www.w3.org/2000/svg" height="512" width="512"><path d="M492 393.332h-58.668V118.668H492c11.047 0 20-8.953 20-20s-8.953-20-20-20h-58.668V20c0-11.047-8.953-20-20-20s-20 8.953-20 20v58.668H118.668V20c0-11.047-8.953-20-20-20s-20 8.953-20 20v58.668H20c-11.047 0-20 8.953-20 20s8.953 20 20 20h58.668v274.668H20c-11.047 0-20 8.953-20 20 0 11.043 8.953 20 20 20h58.668V492c0 11.047 8.953 20 20 20s20-8.953 20-20v-58.668h274.668V492c0 11.047 8.953 20 20 20 11.043 0 20-8.953 20-20v-58.668H492c11.047 0 20-8.953 20-20s-8.953-20-20-20zM393.332 236H276V118.668h117.332zM236 118.668V236H118.668V118.668zM118.668 276H236v117.332H118.668zM276 393.332V276h117.332v117.332zm0 0" data-original="#000000" class="active-path" data-old_color="#000000" fill="#E00"/></svg>