<svg xmlns="http://www.w3.org/2000/svg" width="96" height="99"><g fill="none" fill-rule="evenodd"><circle cx="48" cy="66" r="33" fill="#6BCFF6" opacity=".2"/><path fill="#179BFF" fill-rule="nonzero" d="M34.224 69.126c1.542 8.272 8.753 13.697 16.79 12.034 3.865-.8 6.645-3.255 8.804-7.539.957-1.898 1.779-4.134 2.511-6.764.497-1.782.948-3.722 1.407-5.993.333-1.648.392-1.966 1.161-6.195 1.35-7.412 2.161-10.757 3.677-13.85 1.893-3.866 4.74-6.143 8.65-6.143h.116a8.999 8.999 0 0 1 17.868 1.499 8.996 8.996 0 0 1-16.117 5.498h-1.868c-.868 0-1.54.538-2.366 2.224-1.12 2.285-1.854 5.314-3.076 12.026-.78 4.288-.84 4.613-1.187 6.327-.49 2.424-.977 4.522-1.524 6.484-.846 3.039-1.821 5.69-3.004 8.037-3.053 6.057-7.48 9.968-13.634 11.24-12.488 2.585-23.592-6.227-25.285-18.85-13.364-1.114-21.37-9.164-24.579-21.795a3.498 3.498 0 1 1 6.782-1.723c2.725 10.729 9.188 16.653 21.073 16.653 13.663 0 20.537-7.257 22.769-20.085 1.011-5.815.921-12.115.152-18.098a61.83 61.83 0 0 0-.39-2.617 47.731 47.731 0 0 0-.196-1.057c-.538-3.037-1.94-5.573-3.905-6.978l-.09-.064c-.78.442-3.584-.123-6.718-1.4-3.502-1.428-6.09-3.204-5.778-3.968 0 0-.14-1.67.857-4.116.997-2.445 2.264-3.54 2.264-3.54.312-.765 3.403-.227 6.906 1.2C49.796 3 52.383 4.777 52.072 5.541c0 0-.051.592-.246 1.478.371.244.736.493 1.095.75 3.588 2.564 5.89 6.73 6.728 11.457-.035-.2.109.555.2 1.08.15.87.297 1.843.435 2.915.85 6.62.95 13.582-.199 20.189-2.558 14.707-10.835 24.348-25.86 25.716zM13.9 12.885c-.287.188-.568.38-.842.576-1.966 1.405-3.368 3.94-3.904 6.97.03-.17-.119.62-.197 1.083-.136.793-.27 1.69-.396 2.684a73.31 73.31 0 0 0-.59 8.902 3.499 3.499 0 0 1-6.997-.027A80.242 80.242 0 0 1 2.06 20.339c.091-.536.243-1.346.204-1.12.835-4.72 3.138-8.886 6.727-11.45a33.58 33.58 0 0 1 2.135-1.405c-.09-.51-.116-.823-.116-.823-.312-.764 2.275-2.54 5.778-3.968C20.29.146 23.382-.392 23.693.373c0 0 1.267 1.096 2.264 3.541.996 2.445.857 4.115.857 4.115.311.764-2.276 2.541-5.778 3.968-3.503 1.428-6.594 1.965-6.906 1.201 0 0-.086-.111-.23-.313z"/></g></svg>