<svg xmlns="http://www.w3.org/2000/svg" viewBox="0 0 18 42"><path d="M4.3 25.6C2.1 29.7.4 34 4.6 37.5c3.8-3.5 2-7.9-.3-11.9zM5 39.2c4.7 2.2 8.4-.8 11.5-4.3-4.7-.6-9.4-.7-11.5 4.3zm4.1-9.7C12 25.2 9.2 21.3 6 18c-1.1 4.4-1.9 9 3.1 11.5zM9 33.7c5.3.3 7.5-3.9 9-8.2-4.6 1.1-9 2.7-9 8.2zm.9-14.6c1.6-4.9-2.1-7.9-6.1-10.4 0 4.6.6 9.2 6.1 10.4zm1.8 6.6c5.1-1.5 5.6-6.2 5.4-10.7-3.8 2.6-7.4 5.6-5.4 10.7zM9.6 10.9C11.7 6.2 8.4 2.8 4.7 0c-.4 4.6-.4 9.2 4.9 10.9zm5.3-6.1c-3.3 3.3-6.2 7-3.1 11.6C16.4 14 16 9.3 14.9 4.8z" fill="#d5dde0"/></svg>