<svg width="32" height="24" xmlns="http://www.w3.org/2000/svg"><g fill="#C5CCD0" fill-rule="evenodd"><path d="M8.012 18.968c0-1.412-1.38-2.561-3.073-2.561-1.696 0-3.073 1.149-3.073 2.56 0 1.413 1.377 2.563 3.073 2.563 1.693 0 3.073-1.15 3.073-2.562m-7.903 0c0-2.38 2.167-4.317 4.83-4.317 2.661 0 4.828 1.938 4.828 4.317 0 2.382-2.167 4.318-4.828 4.318-2.663 0-4.83-1.936-4.83-4.318M8.012 4.817c0-1.412-1.38-2.561-3.073-2.561-1.696 0-3.073 1.149-3.073 2.56 0 1.413 1.377 2.562 3.073 2.562 1.693 0 3.073-1.15 3.073-2.561m-7.903 0C.11 2.437 2.276.5 4.94.5 7.6.5 9.767 2.437 9.767 4.817S7.6 9.134 4.94 9.134C2.276 9.134.11 7.198.11 4.817" fill-rule="nonzero"/><path d="M13.938 15.529L31.17 6.383s-.366-1.024-3.219-1.5c-2.854-.476-7.317 1.792-7.317 1.792l-8.78 4.757s.475.62-.257 1.756c-.732 1.134-2.928 1.463-2.928 1.463l1.391 1.5c1.086-.584 3.878-.622 3.878-.622m4.135-.139l2.634 1.72s3.878 2.78 6.88 2.525c3-.257 3.913-1.391 3.913-1.391l-9.292-5.05-4.135 2.196zM4.94 9.133l3.402-.109s.986.044 1.573.333c.584.29.768.581.768.581l3.987-2.085-1.757-1.427s-2.45 1.536-4.244.768c-1.79-.768-3.73 1.94-3.73 1.94"/></g></svg>