<svg xmlns="http://www.w3.org/2000/svg" width="54" height="40"><path fill="#D3F0FF" fill-rule="evenodd" d="M54 6.247c-7.061 3.471-10.592 7.55-10.592 12.235 3.01.347 5.499 1.576 7.467 3.687 1.967 2.112 2.951 4.555 2.951 7.332 0 2.95-.955 5.438-2.865 7.462C49.051 38.988 46.65 40 43.756 40c-3.242 0-6.049-1.316-8.422-3.948-2.373-2.632-3.56-5.828-3.56-9.588 0-11.28 6.31-20.101 18.927-26.464L54 6.247zm-31.775 0c-7.119 3.471-10.678 7.55-10.678 12.235 3.067.347 5.585 1.576 7.553 3.687 1.968 2.112 2.951 4.555 2.951 7.332 0 2.95-.969 5.438-2.908 7.462C17.204 38.988 14.788 40 11.893 40c-3.24 0-6.033-1.316-8.377-3.948C1.172 33.42 0 30.224 0 26.464 0 15.184 6.28 6.363 18.84 0l3.385 6.247z"/></svg>